<svg xmlns="http://www.w3.org/2000/svg" width="926pt" height="165pt" viewBox="0 0 926 165" version="1.1">
  <path fill="#ffffff" d="M0 0L926 0 926 165 0 165 0 0Z"/>
  <path fill="#000000" d="M210.5 8.76C211.06 8.75 212.19 8.75 212.75 8.75 212.76 19.05 212.74 29.34 212.76 39.63 216.35 37.43 221.72 35.59 224.88 39.46 245.09 39.55 265.3 39.48 285.5 39.5 285.5 29.25 285.5 19 285.5 8.76 286.13 8.75 287.37 8.75 288 8.75 288 19.05 288.01 29.34 287.99 39.64 291.53 37.22 296.9 35.74 300.14 39.45 327.43 39.57 354.71 39.46 382 39.5 382 29.25 382 19 382 8.75 382.63 8.75 383.87 8.75 384.5 8.76 384.49 19.04 384.5 29.32 384.49 39.61 388.02 37.22 393.49 35.73 396.66 39.48 404.86 39.53 413.05 39.49 421.25 39.5 421.25 32.92 421.25 26.34 421.25 19.75 421.81 19.75 422.94 19.75 423.5 19.76 423.5 26.34 423.5 32.92 423.5 39.5 447.25 39.5 471 39.5 494.75 39.5 494.75 29.25 494.75 19.01 494.75 8.76 495.31 8.76 496.44 8.75 497 8.75 497 19.05 497 29.35 497 39.65 500.58 37.42 505.92 35.61 509.13 39.45 517.34 39.56 525.54 39.47 533.75 39.5 533.75 32.92 533.75 26.34 533.75 19.76 534.31 19.76 535.44 19.75 536 19.75 536 26.33 536 32.92 536 39.5 567.25 39.5 598.5 39.5 629.75 39.5 629.75 29.25 629.75 19 629.75 8.75 630.38 8.75 631.62 8.75 632.25 8.75 632.22 19.04 632.29 29.33 632.21 39.62 635.78 37.22 641.22 35.74 644.48 39.47 652.57 39.55 660.66 39.48 668.75 39.5 668.75 32.92 668.75 26.34 668.75 19.75 669.38 19.75 670.62 19.75 671.25 19.75 671.25 26.34 671.24 32.92 671.25 39.5 683.75 39.5 696.25 39.5 708.75 39.5 708.75 35.92 708.75 32.34 708.75 28.75 709.38 28.75 710.62 28.75 711.25 28.75 711.24 32.34 711.24 35.92 711.25 39.5 735.58 39.5 759.92 39.5 784.25 39.5 784.25 29.25 784.25 19 784.25 8.75 784.88 8.75 786.12 8.75 786.75 8.75 786.75 19.04 786.74 29.34 786.75 39.63 790.26 37.24 795.72 35.7 798.88 39.46 807 39.55 815.13 39.48 823.25 39.5 823.25 32.92 823.25 26.34 823.25 19.75 823.88 19.75 825.12 19.75 825.75 19.75 825.75 26.34 825.75 32.92 825.75 39.5 838.25 39.5 850.75 39.5 863.25 39.5 863.24 35.92 863.25 32.34 863.25 28.75 863.88 28.75 865.12 28.75 865.75 28.75 865.74 32.34 865.74 35.92 865.75 39.5 885.41 39.5 905.08 39.5 924.75 39.5 924.75 66.58 924.75 93.67 924.75 120.75 912.5 120.74 900.26 120.77 888.02 120.73 886.21 120.56 884.47 121.02 882.9 121.86 882.78 121.58 882.55 121.01 882.44 120.72 603.61 120.79 324.79 120.73 45.96 120.75 47.04 128.57 51 136.79 47.61 144.55 43.27 153.87 29.06 154.75 22.63 147.27 18.71 142.63 19.62 134.31 25.42 131.65 28.34 130.74 32.28 130.97 34.15 133.75 36.49 136.49 36.64 140.73 34.64 143.69 32.64 145.47 29.82 145.87 27.38 146.76 32.72 152.6 43.74 149.36 45.66 141.86 47.6 134.75 44.41 127.7 43.21 120.75 31.49 120.76 19.76 120.73 8.03 120.76 5.48 120.73 2.83 121.03 0.41 120 2.82 118.98 5.45 119.27 7.99 119.24 14.7 119.3 21.42 119.16 28.13 119.33 19.91 116.27 13.47 109.35 10.86 101 7.37 100.76 3.58 101.78 0.38 99.98 3.66 99.25 7.03 99.53 10.36 99.51 8.96 93.38 9.24 86.92 11.4 81 8.1 81 4.81 81 1.51 81L1.49 79.51C4.97 79.5 8.46 79.5 11.95 79.5 15.35 72.44 20.84 66.7 26.09 60.99 17.89 61.01 9.7 61 1.51 61L1.49 59.51C10.23 59.49 18.98 59.51 27.72 59.49 28.63 58.45 29.52 57.41 30.43 56.37 29.19 51.33 28.46 46.18 28.18 41 19.29 41 10.4 41 1.51 41L1.49 39.51C10.37 39.5 19.26 39.5 28.14 39.51 28.25 33.43 29.77 27.47 31.92 21.82 33.34 18.58 35.6 15.4 38.96 14 40.93 13.69 42.27 15.61 43.05 17.13 46.41 24.1 48.55 31.74 48.59 39.51 102.56 39.49 156.53 39.51 210.5 39.5 210.5 29.25 210.5 19 210.5 8.76Z"/>
  <path fill="#ffffff" d="M37.94 26.86C39.81 25.33 43.5 24.98 44.41 27.76 45.91 31.53 44.42 35.69 43.68 39.48 39.75 39.52 35.82 39.5 31.89 39.5 33.19 35.05 34 29.84 37.94 26.86Z"/>
  <path fill="#ffffff" d="M31.73 41.01C35.52 40.99 39.31 40.98 43.1 41.05 40.42 45.99 37.12 50.64 32.95 54.44 31.81 50.07 31.14 45.53 31.73 41.01Z"/>
  <path fill="#ffffff" d="M48.31 41.02C67.79 40.97 87.27 41.01 106.75 41 106.75 47.17 106.75 53.33 106.75 59.5 85.04 59.5 63.34 59.5 41.63 59.51 45.16 53.91 47.42 47.58 48.31 41.02Z"/>
  <path fill="#ffffff" d="M109.5 41C110.92 41 112.33 41 113.75 41 113.75 47.17 113.75 53.33 113.75 59.5 112.33 59.5 110.92 59.5 109.5 59.5 109.5 53.33 109.5 47.17 109.5 41Z"/>
  <path fill="#ffffff" d="M116.5 41C122.58 41 128.67 41 134.75 41 134.75 47.17 134.75 53.33 134.75 59.5 128.67 59.5 122.58 59.5 116.5 59.5 116.5 53.33 116.5 47.17 116.5 41Z"/>
  <path fill="#ffffff" d="M137 41C147 41 157 41 167 41 167 47.17 167 53.34 167 59.5 157 59.5 147 59.5 137 59.5 137 53.34 137 47.17 137 41Z"/>
  <path fill="#ffffff" d="M169.75 41C171.16 41 172.58 41 174 41 174 47.17 174 53.33 174 59.5 172.58 59.5 171.16 59.5 169.75 59.5 169.75 53.33 169.75 47.17 169.75 41Z"/>
  <path fill="#ffffff" d="M176.75 41C182.08 41 187.42 41 192.75 41 192.75 47.17 192.75 53.33 192.75 59.5 187.42 59.5 182.08 59.5 176.75 59.5 176.75 53.33 176.75 47.17 176.75 41Z"/>
  <path fill="#ffffff" d="M195.25 41C200.33 41 205.42 41 210.5 41 210.5 47.17 210.5 53.33 210.5 59.5 205.42 59.5 200.33 59.5 195.25 59.5 195.25 53.33 195.25 47.17 195.25 41Z"/>
  <path fill="#ffffff" d="M212.72 43.14C214.03 40.64 216.83 40.93 219.23 40.89 222.48 47.28 216.24 52.72 212.75 57.36 212.74 52.62 212.78 47.88 212.72 43.14Z"/>
  <path fill="#ffffff" d="M225.87 41C231.41 41 236.96 41 242.5 41 242.5 47.17 242.5 53.33 242.5 59.5 232.78 59.49 223.05 59.53 213.33 59.48 216.7 56.14 220.54 53.29 223.75 49.8 225.99 47.44 226.55 44.09 225.87 41Z"/>
  <path fill="#ffffff" d="M245.25 41C246.66 41 248.08 41 249.5 41 249.5 47.17 249.5 53.33 249.5 59.5 248.08 59.5 246.66 59.5 245.25 59.5 245.24 53.33 245.25 47.17 245.25 41Z"/>
  <path fill="#ffffff" d="M252.25 41C257.5 41 262.75 41 268 41 268 47.17 268 53.33 268 59.5 262.75 59.5 257.5 59.5 252.25 59.5 252.24 53.33 252.25 47.17 252.25 41Z"/>
  <path fill="#ffffff" d="M270.25 41C275.33 41 280.42 41 285.5 41 285.5 47.17 285.5 53.33 285.5 59.5 280.42 59.5 275.33 59.5 270.25 59.5 270.24 53.33 270.25 47.17 270.25 41Z"/>
  <path fill="#ffffff" d="M288.07 43.91C288.04 42.68 289.17 41.93 289.75 40.97 291.24 40.98 292.73 40.98 294.23 40.98 294.91 42.56 296.01 44.19 295.29 45.98 294.08 50.39 290.53 53.59 288.02 57.27 288.05 52.81 287.87 48.36 288.07 43.91Z"/>
  <path fill="#ffffff" d="M300.87 41C313.58 41 326.29 41 339 41 339 47.17 339 53.34 339 59.5 329.08 59.5 319.16 59.5 309.25 59.5 309.25 56.59 309.24 53.67 309.25 50.76 308.69 50.76 307.56 50.75 307 50.75 307 53.67 307 56.59 307 59.5 300.77 59.49 294.55 59.52 288.33 59.48 291.69 56.14 295.53 53.3 298.74 49.81 300.99 47.46 301.56 44.1 300.87 41Z"/>
  <path fill="#ffffff" d="M342 41C343.33 41 344.66 41 346 41 346 47.17 346 53.34 346 59.5 344.66 59.5 343.33 59.5 342 59.5 342 53.34 342 47.17 342 41Z"/>
  <path fill="#ffffff" d="M349 41C354.17 41 359.33 41 364.5 41 364.5 47.17 364.5 53.33 364.5 59.5 359.33 59.5 354.17 59.5 349 59.5 349 53.33 349 47.17 349 41Z"/>
  <path fill="#ffffff" d="M367 41C372 41 377 41 382 41 382 47.17 382 53.34 382 59.5 377 59.5 372 59.5 367 59.5 367 53.34 367 47.17 367 41Z"/>
  <path fill="#ffffff" d="M384.62 43.43C385.18 40.37 388.65 41.01 390.95 41.03 394.24 47.36 387.94 52.76 384.48 57.38 384.61 52.73 384.3 48.07 384.62 43.43Z"/>
  <path fill="#ffffff" d="M397.63 41C405.5 41 413.37 41 421.25 41 421.25 47.17 421.25 53.33 421.25 59.5 416.17 59.5 411.08 59.5 406 59.5 406 56.58 406 53.67 406 50.75 405.16 50.75 404.33 50.75 403.5 50.75 403.5 53.67 403.5 56.58 403.5 59.5 397.36 59.5 391.22 59.52 385.08 59.49 388.68 55.96 392.74 52.88 395.92 48.96 397.81 46.75 398.17 43.76 397.63 41Z"/>
  <path fill="#ffffff" d="M423.5 41C433.41 41 443.33 41 453.25 41 453.25 47.17 453.25 53.33 453.25 59.5 447.44 59.51 441.62 59.48 435.81 59.52 436.81 56.62 437.9 53.04 435.44 50.53 432.66 46.41 426.84 48.45 423.46 50.64 423.51 47.43 423.5 44.21 423.5 41Z"/>
  <path fill="#ffffff" d="M456 41C457.41 41 458.83 41 460.25 41 460.25 47.17 460.25 53.33 460.25 59.5 458.83 59.5 457.41 59.5 456 59.5 456 53.33 456 47.17 456 41Z"/>
  <path fill="#ffffff" d="M463 41C467.66 41 472.33 41 477 41 477 47.17 477 53.34 477 59.5 472.33 59.5 467.66 59.5 463 59.5 463 53.34 463 47.17 463 41Z"/>
  <path fill="#ffffff" d="M479.5 41C484.58 41 489.67 41 494.75 41 494.75 47.17 494.75 53.33 494.75 59.5 489.66 59.5 484.58 59.5 479.5 59.5 479.5 53.33 479.5 47.17 479.5 41Z"/>
  <path fill="#ffffff" d="M497.02 43.28C497.63 42.49 498.25 41.71 498.88 40.92 500.47 41.04 502.15 40.83 503.69 41.38 506.48 47.64 500.34 52.79 497.01 57.37 497 52.67 496.98 47.97 497.02 43.28Z"/>
  <path fill="#ffffff" d="M510.11 41C517.99 41 525.87 41 533.75 41 533.75 47.17 533.75 53.33 533.75 59.5 528.67 59.5 523.58 59.5 518.5 59.5 518.5 56.59 518.49 53.67 518.5 50.76 517.87 50.75 516.62 50.75 516 50.75 516 53.67 516 56.59 516 59.5 509.86 59.49 503.73 59.52 497.59 59.49 501.06 55.96 505.16 53.1 508.37 49.33 510.38 47.03 510.72 43.89 510.11 41Z"/>
  <path fill="#ffffff" d="M536 41C553.42 41 570.83 41 588.25 41 588.25 47.17 588.25 53.33 588.25 59.5 574.93 59.53 561.61 59.45 548.3 59.54 549.21 56.71 550.44 53.3 548.14 50.76 545.42 46.45 539.41 48.29 535.99 50.7 536 47.47 536 44.23 536 41Z"/>
  <path fill="#ffffff" d="M591 41C592.41 41 593.83 41 595.25 41 595.25 47.17 595.25 53.33 595.25 59.5 593.83 59.5 592.41 59.5 591 59.5 591 53.34 591 47.17 591 41Z"/>
  <path fill="#ffffff" d="M598 41C602.75 41 607.5 41 612.25 41 612.25 47.17 612.25 53.33 612.25 59.5 607.5 59.5 602.75 59.5 598 59.5 598 53.33 598 47.17 598 41Z"/>
  <path fill="#ffffff" d="M614.5 41C619.58 41 624.67 41 629.75 41 629.75 47.17 629.75 53.33 629.75 59.5 624.66 59.5 619.58 59.5 614.5 59.5 614.49 53.33 614.5 47.17 614.5 41Z"/>
  <path fill="#ffffff" d="M632.39 43.18C633.13 40.66 635.97 40.78 638.09 41.05 640.4 42.55 639.89 45.83 638.86 47.98 637.09 51.38 634.44 54.21 632.24 57.32 632.35 52.61 632.02 47.88 632.39 43.18Z"/>
  <path fill="#ffffff" d="M645.11 41C652.99 41 660.87 41 668.75 41 668.75 47.17 668.75 53.33 668.75 59.5 663.66 59.5 658.58 59.5 653.5 59.5 653.5 56.59 653.49 53.67 653.5 50.76 652.94 50.75 651.81 50.75 651.25 50.75 651.25 53.67 651.24 56.58 651.25 59.5 645.03 59.5 638.81 59.52 632.59 59.49 636.06 55.96 640.17 53.09 643.38 49.31 645.38 47.02 645.72 43.88 645.11 41Z"/>
  <path fill="#ffffff" d="M671.25 41C683.75 41 696.25 41 708.75 41 708.75 47.17 708.75 53.33 708.75 59.5 700.28 59.53 691.8 59.45 683.33 59.54 684.63 56.25 685.25 52.14 682.34 49.48 678.99 46.88 674.3 48.5 671.19 50.71 671.27 47.47 671.24 44.24 671.25 41Z"/>
  <path fill="#ffffff" d="M711.25 41C721.08 41 730.92 41 740.75 41 740.75 47.17 740.75 53.33 740.75 59.5 735 59.49 729.26 59.52 723.51 59.48 720.21 55.77 714.82 57.19 711.22 59.65 711.27 53.43 711.23 47.22 711.25 41Z"/>
  <path fill="#ffffff" d="M743.75 41C745.07 41 746.41 41 747.75 41 747.75 47.17 747.75 53.34 747.75 59.5 746.41 59.5 745.08 59.5 743.75 59.5 743.75 53.33 743.75 47.17 743.75 41Z"/>
  <path fill="#ffffff" d="M750.75 41C756.08 41 761.42 41 766.75 41 766.75 47.17 766.75 53.33 766.75 59.5 761.41 59.5 756.08 59.5 750.75 59.5 750.75 53.33 750.75 47.17 750.75 41Z"/>
  <path fill="#ffffff" d="M769.25 41C774.24 41 779.25 41 784.25 41 784.25 47.17 784.25 53.33 784.25 59.5 779.25 59.5 774.25 59.5 769.25 59.5 769.24 53.33 769.25 47.17 769.25 41Z"/>
  <path fill="#ffffff" d="M786.9 43.1C787.75 40.37 790.86 41.13 793.06 40.89 796.66 47.17 790.19 52.74 786.75 57.36 786.86 52.61 786.52 47.84 786.9 43.1Z"/>
  <path fill="#ffffff" d="M799.88 41C807.67 41 815.46 41 823.25 41 823.25 47.17 823.25 53.33 823.25 59.5 818.25 59.5 813.25 59.5 808.25 59.5 808.24 56.59 808.24 53.67 808.25 50.75 807.62 50.75 806.38 50.75 805.75 50.75 805.75 53.67 805.75 56.59 805.75 59.5 799.61 59.49 793.46 59.52 787.32 59.48 790.92 56.01 794.91 52.91 798.11 49.04 800.01 46.81 800.43 43.8 799.88 41Z"/>
  <path fill="#ffffff" d="M825.75 41C838.25 41 850.75 41 863.25 41 863.25 47.17 863.25 53.33 863.25 59.5 854.85 59.53 846.45 59.45 838.05 59.54 838.58 57.44 839.62 55.3 839.11 53.1 838.21 50.52 835.99 47.82 832.96 48.22 830.27 47.95 827.89 49.31 825.71 50.67 825.76 47.45 825.75 44.22 825.75 41Z"/>
  <path fill="#ffffff" d="M865.75 41C882.16 41 898.58 41 915 41 915 47.17 915 53.34 915 59.5 902.62 59.47 890.25 59.55 877.88 59.46 874.72 55.7 869.26 57.24 865.75 59.63 865.74 53.42 865.75 47.21 865.75 41Z"/>
  <path fill="#ffffff" d="M917.75 41C919.15 41 920.57 41 922 41 922 47.17 922 53.33 922 59.5 920.57 59.5 919.15 59.5 917.75 59.5 917.74 53.33 917.75 47.17 917.75 41Z"/>
  <path fill="#ffffff" d="M425.21 52.02C426.77 51.29 429.23 50.92 430.26 52.71 431.69 54.73 430.7 57.3 430.35 59.49 428.05 59.5 425.75 59.5 423.45 59.49 423.54 56.92 422.94 53.89 425.21 52.02Z"/>
  <path fill="#ffffff" d="M536.96 52.91C537.92 51.18 540.17 51.34 541.83 51.66 544.31 53.57 543.41 56.88 542.89 59.47 540.58 59.5 538.26 59.51 535.96 59.5 536.18 57.32 535.39 54.76 536.96 52.91Z"/>
  <path fill="#ffffff" d="M673.22 51.78C674.9 51.2 677.3 51.15 678.08 53.12 679.43 55.1 678.19 57.4 677.89 59.49 675.66 59.5 673.43 59.5 671.21 59.49 671.3 56.81 670.62 53.55 673.22 51.78Z"/>
  <path fill="#ffffff" d="M827.46 52.05C829.19 51.07 832.03 51.08 832.88 53.25 833.7 55.27 832.95 57.44 832.61 59.48 830.3 59.5 828 59.5 825.7 59.5 825.89 56.97 825.03 53.8 827.46 52.05Z"/>
  <path fill="#ffffff" d="M40.56 61.01C62.62 60.98 84.69 61.01 106.75 61 106.75 67.17 106.75 73.33 106.75 79.5 83.74 79.5 60.73 79.51 37.72 79.49 36.89 75.4 36.12 71.3 35.23 67.22 37 65.15 38.79 63.09 40.56 61.01Z"/>
  <path fill="#ffffff" d="M109.5 61C110.92 61 112.33 61 113.76 61 113.75 67.17 113.75 73.33 113.75 79.5 112.33 79.5 110.92 79.5 109.5 79.5 109.5 73.33 109.5 67.17 109.5 61Z"/>
  <path fill="#ffffff" d="M116.5 61C122.58 61 128.67 61 134.75 61 134.75 67.17 134.75 73.33 134.75 79.5 128.67 79.5 122.58 79.5 116.5 79.5 116.5 73.33 116.5 67.17 116.5 61Z"/>
  <path fill="#ffffff" d="M137 61C147 61 157 61 167 61 167 67.17 167 73.33 167 79.5 161.11 79.52 155.22 79.46 149.33 79.54 150.19 76.74 151.44 73.35 149.19 70.82 146.48 66.45 140.43 68.26 136.99 70.7 137 67.47 137 64.23 137 61Z"/>
  <path fill="#ffffff" d="M169.75 61C171.16 61 172.58 61 174 61 174 67.17 174 73.33 174 79.5 172.58 79.5 171.16 79.5 169.75 79.5 169.75 73.33 169.75 67.17 169.75 61Z"/>
  <path fill="#ffffff" d="M176.75 61C182.08 61 187.42 61 192.75 61 192.75 67.17 192.75 73.33 192.75 79.5 187.42 79.5 182.08 79.5 176.75 79.5 176.75 73.33 176.75 67.17 176.75 61Z"/>
  <path fill="#ffffff" d="M195.25 61C200.44 61.13 205.66 60.67 210.83 61.32 221.36 60.59 231.95 61.2 242.5 61 242.5 67.17 242.5 73.33 242.5 79.5 230.79 79.54 219.08 79.43 207.37 79.56 208.94 76.14 209.14 71.54 205.82 69.08 202.4 67.09 198.19 68.6 195.19 70.71 195.27 67.47 195.25 64.24 195.25 61Z"/>
  <path fill="#ffffff" d="M245.25 61C246.66 61 248.08 61 249.5 61 249.5 67.17 249.5 73.34 249.5 79.5 248.08 79.5 246.66 79.5 245.25 79.5 245.24 73.33 245.25 67.17 245.25 61Z"/>
  <path fill="#ffffff" d="M252.25 61C257.5 61 262.75 61 268 61 268 67.17 268 73.34 268 79.5 262.75 79.5 257.5 79.5 252.25 79.5 252.24 73.33 252.25 67.17 252.25 61Z"/>
  <path fill="#ffffff" d="M270.25 61C275.44 61.13 280.66 60.68 285.83 61.32 292.86 60.63 299.95 61.17 307 61 307 67.17 307 73.34 307 79.5 298.85 79.52 290.71 79.46 282.56 79.53 283.5 76.7 284.66 73.23 282.36 70.7 279.58 66.4 273.66 68.38 270.19 70.69 270.27 67.46 270.25 64.23 270.25 61Z"/>
  <path fill="#ffffff" d="M309.25 61C319.16 61 329.08 61 339 61 339 67.17 339 73.34 339 79.5 329.08 79.61 319.17 79.3 309.25 79.53 309.24 73.35 309.25 67.18 309.25 61Z"/>
  <path fill="#ffffff" d="M342 61C343.33 61 344.66 61 346 61 346 67.17 346 73.33 346 79.5 344.66 79.5 343.33 79.5 342 79.5 342 73.33 342 67.17 342 61Z"/>
  <path fill="#ffffff" d="M349 61C354.17 61 359.33 61 364.5 61 364.5 67.17 364.5 73.33 364.5 79.5 359.33 79.5 354.17 79.5 349 79.5 349 73.33 349 67.17 349 61Z"/>
  <path fill="#ffffff" d="M367 61C372.17 61.3 377.48 60.33 382.55 61.54 389.43 60.31 396.53 61.34 403.5 61 403.5 67.17 403.5 73.33 403.5 79.5 395.35 79.53 387.2 79.45 379.05 79.54 379.91 76.77 381.13 73.52 379.17 70.91 376.59 66.49 370.33 68.09 366.98 70.74 367 67.49 367 64.25 367 61Z"/>
  <path fill="#ffffff" d="M406 61C411.08 61 416.17 61 421.25 61 421.25 65.11 421.26 69.22 421.23 73.33 425.54 69.12 430.01 65.09 434.43 61 440.7 61 446.97 61 453.25 61 453.25 67.17 453.25 73.33 453.25 79.5 437.5 79.62 421.75 79.31 406.01 79.54 405.99 73.36 406 67.18 406 61Z"/>
  <path fill="#ffffff" d="M423.5 61C425.44 61 427.38 61 429.33 61 427.39 63.47 425.45 65.94 423.48 68.38 423.49 65.92 423.5 63.46 423.5 61Z"/>
  <path fill="#ffffff" d="M456 61C457.41 61 458.83 61 460.25 61 460.25 67.17 460.25 73.33 460.25 79.5 458.83 79.5 457.41 79.5 456 79.5 456 73.33 456 67.17 456 61Z"/>
  <path fill="#ffffff" d="M463 61C467.66 61 472.33 61 477 61 477 67.17 477 73.34 477 79.5 472.33 79.5 467.67 79.5 463 79.5 463 73.34 463 67.17 463 61Z"/>
  <path fill="#ffffff" d="M479.5 61C484.79 61.13 490.11 60.67 495.38 61.34 502.22 60.59 509.13 61.19 516 61 516 67.17 516 73.34 516 79.5 507.87 79.53 499.74 79.45 491.61 79.55 492.72 76.7 493.56 73.15 491.4 70.56 488.73 66.46 482.74 68.3 479.45 70.65 479.51 67.44 479.5 64.22 479.5 61Z"/>
  <path fill="#ffffff" d="M518.5 61C523.58 61 528.67 61 533.75 61 533.75 65.11 533.75 69.22 533.75 73.33 538.02 69.1 542.54 65.13 546.91 61 549.93 61 552.96 61 556 61 556 67.17 556 73.33 556 79.5 543.5 79.64 531 79.26 518.51 79.54 518.49 73.36 518.5 67.18 518.5 61Z"/>
  <path fill="#ffffff" d="M536 61C537.93 61 539.88 61 541.83 61 539.88 63.46 537.96 65.93 536.01 68.38 536 65.92 535.99 63.46 536 61Z"/>
  <path fill="#ffffff" d="M558.5 61C568.41 61 578.33 61 588.25 61 588.25 67.17 588.25 73.33 588.25 79.5 578.33 79.5 568.41 79.5 558.5 79.5 558.5 73.33 558.5 67.17 558.5 61Z"/>
  <path fill="#ffffff" d="M591 61C592.41 61 593.83 61 595.25 61 595.25 67.17 595.25 73.33 595.25 79.5 593.83 79.5 592.41 79.5 591 79.5 591 73.33 591 67.17 591 61Z"/>
  <path fill="#ffffff" d="M598 61C602.75 61 607.5 61 612.25 61 612.25 67.17 612.25 73.33 612.25 79.5 607.5 79.5 602.75 79.5 598 79.5 598 73.33 598 67.17 598 61Z"/>
  <path fill="#ffffff" d="M614.5 61C619.79 61.12 625.11 60.67 630.38 61.34 637.3 60.59 644.3 61.19 651.25 61 651.25 67.17 651.25 73.33 651.25 79.5 643.1 79.51 634.95 79.48 626.81 79.52 627.81 76.62 628.9 73.04 626.44 70.53 623.67 66.41 617.84 68.45 614.46 70.64 614.51 67.43 614.5 64.22 614.5 61Z"/>
  <path fill="#ffffff" d="M653.5 61C658.58 61 663.67 61 668.75 61 668.75 65.11 668.75 69.22 668.75 73.33 673.02 69.1 677.54 65.13 681.91 61 685.02 61 688.13 61 691.25 61 691.25 67.17 691.25 73.33 691.25 79.5 678.67 79.6 666.08 79.33 653.5 79.53 653.49 73.36 653.5 67.18 653.5 61Z"/>
  <path fill="#ffffff" d="M671.25 61C673.1 61 674.94 61 676.81 61 674.91 63.41 673.08 65.86 671.25 68.32 671.24 65.88 671.24 63.44 671.25 61Z"/>
  <path fill="#ffffff" d="M693.5 61C698.58 61 703.67 61 708.75 61 708.75 67.17 708.75 73.33 708.75 79.5 703.66 79.5 698.58 79.5 693.5 79.5 693.49 73.33 693.5 67.17 693.5 61Z"/>
  <path fill="#ffffff" d="M711.3 63.93C711.38 59.87 718.91 59.67 718.74 64 718.62 69.42 714 73.09 711.24 77.32 711.3 72.85 711.13 68.39 711.3 63.93Z"/>
  <path fill="#ffffff" d="M724.11 61C729.66 61 735.2 61 740.75 61 740.75 67.17 740.75 73.33 740.75 79.5 731.03 79.49 721.31 79.52 711.59 79.49 715.06 75.96 719.17 73.09 722.38 69.32 724.38 67.02 724.72 63.89 724.11 61Z"/>
  <path fill="#ffffff" d="M743.75 61C745.07 61 746.41 61 747.75 61 747.75 67.17 747.75 73.34 747.75 79.5 746.41 79.5 745.07 79.5 743.75 79.5 743.75 73.33 743.75 67.17 743.75 61Z"/>
  <path fill="#ffffff" d="M750.75 61C756.08 61 761.42 61 766.75 61 766.75 67.17 766.75 73.33 766.75 79.5 761.41 79.5 756.08 79.5 750.75 79.5 750.75 73.33 750.75 67.17 750.75 61Z"/>
  <path fill="#ffffff" d="M769.25 61C774.39 61.19 779.59 60.54 784.69 61.42 791.66 60.51 798.74 61.22 805.75 61 805.75 67.17 805.75 73.33 805.75 79.5 797.61 79.53 789.47 79.45 781.33 79.54 782.63 76.25 783.25 72.13 780.33 69.47 776.99 66.88 772.3 68.5 769.19 70.69 769.27 67.46 769.24 64.23 769.25 61Z"/>
  <path fill="#ffffff" d="M808.25 61C813.24 61 818.25 61 823.25 61 823.25 65.1 823.25 69.21 823.24 73.31 827.62 69.21 832.15 65.25 836.39 61 839.51 61 842.63 61 845.75 61 845.75 67.17 845.75 73.33 845.75 79.5 833.25 79.6 820.75 79.33 808.25 79.53 808.24 73.35 808.25 67.18 808.25 61Z"/>
  <path fill="#ffffff" d="M825.75 68.37C825.74 65.91 825.74 63.45 825.75 60.99 827.65 61 829.55 61.01 831.47 61.03 829.63 63.53 827.69 65.96 825.75 68.37Z"/>
  <path fill="#ffffff" d="M848.25 61C853.24 61 858.25 61 863.25 61 863.25 67.17 863.25 73.33 863.25 79.5 858.25 79.5 853.25 79.5 848.25 79.5 848.24 73.33 848.25 67.17 848.25 61Z"/>
  <path fill="#ffffff" d="M865.9 63.09C866.76 60.37 869.87 61.13 872.06 60.89 875.67 67.17 869.19 72.74 865.75 77.36 865.86 72.61 865.51 67.83 865.9 63.09Z"/>
  <path fill="#ffffff" d="M878.88 61C890.92 61 902.96 61 915 61 915 67.17 915 73.33 915 79.5 905.08 79.5 895.16 79.5 885.25 79.5 885.24 75.92 885.24 72.34 885.25 68.75 884.62 68.75 883.38 68.75 882.75 68.75 882.75 72.34 882.75 75.92 882.75 79.5 877.27 79.49 871.8 79.52 866.32 79.48 869.92 76 873.92 72.9 877.12 69.03 879.02 66.81 879.42 63.8 878.88 61Z"/>
  <path fill="#ffffff" d="M917.75 61C919.15 61 920.57 61 922 61 922 67.17 922 73.33 922 79.5 920.57 79.5 919.15 79.5 917.75 79.5 917.74 73.33 917.75 67.17 917.75 61Z"/>
  <path fill="#ffffff" d="M22.94 79.51C26.1 75.77 29.44 72.16 33.19 69 33.91 72.5 34.57 76 35.22 79.51 31.12 79.5 27.03 79.5 22.94 79.51Z"/>
  <path fill="#ffffff" d="M137.98 72.88C138.94 71.18 141.17 71.36 142.81 71.64 145.31 73.54 144.42 76.88 143.9 79.47 141.58 79.5 139.27 79.51 136.96 79.5 137.18 77.3 136.39 74.73 137.98 72.88Z"/>
  <path fill="#ffffff" d="M195.21 79.49C194.78 76.22 195.27 70.51 199.99 71.53 203.78 72.26 202.66 76.84 201.88 79.5 199.65 79.5 197.43 79.5 195.21 79.49Z"/>
  <path fill="#ffffff" d="M270.19 74.35C271.35 72.23 273.46 70.78 275.94 71.6 278.64 73.41 277.66 76.89 277.09 79.51 274.81 79.5 272.54 79.5 270.27 79.5 270.25 77.78 270.23 76.06 270.19 74.35Z"/>
  <path fill="#ffffff" d="M366.95 79.5C367.05 76.8 366.39 73.51 369 71.73 370.41 71.44 372.53 71.02 373.42 72.52 375.28 74.52 374.07 77.2 373.66 79.49 371.42 79.5 369.18 79.5 366.95 79.5Z"/>
  <path fill="#ffffff" d="M480.68 72.61C481.77 70.95 484.22 71.24 485.73 72.08 487.84 74.12 486.63 77.07 486.15 79.5 483.91 79.5 481.68 79.5 479.45 79.49 479.72 77.21 478.79 74.4 480.68 72.61Z"/>
  <path fill="#ffffff" d="M616.21 72.02C617.77 71.28 620.24 70.92 621.26 72.72 622.69 74.73 621.7 77.3 621.35 79.49 619.05 79.5 616.75 79.5 614.46 79.49 614.54 76.92 613.93 73.89 616.21 72.02Z"/>
  <path fill="#ffffff" d="M770.56 72.45C771.91 70.83 775.23 71.04 776.09 73.13 777.42 75.11 776.19 77.4 775.89 79.49 773.65 79.5 771.43 79.5 769.21 79.49 769.43 77.14 768.55 74.24 770.56 72.45Z"/>
  <path fill="#ffffff" d="M15.25 99.44C15.04 92.76 17.35 86.05 21.71 80.97 26.35 81.01 30.99 81.04 35.63 80.95 28.41 83.78 23.05 91.63 24.75 99.5 21.58 99.5 18.41 99.53 15.25 99.44Z"/>
  <path fill="#ffffff" d="M46.28 80.94C66.44 81.08 86.6 80.96 106.75 81 106.75 87.17 106.75 93.33 106.75 99.5 90.73 99.51 74.7 99.48 58.67 99.52 58.22 91.78 54.17 83.36 46.28 80.94Z"/>
  <path fill="#ffffff" d="M109.5 81C110.92 81 112.33 81 113.75 81 113.75 87.17 113.75 93.34 113.75 99.5 112.69 99.5 110.56 99.5 109.5 99.5 109.5 93.33 109.5 87.17 109.5 81Z"/>
  <path fill="#ffffff" d="M116.5 81C122.58 81 128.67 81 134.75 81 134.75 85.11 134.75 89.22 134.75 93.33 139.02 89.1 143.54 85.13 147.91 81 154.27 80.99 160.63 81 167 81 167 87.17 167 93.34 167 99.5 150.16 99.5 133.33 99.5 116.5 99.5 116.5 93.33 116.5 87.17 116.5 81Z"/>
  <path fill="#ffffff" d="M137 81C138.94 81 140.88 81 142.83 81 140.89 83.46 138.96 85.93 137.01 88.38 137 85.92 137 83.46 137 81Z"/>
  <path fill="#ffffff" d="M169.75 81C171.16 81 172.58 81 174 81 174 87.17 174 93.33 174 99.5 172.58 99.5 171.16 99.5 169.75 99.5 169.75 93.33 169.75 87.17 169.75 81Z"/>
  <path fill="#ffffff" d="M176.75 81C182.08 81 187.42 81 192.75 81 192.75 85.11 192.75 89.22 192.75 93.33 197.02 89.1 201.54 85.14 205.9 81 218.1 80.99 230.3 81 242.5 81 242.5 87.17 242.5 93.33 242.5 99.5 220.58 99.5 198.67 99.5 176.75 99.5 176.75 93.33 176.75 87.17 176.75 81Z"/>
  <path fill="#ffffff" d="M195.25 80.99C197.15 81 199.05 81.01 200.96 81.03 199.11 83.52 197.2 85.97 195.25 88.39 195.24 85.92 195.25 83.45 195.25 80.99Z"/>
  <path fill="#ffffff" d="M245.25 81C246.66 81 248.08 81 249.5 81 249.5 87.17 249.5 93.33 249.5 99.5 248.08 99.5 246.66 99.5 245.25 99.5 245.24 93.33 245.25 87.17 245.25 81Z"/>
  <path fill="#ffffff" d="M252.25 81C257.5 81 262.75 81 268 81 268 85.11 268 89.22 268 93.34 272.26 89.08 276.8 85.12 281.19 81 289.79 81 298.39 81 307 81 307 87.17 307 93.34 307 99.5 288.75 99.5 270.5 99.5 252.25 99.5 252.24 93.33 252.25 87.17 252.25 81Z"/>
  <path fill="#ffffff" d="M270.25 81C272.19 81 274.13 81 276.08 81 274.14 83.46 272.21 85.94 270.25 88.39 270.24 85.92 270.24 83.46 270.25 81Z"/>
  <path fill="#ffffff" d="M309.15 81.07C312.11 79.68 309.13 84.41 309.15 81.07Z"/>
  <path fill="#ffffff" d="M320.97 80.97C326.98 81.03 332.99 80.99 339 81 339 87.17 339 93.34 339 99.5 329.93 99.49 320.87 99.52 311.8 99.49 315.71 95.67 321.42 92.72 322.63 86.94 323.28 84.75 322.02 82.77 320.97 80.97Z"/>
  <path fill="#ffffff" d="M342 81C343.33 81 344.66 81 346 81 346 87.17 346 93.33 346 99.5 344.66 99.5 343.33 99.5 342 99.5 342 93.33 342 87.17 342 81Z"/>
  <path fill="#ffffff" d="M349 81C354.17 81 359.33 81 364.5 81 364.5 85.11 364.51 89.22 364.49 93.32 368.76 89.12 373.26 85.16 377.6 81.03 386.24 80.96 394.87 81.02 403.5 81 403.5 87.17 403.5 93.33 403.5 99.5 385.33 99.5 367.17 99.5 349 99.5 349 93.34 349 87.17 349 81Z"/>
  <path fill="#ffffff" d="M367 81C368.84 81 370.69 81 372.54 81 370.68 83.41 368.85 85.85 367.02 88.27 367 85.85 366.99 83.42 367 81Z"/>
  <path fill="#ffffff" d="M405.92 81.12C408.81 79.49 406.19 84.4 405.92 81.12Z"/>
  <path fill="#ffffff" d="M417.72 80.98C429.56 81.03 441.41 80.99 453.25 81 453.25 87.17 453.25 93.33 453.25 99.5 438.36 99.49 423.48 99.52 408.59 99.49 412.06 95.66 417.3 93.05 418.92 87.84 419.81 85.47 418.88 83.06 417.72 80.98Z"/>
  <path fill="#ffffff" d="M456 81C457.41 81 458.83 81 460.25 81 460.25 87.17 460.25 93.33 460.25 99.5 458.83 99.5 457.41 99.5 456 99.5 456 93.33 456 87.17 456 81Z"/>
  <path fill="#ffffff" d="M463 81C467.66 81 472.33 81 477 81 477 85.11 477 89.22 477 93.34 481.26 89.08 485.8 85.13 490.19 81 498.79 81 507.39 81 516 81 516 87.17 516 93.34 516 99.5 498.33 99.5 480.67 99.5 463 99.5 463 93.34 463 87.17 463 81Z"/>
  <path fill="#ffffff" d="M479.5 80.99C481.41 81 483.31 81.01 485.23 81.02 483.37 83.52 481.44 85.97 479.48 88.38 479.49 85.92 479.5 83.45 479.5 80.99Z"/>
  <path fill="#ffffff" d="M518.3 81.11C521.14 79.47 518.51 84.45 518.3 81.11Z"/>
  <path fill="#ffffff" d="M530.15 80.98C538.77 81.02 547.38 80.99 556 81 556 87.17 556 93.34 556 99.5 544.35 99.48 532.71 99.54 521.06 99.47 524.72 95.51 530.43 92.72 531.61 87.02 532.24 84.86 531.14 82.82 530.15 80.98Z"/>
  <path fill="#ffffff" d="M558.5 81C568.41 81 578.33 81 588.25 81 588.25 87.17 588.25 93.33 588.25 99.5 582.37 99.52 576.49 99.46 570.61 99.54 571.72 96.7 572.56 93.16 570.4 90.56 567.73 86.46 561.73 88.3 558.45 90.65 558.51 87.43 558.5 84.22 558.5 81Z"/>
  <path fill="#ffffff" d="M591 81C592.41 81 593.83 81 595.25 81 595.25 87.17 595.25 93.33 595.25 99.5 593.83 99.5 592.41 99.5 591 99.5 591 93.33 591 87.17 591 81Z"/>
  <path fill="#ffffff" d="M598 81C602.75 81 607.5 81 612.25 81 612.25 85.11 612.26 89.22 612.23 93.33 616.54 89.12 621.01 85.09 625.43 81 634.03 81 642.64 81 651.25 81 651.25 87.17 651.25 93.33 651.25 99.5 633.5 99.5 615.75 99.5 598 99.5 598 93.34 598 87.17 598 81Z"/>
  <path fill="#ffffff" d="M614.5 81C616.44 81 618.38 81 620.33 81 618.39 83.47 616.45 85.94 614.48 88.38 614.49 85.92 614.5 83.46 614.5 81Z"/>
  <path fill="#ffffff" d="M653.31 81.08C656.2 79.55 653.42 84.44 653.31 81.08Z"/>
  <path fill="#ffffff" d="M665.17 80.98C673.86 81.02 682.55 80.99 691.25 81 691.25 87.17 691.25 93.33 691.25 99.5 679.52 99.49 667.8 99.52 656.07 99.49 659.93 95.65 665.63 92.76 666.86 87.03 667.56 84.8 666.27 82.79 665.17 80.98Z"/>
  <path fill="#ffffff" d="M693.5 81C698.78 81.12 704.11 80.67 709.38 81.34 719.8 80.56 730.3 81.21 740.75 81 740.75 87.17 740.75 93.33 740.75 99.5 729.1 99.51 717.46 99.48 705.81 99.52 706.81 96.62 707.9 93.05 705.45 90.54 702.68 86.41 696.85 88.45 693.46 90.64 693.51 87.43 693.5 84.22 693.5 81Z"/>
  <path fill="#ffffff" d="M743.75 81C745.07 81 746.41 81 747.75 81 747.75 87.17 747.75 93.34 747.75 99.5 746.41 99.5 745.07 99.5 743.75 99.5 743.75 93.33 743.75 87.17 743.75 81Z"/>
  <path fill="#ffffff" d="M750.75 81C756.08 81 761.42 81 766.75 81 766.75 85.11 766.75 89.22 766.75 93.33 771.02 89.1 775.54 85.13 779.91 81 788.52 81 797.14 81 805.75 81 805.75 87.17 805.75 93.33 805.75 99.5 787.42 99.5 769.08 99.5 750.75 99.5 750.75 93.33 750.75 87.17 750.75 81Z"/>
  <path fill="#ffffff" d="M769.25 81C771.1 81 772.94 81 774.81 81 772.91 83.41 771.07 85.86 769.25 88.33 769.24 85.88 769.24 83.44 769.25 81Z"/>
  <path fill="#ffffff" d="M808.2 80.98C811.29 79.91 807.82 84.3 808.2 80.98Z"/>
  <path fill="#ffffff" d="M819.96 80.98C828.56 81.03 837.16 80.99 845.75 81 845.75 87.17 845.75 93.33 845.75 99.5 834.11 99.49 822.46 99.53 810.82 99.48 814.31 95.69 819.53 93.04 821.17 87.84 822.07 85.47 821.11 83.06 819.96 80.98Z"/>
  <path fill="#ffffff" d="M848.25 81C853.38 81.19 858.59 80.54 863.69 81.42 870 80.53 876.4 81.21 882.75 81 882.75 87.17 882.75 93.33 882.75 99.5 875.28 99.53 867.8 99.45 860.33 99.54 861.19 96.72 862.39 93.33 860.29 90.72 857.63 86.46 851.53 88.22 848.19 90.71 848.27 87.47 848.24 84.24 848.25 81Z"/>
  <path fill="#ffffff" d="M885.25 81C895.16 81 905.08 81 915 81 915 87.17 915 93.34 915 99.5 909.17 99.49 903.34 99.52 897.51 99.48 894.21 95.77 888.81 97.19 885.22 99.64 885.27 93.43 885.23 87.22 885.25 81Z"/>
  <path fill="#ffffff" d="M917.75 81C919.15 81 920.57 81 922 81 922 87.17 922 93.33 922 99.5 920.57 99.5 919.15 99.5 917.75 99.5 917.74 93.33 917.75 87.17 917.75 81Z"/>
  <path fill="#ffffff" d="M518.54 86.1C518.64 84 520.67 81.94 522.86 82.48 525.09 82.43 526.3 84.99 525.97 86.94 525.37 91.97 521.36 95.53 518.48 99.38 518.56 94.95 518.39 90.52 518.54 86.1Z"/>
  <path fill="#ffffff" d="M309.2 85.35C310.23 84.14 311.14 82.21 313.06 82.47 315.6 81.89 317.14 84.77 316.72 86.95 316.1 91.97 312.1 95.52 309.25 99.38 309.23 94.7 309.29 90.03 309.2 85.35Z"/>
  <path fill="#ffffff" d="M406.17 85.08C407.24 81.26 413.52 81.71 413.53 85.91 413.38 91.35 408.83 95.05 406.02 99.27 406.1 94.54 405.76 89.79 406.17 85.08Z"/>
  <path fill="#ffffff" d="M653.53 86.16C653.61 83.23 657.33 81.29 659.69 83.05 661.71 84.89 661.04 87.96 660.11 90.18 658.48 93.62 655.79 96.4 653.48 99.37 653.56 94.97 653.4 90.56 653.53 86.16Z"/>
  <path fill="#ffffff" d="M808.39 85.2C809.29 81.61 814.94 81.43 815.58 85.26 816.28 90.97 811.03 94.93 808.24 99.32 808.35 94.61 808.02 89.89 808.39 85.2Z"/>
  <path fill="#ffffff" d="M28.95 99.43C30 95.05 33 91.4 37.16 89.66 37.88 92.93 38.57 96.22 39.24 99.51 35.81 99.5 32.38 99.53 28.95 99.43Z"/>
  <path fill="#ffffff" d="M39.77 89.54C45.82 89.52 50.78 93.95 52.74 99.46 49.07 99.53 45.4 99.5 41.73 99.5 41.06 96.18 40.37 92.86 39.77 89.54Z"/>
  <path fill="#ffffff" d="M559.68 92.62C560.76 90.95 563.22 91.23 564.73 92.09 566.84 94.13 565.63 97.07 565.15 99.5 562.91 99.5 560.68 99.5 558.45 99.49 558.72 97.22 557.79 94.41 559.68 92.62Z"/>
  <path fill="#ffffff" d="M695.21 92.02C696.76 91.28 699.23 90.92 700.26 92.71 701.69 94.72 700.7 97.3 700.35 99.49 698.05 99.5 695.75 99.5 693.45 99.49 693.54 96.92 692.93 93.89 695.21 92.02Z"/>
  <path fill="#ffffff" d="M849.53 92.5C850.87 90.78 854.22 91.04 855.1 93.14 856.42 95.12 855.19 97.41 854.89 99.49 852.65 99.5 850.43 99.5 848.21 99.49 848.43 97.16 847.54 94.27 849.53 92.5Z"/>
  <path fill="#ffffff" d="M15.36 101.03C18.57 100.99 21.78 101 24.99 101 26.92 105.88 30.8 110.81 36.43 111.17 34.91 109.45 32.88 108.32 31.3 106.67 29.93 105.08 29.45 102.98 28.76 101.05 32.33 100.97 35.9 101 39.48 101 40.49 106.24 41.51 111.48 42.52 116.72 35.81 118.53 28.35 117.4 22.79 113.14 18.57 110.5 16.44 105.71 15.36 101.03Z"/>
  <path fill="#ffffff" d="M41.95 101C45.66 101 49.38 100.94 53.08 101.12 53.37 107.14 50.27 112.97 45.07 116.02 44.01 111.02 42.98 106.01 41.95 101Z"/>
  <path fill="#ffffff" d="M58.66 101C74.69 101 90.72 101 106.75 101 106.75 107.08 106.75 113.17 106.75 119.25 86.11 119.12 65.46 119.51 44.83 119.06 51.32 114.87 57.98 109.28 58.66 101Z"/>
  <path fill="#ffffff" d="M109.5 101C110.91 101 112.33 101 113.75 101 113.75 107.08 113.75 113.17 113.75 119.25 112.33 119.25 110.92 119.25 109.5 119.25 109.5 113.17 109.5 107.08 109.5 101Z"/>
  <path fill="#ffffff" d="M116.5 101C133.33 101 150.17 101 167 101 167 107.08 167 113.17 167 119.25 150.17 119.25 133.33 119.25 116.5 119.25 116.5 113.17 116.5 107.08 116.5 101Z"/>
  <path fill="#ffffff" d="M169.75 101C171.16 101 172.58 101 174 101 174 107.08 174 113.17 174 119.25 172.58 119.25 171.16 119.25 169.75 119.25 169.75 113.17 169.75 107.08 169.75 101Z"/>
  <path fill="#ffffff" d="M176.75 101C198.67 101 220.58 101 242.5 101 242.5 107.08 242.5 113.17 242.5 119.25 220.58 119.25 198.67 119.25 176.75 119.25 176.75 113.17 176.75 107.08 176.75 101Z"/>
  <path fill="#ffffff" d="M245.25 101C246.66 101 248.08 101 249.5 101 249.5 107.08 249.5 113.17 249.5 119.25 248.08 119.25 246.66 119.25 245.25 119.25 245.25 113.17 245.25 107.08 245.25 101Z"/>
  <path fill="#ffffff" d="M252.25 101C270.5 101 288.75 101 307 101 307 101.84 307 103.52 307 104.36 308.12 103.24 309.25 102.12 310.37 101 319.92 101 329.46 101 339 101 339 107.08 339 113.17 339 119.25 310.08 119.25 281.16 119.25 252.24 119.25 252.25 113.17 252.25 107.08 252.25 101Z"/>
  <path fill="#ffffff" d="M342 101C343.33 101 344.66 101 346 101 346 107.08 346 113.17 346 119.25 344.66 119.25 343.33 119.25 342 119.25 342 113.17 342 107.08 342 101Z"/>
  <path fill="#ffffff" d="M349 101C367.17 101 385.33 101 403.5 101 403.5 101.84 403.5 103.51 403.5 104.35 404.62 103.24 405.74 102.12 406.87 101 422.33 101 437.79 101 453.25 101 453.25 107.08 453.25 113.17 453.25 119.25 418.5 119.25 383.75 119.25 349 119.25 349 113.17 349 107.08 349 101Z"/>
  <path fill="#ffffff" d="M456 101C457.41 101 458.83 101 460.25 101 460.25 107.08 460.25 113.17 460.25 119.25 458.83 119.25 457.41 119.25 456 119.25 456 113.17 456 107.08 456 101Z"/>
  <path fill="#ffffff" d="M463 101C480.66 101 498.33 101 516 101 516 101.84 516 103.52 516 104.36 517.12 103.24 518.25 102.12 519.37 101 531.58 101 543.79 101 556 101 556 105.11 556 109.22 556 113.34 560.26 109.08 564.8 105.13 569.19 101 575.54 101 581.89 101 588.25 101 588.25 107.08 588.25 113.17 588.25 119.25 546.5 119.25 504.75 119.25 463 119.25 463 113.17 463 107.08 463 101Z"/>
  <path fill="#ffffff" d="M558.5 100.99C560.41 101 562.31 101.01 564.23 101.02 562.37 103.52 560.44 105.97 558.48 108.38 558.49 105.92 558.5 103.45 558.5 100.99Z"/>
  <path fill="#ffffff" d="M591 101C592.41 101 593.83 101 595.25 101 595.25 107.08 595.25 113.17 595.25 119.25 593.83 119.25 592.41 119.25 591 119.25 591 113.17 591 107.08 591 101Z"/>
  <path fill="#ffffff" d="M598 101C615.75 101 633.5 101 651.25 101 651.25 101.84 651.25 103.52 651.25 104.36 652.36 103.25 653.47 102.13 654.59 101.01 666.81 100.99 679.03 101.01 691.25 101 691.25 105.11 691.26 109.22 691.23 113.33 695.54 109.12 700.01 105.09 704.43 101 716.54 101 728.64 101 740.75 101 740.75 107.08 740.75 113.17 740.75 119.25 693.17 119.25 645.58 119.25 598 119.25 598 113.17 598 107.08 598 101Z"/>
  <path fill="#ffffff" d="M693.5 101C695.44 101 697.37 101 699.33 101 697.39 103.47 695.45 105.94 693.48 108.38 693.49 105.92 693.49 103.46 693.5 101Z"/>
  <path fill="#ffffff" d="M743.75 101C745.07 101 746.41 101 747.75 101 747.75 107.08 747.75 113.17 747.75 119.25 746.41 119.25 745.07 119.25 743.75 119.25 743.75 113.17 743.75 107.08 743.75 101Z"/>
  <path fill="#ffffff" d="M750.75 101C769.08 101 787.42 101 805.75 101 805.75 101.84 805.76 103.52 805.76 104.36 806.87 103.24 808.01 102.12 809.14 101 821.34 101 833.55 101 845.75 101 845.75 105.11 845.75 109.22 845.75 113.33 850.02 109.1 854.54 105.14 858.9 101 866.85 100.99 874.8 101 882.75 101 882.75 107.08 882.75 113.17 882.75 119.25 838.75 119.25 794.75 119.25 750.75 119.25 750.75 113.17 750.75 107.08 750.75 101Z"/>
  <path fill="#ffffff" d="M848.25 101C850.09 101 851.94 101 853.81 101 851.91 103.41 850.07 105.86 848.25 108.32 848.24 105.88 848.24 103.44 848.25 101Z"/>
  <path fill="#ffffff" d="M885.39 103.19C886.12 100.66 888.95 100.77 891.08 101.05 893.16 102.33 892.95 105.26 892.21 107.27 890.73 111.14 887.72 114.13 885.25 117.38 885.35 112.65 885.02 107.9 885.39 103.19Z"/>
  <path fill="#ffffff" d="M898.37 101C903.91 101 909.45 101 915 101 915 107.08 915 113.17 915 119.25 905.36 119.24 895.72 119.27 886.09 119.24 889.66 115.77 893.67 112.7 896.79 108.79 898.59 106.6 898.88 103.69 898.37 101Z"/>
  <path fill="#ffffff" d="M917.75 101C919.15 101 920.57 101 922 101 922 107.08 922 113.17 922 119.25 920.57 119.25 919.15 119.25 917.75 119.25 917.75 113.17 917.75 107.08 917.75 101Z"/>
</svg>
