<?xml version="1.0" encoding="UTF-8" ?>
<!DOCTYPE svg PUBLIC "-//W3C//DTD SVG 1.1//EN" "http://www.w3.org/Graphics/SVG/1.1/DTD/svg11.dtd">
<svg width="1070pt" height="186pt" viewBox="0 0 1070 186" version="1.1" xmlns="http://www.w3.org/2000/svg">
<path fill="#ffffff" d=" M 0.00 0.00 L 1070.00 0.00 L 1070.00 186.00 L 0.00 186.00 L 0.00 145.50 C 15.91 145.51 31.81 145.49 47.72 145.51 C 48.97 153.28 52.16 161.06 50.59 169.02 C 49.73 174.04 45.41 177.97 40.46 178.80 C 36.56 179.33 31.91 179.32 29.39 175.78 C 33.24 174.98 38.02 173.43 38.88 169.00 C 40.77 163.53 35.93 156.87 29.99 157.72 C 22.84 157.79 19.21 166.59 21.77 172.56 C 25.46 182.30 39.18 185.07 47.36 179.36 C 52.85 176.03 54.80 169.08 54.11 163.01 C 53.38 157.10 51.82 151.34 50.72 145.50 C 389.73 145.49 728.74 145.50 1067.75 145.50 C 1067.75 114.17 1067.75 82.83 1067.75 51.50 C 1051.92 51.50 1036.09 51.50 1020.25 51.50 C 1020.24 49.30 1020.24 47.11 1020.25 44.92 C 1018.82 45.30 1017.40 45.69 1016.00 46.08 C 1016.00 40.30 1016.00 34.53 1016.00 28.75 C 1015.25 28.75 1013.75 28.75 1013.00 28.75 C 1012.99 34.71 1013.00 40.66 1012.99 46.62 C 1010.90 47.21 1008.83 47.79 1006.76 48.38 C 1006.74 42.50 1006.75 36.63 1006.75 30.75 C 1005.82 30.75 1004.91 30.75 1004.00 30.75 C 1003.99 36.81 1004.01 42.88 1003.99 48.94 C 1002.08 49.56 1000.15 50.14 998.54 51.37 C 988.86 51.66 979.18 51.42 969.50 51.50 C 969.50 47.75 969.50 43.99 969.50 40.24 C 968.57 40.25 967.65 40.25 966.75 40.25 C 966.74 44.00 966.74 47.75 966.75 51.50 C 964.65 51.50 962.57 51.50 960.50 51.50 C 960.50 48.50 960.49 45.50 960.50 42.50 C 959.81 42.50 958.44 42.50 957.75 42.50 C 957.74 45.50 957.74 48.50 957.75 51.50 C 955.08 51.50 952.42 51.50 949.76 51.50 C 949.74 49.12 949.74 46.74 949.74 44.36 C 948.24 44.79 946.75 45.21 945.26 45.63 C 945.24 41.13 945.26 36.63 945.23 32.13 C 946.72 31.81 948.23 31.49 949.75 31.17 C 949.74 28.09 949.75 25.01 949.76 21.92 C 948.25 22.23 946.75 22.54 945.26 22.86 C 945.24 17.07 945.25 11.29 945.25 5.50 C 944.56 5.50 943.19 5.50 942.50 5.50 C 942.50 11.55 942.49 17.61 942.51 23.66 C 940.41 24.14 938.33 24.62 936.24 25.09 C 936.25 19.31 936.24 13.53 936.25 7.75 C 935.24 7.75 934.24 7.75 933.25 7.74 C 933.25 13.78 933.23 19.81 933.26 25.84 C 931.74 26.28 930.23 26.72 928.73 27.15 C 928.74 30.23 928.75 33.31 928.76 36.39 C 930.24 36.06 931.73 35.72 933.24 35.40 C 933.25 39.67 933.24 43.94 933.25 48.21 C 931.28 48.89 928.98 49.36 928.04 51.46 C 917.61 51.54 907.18 51.48 896.75 51.50 C 896.74 48.95 896.75 46.41 896.75 43.87 C 898.16 43.55 899.57 43.23 901.00 42.90 C 900.99 39.82 900.99 36.74 901.00 33.65 C 899.58 33.98 898.17 34.29 896.76 34.61 C 896.74 28.82 896.75 23.03 896.75 17.24 C 895.74 17.25 894.74 17.25 893.75 17.25 C 893.75 23.30 893.74 29.34 893.75 35.39 C 891.75 35.88 889.75 36.37 887.76 36.86 C 887.74 31.07 887.75 25.28 887.75 19.49 C 886.74 19.50 885.74 19.50 884.75 19.50 C 884.75 25.56 884.75 31.62 884.75 37.68 C 883.23 37.99 881.73 38.30 880.24 38.60 C 880.24 41.78 880.24 44.95 880.24 48.13 C 881.74 47.71 883.24 47.29 884.76 46.87 C 884.75 48.03 884.75 50.34 884.74 51.50 C 869.66 51.50 854.58 51.50 839.50 51.50 C 839.49 49.30 839.49 47.11 839.50 44.91 C 838.07 45.30 836.65 45.69 835.23 46.08 C 835.26 40.30 835.24 34.53 835.25 28.75 C 834.24 28.75 833.24 28.75 832.25 28.74 C 832.25 34.71 832.24 40.68 832.25 46.65 C 830.24 47.21 828.24 47.78 826.24 48.34 C 826.26 42.48 826.24 36.61 826.25 30.75 C 825.24 30.75 824.24 30.75 823.25 30.74 C 823.24 36.80 823.26 42.86 823.24 48.92 C 821.34 49.53 819.41 50.13 817.83 51.39 C 808.22 51.63 798.61 51.43 789.00 51.50 C 789.00 47.75 789.00 43.99 789.00 40.24 C 788.25 40.24 786.75 40.24 786.00 40.25 C 786.00 44.00 785.99 47.75 786.00 51.50 C 783.91 51.50 781.83 51.50 779.75 51.50 C 779.75 48.50 779.74 45.50 779.75 42.50 C 779.06 42.50 777.69 42.49 777.00 42.49 C 777.00 45.49 776.99 48.50 777.00 51.50 C 774.33 51.50 771.66 51.50 769.00 51.50 C 769.00 49.12 768.99 46.75 769.00 44.37 C 767.50 44.79 766.00 45.21 764.52 45.63 C 764.49 41.13 764.51 36.64 764.48 32.15 C 765.97 31.82 767.48 31.48 769.00 31.15 C 768.99 28.07 769.00 24.99 769.00 21.91 C 767.49 22.23 766.01 22.56 764.51 22.87 C 764.49 17.08 764.50 11.29 764.50 5.50 C 763.81 5.50 762.44 5.50 761.75 5.50 C 761.75 11.56 761.75 17.61 761.75 23.67 C 759.66 24.15 757.58 24.62 755.50 25.09 C 755.50 19.31 755.50 13.53 755.50 7.75 C 754.81 7.75 753.44 7.75 752.75 7.75 C 752.75 13.78 752.72 19.80 752.78 25.83 C 751.25 26.27 749.73 26.72 748.22 27.17 C 748.24 30.23 748.25 33.29 748.26 36.35 C 749.75 36.04 751.24 35.74 752.75 35.43 C 752.74 39.74 752.74 44.06 752.75 48.37 C 751.26 48.78 749.78 49.19 748.30 49.60 C 748.27 50.08 748.22 51.03 748.19 51.50 C 737.46 51.49 726.73 51.50 716.00 51.50 C 715.99 48.95 715.99 46.41 716.00 43.86 C 717.41 43.54 718.83 43.22 720.26 42.89 C 720.25 39.81 720.24 36.73 720.24 33.65 C 718.82 33.97 717.40 34.28 716.00 34.60 C 716.00 28.81 716.00 23.03 716.00 17.24 C 715.25 17.24 713.75 17.24 713.00 17.24 C 713.00 23.29 713.00 29.33 713.00 35.38 C 710.99 35.87 708.99 36.37 707.00 36.87 C 707.00 31.08 707.00 25.29 707.00 19.50 C 706.25 19.50 704.75 19.50 704.00 19.50 C 703.99 25.55 704.01 31.61 703.99 37.67 C 702.47 37.99 700.98 38.31 699.49 38.62 C 699.50 41.79 699.49 44.96 699.50 48.13 C 701.00 47.71 702.49 47.30 704.00 46.88 C 703.99 48.42 703.99 49.96 703.99 51.50 C 681.33 51.50 658.66 51.50 636.00 51.50 C 636.00 47.75 636.00 43.99 635.99 40.24 C 635.31 40.24 633.93 40.25 633.25 40.25 C 633.24 44.00 633.24 47.75 633.25 51.50 C 631.16 51.50 629.08 51.50 627.00 51.50 C 627.00 48.50 626.99 45.49 627.00 42.49 C 626.31 42.49 624.93 42.50 624.25 42.50 C 624.25 45.50 624.24 48.50 624.25 51.50 C 621.58 51.50 618.91 51.50 616.25 51.50 C 616.25 49.12 616.24 46.74 616.24 44.36 C 614.75 44.79 613.25 45.21 611.76 45.63 C 611.74 41.13 611.76 36.64 611.74 32.15 C 613.23 31.81 614.74 31.47 616.25 31.14 C 616.25 28.05 616.25 24.97 616.25 21.88 C 614.75 22.21 613.25 22.55 611.77 22.90 C 611.74 17.10 611.75 11.30 611.75 5.50 C 611.07 5.50 609.69 5.49 609.00 5.49 C 608.99 11.55 609.01 17.60 608.99 23.66 C 606.90 24.14 604.83 24.63 602.75 25.10 C 602.75 19.32 602.75 13.53 602.75 7.74 C 601.83 7.75 600.91 7.75 600.00 7.75 C 600.00 13.79 600.00 19.83 600.00 25.86 C 598.40 26.29 596.81 26.72 595.23 27.15 C 595.24 30.22 595.25 33.29 595.26 36.36 C 596.83 36.04 598.41 35.73 600.00 35.41 C 600.00 39.68 599.99 43.95 600.00 48.22 C 597.94 48.91 595.54 49.28 594.49 51.45 C 584.08 51.55 573.66 51.47 563.25 51.50 C 563.25 48.94 563.25 46.39 563.25 43.84 C 564.66 43.53 566.09 43.23 567.51 42.91 C 567.50 39.84 567.49 36.76 567.50 33.68 C 566.44 33.90 564.31 34.35 563.25 34.58 C 563.25 28.80 563.25 23.03 563.25 17.25 C 562.25 17.25 561.24 17.25 560.25 17.24 C 560.24 23.29 560.24 29.33 560.25 35.38 C 558.25 35.87 556.25 36.37 554.26 36.86 C 554.24 31.07 554.25 25.29 554.25 19.51 C 553.50 19.50 552.00 19.50 551.25 19.49 C 551.25 25.54 551.24 31.59 551.26 37.63 C 549.74 37.97 548.24 38.31 546.74 38.65 C 546.74 41.81 546.75 44.97 546.75 48.13 C 548.24 47.71 549.74 47.29 551.24 46.87 C 551.24 48.41 551.24 49.96 551.25 51.50 C 535.16 51.50 519.08 51.50 503.00 51.50 C 503.00 47.75 502.99 44.00 503.00 40.24 C 502.25 40.24 500.75 40.24 500.00 40.24 C 500.00 44.00 499.99 47.75 500.00 51.50 C 497.99 51.50 496.00 51.50 494.00 51.50 C 494.00 48.50 493.99 45.50 494.00 42.50 C 493.25 42.50 491.75 42.50 491.00 42.50 C 491.00 45.50 490.99 48.50 491.00 51.50 C 488.33 51.50 485.66 51.50 483.00 51.50 C 483.00 49.14 482.99 46.78 482.99 44.42 C 481.58 44.80 480.17 45.19 478.76 45.57 C 478.75 41.10 478.76 36.62 478.74 32.14 C 480.15 31.81 481.58 31.48 483.00 31.14 C 483.00 28.06 483.00 24.99 483.00 21.91 C 481.58 22.23 480.17 22.54 478.76 22.86 C 478.74 17.07 478.76 11.28 478.75 5.49 C 477.74 5.50 476.74 5.50 475.75 5.50 C 475.75 11.55 475.74 17.60 475.75 23.64 C 473.75 24.13 471.75 24.62 469.75 25.11 C 469.75 19.32 469.75 13.53 469.75 7.74 C 468.75 7.75 467.74 7.76 466.75 7.75 C 466.76 13.78 466.72 19.80 466.78 25.83 C 465.25 26.27 463.74 26.72 462.22 27.17 C 462.24 30.23 462.25 33.29 462.26 36.35 C 463.75 36.04 465.25 35.74 466.75 35.43 C 466.75 39.74 466.74 44.06 466.75 48.37 C 465.26 48.78 463.78 49.19 462.30 49.60 C 462.27 50.08 462.22 51.03 462.19 51.50 C 451.46 51.50 440.73 51.50 430.00 51.50 C 430.00 48.95 430.00 46.41 430.00 43.86 C 431.50 43.55 433.00 43.22 434.51 42.91 C 434.50 39.83 434.50 36.75 434.50 33.67 C 432.99 33.98 431.49 34.29 430.00 34.60 C 430.00 28.81 430.00 23.03 429.99 17.24 C 429.31 17.24 427.93 17.25 427.25 17.25 C 427.25 23.30 427.24 29.35 427.25 35.39 C 425.16 35.88 423.08 36.37 421.00 36.86 C 421.00 31.07 421.00 25.28 421.00 19.49 C 420.31 19.49 418.93 19.50 418.25 19.50 C 418.25 25.54 418.24 31.59 418.26 37.63 C 416.74 37.97 415.24 38.31 413.74 38.65 C 413.74 41.81 413.75 44.97 413.75 48.13 C 415.24 47.71 416.74 47.29 418.24 46.87 C 418.24 48.41 418.24 49.96 418.25 51.50 C 402.83 51.50 387.42 51.50 372.00 51.50 C 372.00 49.12 371.99 46.75 372.00 44.37 C 370.50 44.79 369.01 45.21 367.52 45.63 C 367.49 41.13 367.51 36.64 367.48 32.15 C 368.98 31.82 370.49 31.48 372.00 31.15 C 372.00 28.07 372.00 24.99 372.00 21.91 C 370.50 22.23 369.01 22.55 367.52 22.88 C 367.49 17.08 367.50 11.29 367.50 5.50 C 366.81 5.50 365.44 5.50 364.75 5.50 C 364.75 11.56 364.75 17.61 364.75 23.67 C 362.66 24.15 360.58 24.62 358.50 25.09 C 358.50 19.31 358.50 13.53 358.50 7.75 C 357.81 7.75 356.44 7.75 355.75 7.75 C 355.75 13.78 355.72 19.80 355.78 25.83 C 354.25 26.27 352.74 26.72 351.22 27.17 C 351.24 30.23 351.25 33.29 351.26 36.35 C 352.75 36.04 354.25 35.74 355.75 35.43 C 355.75 39.74 355.74 44.06 355.75 48.37 C 354.26 48.78 352.78 49.19 351.30 49.60 C 351.27 50.08 351.22 51.03 351.19 51.50 C 340.46 51.49 329.73 51.50 319.00 51.50 C 319.00 48.95 319.00 46.41 319.00 43.86 C 320.42 43.54 321.84 43.22 323.26 42.89 C 323.25 39.81 323.25 36.73 323.24 33.65 C 321.82 33.97 320.41 34.28 319.00 34.60 C 319.00 28.81 319.00 23.03 319.00 17.24 C 318.25 17.24 316.75 17.24 316.00 17.24 C 316.00 23.29 316.00 29.33 316.00 35.38 C 313.99 35.87 312.00 36.37 310.00 36.87 C 310.00 31.08 310.00 25.29 310.00 19.50 C 309.25 19.50 307.75 19.50 307.00 19.50 C 306.99 25.55 307.01 31.61 306.99 37.67 C 305.48 37.99 303.98 38.31 302.49 38.62 C 302.50 41.79 302.50 44.96 302.50 48.13 C 304.00 47.71 305.50 47.30 307.00 46.88 C 307.00 48.42 307.00 49.96 307.00 51.50 C 282.42 51.50 257.83 51.50 233.25 51.50 C 233.25 48.95 233.25 46.41 233.24 43.86 C 234.75 43.55 236.25 43.23 237.76 42.91 C 237.75 39.83 237.75 36.75 237.75 33.67 C 236.25 33.98 234.76 34.29 233.26 34.60 C 233.24 28.82 233.25 23.03 233.25 17.25 C 232.56 17.25 231.19 17.25 230.50 17.25 C 230.50 23.30 230.49 29.36 230.50 35.41 C 228.42 35.89 226.34 36.37 224.25 36.84 C 224.25 31.06 224.25 25.28 224.25 19.50 C 223.50 19.50 222.00 19.50 221.25 19.50 C 221.25 25.54 221.24 31.59 221.26 37.63 C 219.75 37.97 218.24 38.31 216.74 38.65 C 216.75 41.81 216.75 44.97 216.75 48.13 C 218.25 47.71 219.74 47.29 221.24 46.87 C 221.24 48.41 221.25 49.96 221.25 51.50 C 202.91 51.50 184.58 51.50 166.25 51.50 C 166.25 48.95 166.25 46.39 166.25 43.84 C 167.67 43.53 169.09 43.23 170.51 42.91 C 170.50 39.84 170.50 36.76 170.50 33.68 C 169.44 33.90 167.31 34.35 166.25 34.58 C 166.25 28.80 166.25 23.03 166.25 17.25 C 165.25 17.25 164.25 17.25 163.25 17.24 C 163.24 23.29 163.24 29.33 163.25 35.38 C 161.25 35.87 159.26 36.37 157.26 36.86 C 157.24 31.07 157.25 25.29 157.25 19.50 C 156.50 19.50 155.00 19.50 154.25 19.50 C 154.25 25.54 154.24 31.59 154.26 37.63 C 152.75 37.97 151.24 38.31 149.74 38.65 C 149.75 41.81 149.75 44.97 149.75 48.13 C 151.25 47.71 152.74 47.29 154.24 46.87 C 154.25 48.41 154.25 49.96 154.25 51.50 C 120.73 51.51 87.21 51.47 53.69 51.52 C 54.07 44.55 52.02 37.79 49.76 31.29 C 48.39 27.92 47.04 24.17 43.93 22.00 C 41.10 21.88 39.10 24.48 37.33 26.35 C 32.09 33.55 30.66 42.81 30.12 51.50 C 20.08 51.49 10.04 51.50 0.00 51.50 L 0.00 0.00 Z" />
<path fill="#000000" d=" M 475.75 5.50 C 476.74 5.50 477.74 5.50 478.75 5.49 C 478.76 11.28 478.74 17.07 478.76 22.86 C 480.17 22.54 481.58 22.23 483.00 21.91 C 483.00 24.99 483.00 28.06 483.00 31.14 C 481.58 31.48 480.15 31.81 478.74 32.14 C 478.76 36.62 478.75 41.10 478.76 45.57 C 480.17 45.19 481.58 44.80 482.99 44.42 C 482.99 46.78 483.00 49.14 483.00 51.50 C 485.66 51.50 488.33 51.50 491.00 51.50 C 490.99 48.50 491.00 45.50 491.00 42.50 C 491.75 42.50 493.25 42.50 494.00 42.50 C 493.99 45.50 494.00 48.50 494.00 51.50 C 496.00 51.50 497.99 51.50 500.00 51.50 C 499.99 47.75 500.00 44.00 500.00 40.24 C 500.75 40.24 502.25 40.24 503.00 40.24 C 502.99 44.00 503.00 47.75 503.00 51.50 C 519.08 51.50 535.16 51.50 551.25 51.50 C 551.24 49.96 551.24 48.41 551.24 46.87 C 549.74 47.29 548.24 47.71 546.75 48.13 C 546.75 44.97 546.74 41.81 546.74 38.65 C 548.24 38.31 549.74 37.97 551.26 37.63 C 551.24 31.59 551.25 25.54 551.25 19.49 C 552.00 19.50 553.50 19.50 554.25 19.51 C 554.25 25.29 554.24 31.07 554.26 36.86 C 556.25 36.37 558.25 35.87 560.25 35.38 C 560.24 29.33 560.24 23.29 560.25 17.24 C 561.24 17.25 562.25 17.25 563.25 17.25 C 563.25 23.03 563.25 28.80 563.25 34.58 C 564.31 34.35 566.44 33.90 567.50 33.68 C 567.49 36.76 567.50 39.84 567.51 42.91 C 566.09 43.23 564.66 43.53 563.25 43.84 C 563.25 46.39 563.25 48.94 563.25 51.50 C 573.66 51.47 584.08 51.55 594.49 51.45 C 595.54 49.28 597.94 48.91 600.00 48.22 C 599.99 43.95 600.00 39.68 600.00 35.41 C 598.41 35.73 596.83 36.04 595.26 36.36 C 595.25 33.29 595.24 30.22 595.23 27.15 C 596.81 26.72 598.40 26.29 600.00 25.86 C 600.00 19.83 600.00 13.79 600.00 7.75 C 600.91 7.75 601.83 7.75 602.75 7.74 C 602.75 13.53 602.75 19.32 602.75 25.10 C 604.83 24.63 606.90 24.14 608.99 23.66 C 609.01 17.60 608.99 11.55 609.00 5.49 C 609.69 5.49 611.07 5.50 611.75 5.50 C 611.75 11.30 611.74 17.10 611.77 22.90 C 613.25 22.55 614.75 22.21 616.25 21.88 C 616.25 24.97 616.25 28.05 616.25 31.14 C 614.74 31.47 613.23 31.81 611.74 32.15 C 611.76 36.64 611.74 41.13 611.76 45.63 C 613.25 45.21 614.75 44.79 616.24 44.36 C 616.24 46.74 616.25 49.12 616.25 51.50 C 618.91 51.50 621.58 51.50 624.25 51.50 C 624.24 48.50 624.25 45.50 624.25 42.50 C 624.93 42.50 626.31 42.49 627.00 42.49 C 626.99 45.49 627.00 48.50 627.00 51.50 C 629.08 51.50 631.16 51.50 633.25 51.50 C 633.24 47.75 633.24 44.00 633.25 40.25 C 633.93 40.25 635.31 40.24 635.99 40.24 C 636.00 43.99 636.00 47.75 636.00 51.50 C 658.66 51.50 681.33 51.50 703.99 51.50 C 703.99 49.96 703.99 48.42 704.00 46.88 C 702.49 47.30 701.00 47.71 699.50 48.13 C 699.49 44.96 699.50 41.79 699.49 38.62 C 700.98 38.31 702.47 37.99 703.99 37.67 C 704.01 31.61 703.99 25.55 704.00 19.50 C 704.75 19.50 706.25 19.50 707.00 19.50 C 707.00 25.29 707.00 31.08 707.00 36.87 C 708.99 36.37 710.99 35.87 713.00 35.38 C 713.00 29.33 713.00 23.29 713.00 17.24 C 713.75 17.24 715.25 17.24 716.00 17.24 C 716.00 23.03 716.00 28.81 716.00 34.60 C 717.40 34.28 718.82 33.97 720.24 33.65 C 720.24 36.73 720.25 39.81 720.26 42.89 C 718.83 43.22 717.41 43.54 716.00 43.86 C 715.99 46.41 715.99 48.95 716.00 51.50 C 726.73 51.50 737.46 51.49 748.19 51.50 C 748.22 51.03 748.27 50.08 748.30 49.60 C 749.78 49.19 751.26 48.78 752.75 48.37 C 752.74 44.06 752.74 39.74 752.75 35.43 C 751.24 35.74 749.75 36.04 748.26 36.35 C 748.25 33.29 748.24 30.23 748.22 27.17 C 749.73 26.72 751.25 26.27 752.78 25.83 C 752.72 19.80 752.75 13.78 752.75 7.75 C 753.44 7.75 754.81 7.75 755.50 7.75 C 755.50 13.53 755.50 19.31 755.50 25.09 C 757.58 24.62 759.66 24.15 761.75 23.67 C 761.75 17.61 761.75 11.56 761.75 5.50 C 762.44 5.50 763.81 5.50 764.50 5.50 C 764.50 11.29 764.49 17.08 764.51 22.87 C 766.01 22.56 767.49 22.23 769.00 21.91 C 769.00 24.99 768.99 28.07 769.00 31.15 C 767.48 31.48 765.97 31.82 764.48 32.15 C 764.51 36.64 764.49 41.13 764.52 45.63 C 766.00 45.21 767.50 44.79 769.00 44.37 C 768.99 46.75 769.00 49.12 769.00 51.50 C 771.66 51.50 774.33 51.50 777.00 51.50 C 776.99 48.50 777.00 45.49 777.00 42.49 C 777.69 42.49 779.06 42.50 779.75 42.50 C 779.74 45.50 779.75 48.50 779.75 51.50 C 781.83 51.50 783.91 51.50 786.00 51.50 C 785.99 47.75 786.00 44.00 786.00 40.25 C 786.75 40.24 788.25 40.24 789.00 40.24 C 789.00 43.99 789.00 47.75 789.00 51.50 C 798.61 51.43 808.22 51.63 817.83 51.39 C 819.41 50.13 821.34 49.53 823.24 48.92 C 823.26 42.86 823.24 36.80 823.25 30.74 C 824.24 30.75 825.24 30.75 826.25 30.75 C 826.24 36.61 826.26 42.48 826.24 48.34 C 828.24 47.78 830.24 47.21 832.25 46.65 C 832.24 40.68 832.25 34.71 832.25 28.74 C 833.24 28.75 834.24 28.75 835.25 28.75 C 835.24 34.53 835.26 40.30 835.23 46.08 C 836.65 45.69 838.07 45.30 839.50 44.91 C 839.49 47.11 839.49 49.30 839.50 51.50 C 854.58 51.50 869.66 51.50 884.74 51.50 C 884.75 50.34 884.75 48.03 884.76 46.87 C 883.24 47.29 881.74 47.71 880.24 48.13 C 880.24 44.95 880.24 41.78 880.24 38.60 C 881.73 38.30 883.23 37.99 884.75 37.68 C 884.75 31.62 884.75 25.56 884.75 19.50 C 885.74 19.50 886.74 19.50 887.75 19.49 C 887.75 25.28 887.74 31.07 887.76 36.86 C 889.75 36.37 891.75 35.88 893.75 35.39 C 893.74 29.34 893.75 23.30 893.75 17.25 C 894.74 17.25 895.74 17.25 896.75 17.24 C 896.75 23.03 896.74 28.82 896.76 34.61 C 898.17 34.29 899.58 33.98 901.00 33.65 C 900.99 36.74 900.99 39.82 901.00 42.90 C 899.57 43.23 898.16 43.55 896.75 43.87 C 896.75 46.41 896.74 48.95 896.75 51.50 C 907.18 51.48 917.61 51.54 928.04 51.46 C 928.98 49.36 931.28 48.89 933.25 48.21 C 933.24 43.94 933.25 39.67 933.24 35.40 C 931.73 35.72 930.24 36.06 928.76 36.39 C 928.75 33.31 928.74 30.23 928.73 27.15 C 930.23 26.72 931.74 26.28 933.26 25.84 C 933.23 19.81 933.25 13.78 933.25 7.74 C 934.24 7.75 935.24 7.75 936.25 7.75 C 936.24 13.53 936.25 19.31 936.24 25.09 C 938.33 24.62 940.41 24.14 942.51 23.66 C 942.49 17.61 942.50 11.55 942.50 5.50 C 943.19 5.50 944.56 5.50 945.25 5.50 C 945.25 11.29 945.24 17.07 945.26 22.86 C 946.75 22.54 948.25 22.23 949.76 21.92 C 949.75 25.01 949.74 28.09 949.75 31.17 C 948.23 31.49 946.72 31.81 945.23 32.13 C 945.26 36.63 945.24 41.13 945.26 45.63 C 946.75 45.21 948.24 44.79 949.74 44.36 C 949.74 46.74 949.74 49.12 949.76 51.50 C 952.42 51.50 955.08 51.50 957.75 51.50 C 957.74 48.50 957.74 45.50 957.75 42.50 C 958.44 42.50 959.81 42.50 960.50 42.50 C 960.49 45.50 960.50 48.50 960.50 51.50 C 962.57 51.50 964.65 51.50 966.75 51.50 C 966.74 47.75 966.74 44.00 966.75 40.25 C 967.65 40.25 968.57 40.25 969.50 40.24 C 969.50 43.99 969.50 47.75 969.50 51.50 C 979.18 51.42 988.86 51.66 998.54 51.37 C 1000.15 50.14 1002.08 49.56 1003.99 48.94 C 1004.01 42.88 1003.99 36.81 1004.00 30.75 C 1004.91 30.75 1005.82 30.75 1006.75 30.75 C 1006.75 36.63 1006.74 42.50 1006.76 48.38 C 1008.83 47.79 1010.90 47.21 1012.99 46.62 C 1013.00 40.66 1012.99 34.71 1013.00 28.75 C 1013.75 28.75 1015.25 28.75 1016.00 28.75 C 1016.00 34.53 1016.00 40.30 1016.00 46.08 C 1017.40 45.69 1018.82 45.30 1020.25 44.92 C 1020.24 47.11 1020.24 49.30 1020.25 51.50 C 1036.09 51.50 1051.92 51.50 1067.75 51.50 C 1067.75 82.83 1067.75 114.17 1067.75 145.50 C 728.74 145.50 389.73 145.49 50.72 145.50 C 51.82 151.34 53.38 157.10 54.11 163.01 C 54.80 169.08 52.85 176.03 47.36 179.36 C 39.18 185.07 25.46 182.30 21.77 172.56 C 19.21 166.59 22.84 157.79 29.99 157.72 C 35.93 156.87 40.77 163.53 38.88 169.00 C 38.02 173.43 33.24 174.98 29.39 175.78 C 31.91 179.32 36.56 179.33 40.46 178.80 C 45.41 177.97 49.73 174.04 50.59 169.02 C 52.16 161.06 48.97 153.28 47.72 145.51 C 31.81 145.49 15.91 145.51 0.00 145.50 L 0.00 143.75 C 9.96 143.82 19.92 143.60 29.88 143.88 C 20.47 140.34 12.96 132.41 10.10 122.76 C 6.73 122.75 3.37 122.75 0.00 122.75 L 0.00 121.00 C 3.19 121.00 6.38 121.00 9.57 121.00 C 7.72 113.90 8.36 106.41 10.65 99.49 C 7.10 99.50 3.55 99.50 0.00 99.50 L 0.00 97.75 C 3.81 97.75 7.62 97.75 11.42 97.75 C 15.32 89.65 21.55 83.04 27.55 76.49 C 18.37 76.52 9.19 76.49 0.00 76.50 L 0.00 74.75 C 9.77 74.75 19.55 74.75 29.32 74.75 C 30.54 73.65 31.77 72.56 32.99 71.46 C 31.39 65.51 30.49 59.40 30.15 53.25 C 20.10 53.26 10.05 53.25 0.00 53.25 L 0.00 51.50 C 10.04 51.50 20.08 51.49 30.12 51.50 C 30.66 42.81 32.09 33.55 37.33 26.35 C 39.10 24.48 41.10 21.88 43.93 22.00 C 47.04 24.17 48.39 27.92 49.76 31.29 C 52.02 37.79 54.07 44.55 53.69 51.52 C 87.21 51.47 120.73 51.51 154.25 51.50 C 154.25 49.96 154.25 48.41 154.24 46.87 C 152.74 47.29 151.25 47.71 149.75 48.13 C 149.75 44.97 149.75 41.81 149.74 38.65 C 151.24 38.31 152.75 37.97 154.26 37.63 C 154.24 31.59 154.25 25.54 154.25 19.50 C 155.00 19.50 156.50 19.50 157.25 19.50 C 157.25 25.29 157.24 31.07 157.26 36.86 C 159.26 36.37 161.25 35.87 163.25 35.38 C 163.24 29.33 163.24 23.29 163.25 17.24 C 164.25 17.25 165.25 17.25 166.25 17.25 C 166.25 23.03 166.25 28.80 166.25 34.58 C 167.31 34.35 169.44 33.90 170.50 33.68 C 170.50 36.76 170.50 39.84 170.51 42.91 C 169.09 43.23 167.67 43.53 166.25 43.84 C 166.25 46.39 166.25 48.95 166.25 51.50 C 184.58 51.50 202.91 51.50 221.25 51.50 C 221.25 49.96 221.24 48.41 221.24 46.87 C 219.74 47.29 218.25 47.71 216.75 48.13 C 216.75 44.97 216.75 41.81 216.74 38.65 C 218.24 38.31 219.75 37.97 221.26 37.63 C 221.24 31.59 221.25 25.54 221.25 19.50 C 222.00 19.50 223.50 19.50 224.25 19.50 C 224.25 25.28 224.25 31.06 224.25 36.84 C 226.34 36.37 228.42 35.89 230.50 35.41 C 230.49 29.36 230.50 23.30 230.50 17.25 C 231.19 17.25 232.56 17.25 233.25 17.25 C 233.25 23.03 233.24 28.82 233.26 34.60 C 234.76 34.29 236.25 33.98 237.75 33.67 C 237.75 36.75 237.75 39.83 237.76 42.91 C 236.25 43.23 234.75 43.55 233.24 43.86 C 233.25 46.41 233.25 48.95 233.25 51.50 C 257.83 51.50 282.42 51.50 307.00 51.50 C 307.00 49.96 307.00 48.42 307.00 46.88 C 305.50 47.30 304.00 47.71 302.50 48.13 C 302.50 44.96 302.50 41.79 302.49 38.62 C 303.98 38.31 305.48 37.99 306.99 37.67 C 307.01 31.61 306.99 25.55 307.00 19.50 C 307.75 19.50 309.25 19.50 310.00 19.50 C 310.00 25.29 310.00 31.08 310.00 36.87 C 312.00 36.37 313.99 35.87 316.00 35.38 C 316.00 29.33 316.00 23.29 316.00 17.24 C 316.75 17.24 318.25 17.24 319.00 17.24 C 319.00 23.03 319.00 28.81 319.00 34.60 C 320.41 34.28 321.82 33.97 323.24 33.65 C 323.25 36.73 323.25 39.81 323.26 42.89 C 321.84 43.22 320.42 43.54 319.00 43.86 C 319.00 46.41 319.00 48.95 319.00 51.50 C 329.73 51.50 340.46 51.49 351.19 51.50 C 351.22 51.03 351.27 50.08 351.30 49.60 C 352.78 49.19 354.26 48.78 355.75 48.37 C 355.74 44.06 355.75 39.74 355.75 35.43 C 354.25 35.74 352.75 36.04 351.26 36.35 C 351.25 33.29 351.24 30.23 351.22 27.17 C 352.74 26.72 354.25 26.27 355.78 25.83 C 355.72 19.80 355.75 13.78 355.75 7.75 C 356.44 7.75 357.81 7.75 358.50 7.75 C 358.50 13.53 358.50 19.31 358.50 25.09 C 360.58 24.62 362.66 24.15 364.75 23.67 C 364.75 17.61 364.75 11.56 364.75 5.50 C 365.44 5.50 366.81 5.50 367.50 5.50 C 367.50 11.29 367.49 17.08 367.52 22.88 C 369.01 22.55 370.50 22.23 372.00 21.91 C 372.00 24.99 372.00 28.07 372.00 31.15 C 370.49 31.48 368.98 31.82 367.48 32.15 C 367.51 36.64 367.49 41.13 367.52 45.63 C 369.01 45.21 370.50 44.79 372.00 44.37 C 371.99 46.75 372.00 49.12 372.00 51.50 C 387.42 51.50 402.83 51.50 418.25 51.50 C 418.24 49.96 418.24 48.41 418.24 46.87 C 416.74 47.29 415.24 47.71 413.75 48.13 C 413.75 44.97 413.74 41.81 413.74 38.65 C 415.24 38.31 416.74 37.97 418.26 37.63 C 418.24 31.59 418.25 25.54 418.25 19.50 C 418.93 19.50 420.31 19.49 421.00 19.49 C 421.00 25.28 421.00 31.07 421.00 36.86 C 423.08 36.37 425.16 35.88 427.25 35.39 C 427.24 29.35 427.25 23.30 427.25 17.25 C 427.93 17.25 429.31 17.24 429.99 17.24 C 430.00 23.03 430.00 28.81 430.00 34.60 C 431.49 34.29 432.99 33.98 434.50 33.67 C 434.50 36.75 434.50 39.83 434.51 42.91 C 433.00 43.22 431.50 43.55 430.00 43.86 C 430.00 46.41 430.00 48.95 430.00 51.50 C 440.73 51.50 451.46 51.50 462.19 51.50 C 462.22 51.03 462.27 50.08 462.30 49.60 C 463.78 49.19 465.26 48.78 466.75 48.37 C 466.74 44.06 466.75 39.74 466.75 35.43 C 465.25 35.74 463.75 36.04 462.26 36.35 C 462.25 33.29 462.24 30.23 462.22 27.17 C 463.74 26.72 465.25 26.27 466.78 25.83 C 466.72 19.80 466.76 13.78 466.75 7.75 C 467.74 7.76 468.75 7.75 469.75 7.74 C 469.75 13.53 469.75 19.32 469.75 25.11 C 471.75 24.62 473.75 24.13 475.75 23.64 C 475.74 17.60 475.75 11.55 475.75 5.50 Z" />
<path fill="#ffffff" d=" M 358.49 34.64 C 360.57 34.03 362.67 33.48 364.75 32.86 C 364.75 37.28 364.75 41.70 364.75 46.11 C 362.67 46.69 360.59 47.30 358.52 47.88 C 358.48 43.47 358.51 39.06 358.49 34.64 Z" />
<path fill="#ffffff" d=" M 469.75 34.59 C 471.75 34.04 473.76 33.47 475.77 32.91 C 475.73 37.32 475.75 41.73 475.75 46.15 C 473.75 46.72 471.75 47.28 469.76 47.84 C 469.74 43.42 469.76 39.01 469.75 34.59 Z" />
<path fill="#ffffff" d=" M 602.74 34.64 C 604.83 34.05 606.91 33.46 609.00 32.87 C 609.00 37.29 609.00 41.70 609.00 46.11 C 606.92 46.70 604.84 47.29 602.77 47.88 C 602.74 43.47 602.76 39.05 602.74 34.64 Z" />
<path fill="#ffffff" d=" M 755.49 34.64 C 757.57 34.03 759.67 33.48 761.75 32.86 C 761.75 37.28 761.74 41.69 761.75 46.11 C 759.67 46.69 757.59 47.30 755.52 47.88 C 755.48 43.47 755.51 39.06 755.49 34.64 Z" />
<path fill="#ffffff" d=" M 936.25 34.64 C 938.32 34.05 940.40 33.45 942.49 32.87 C 942.50 37.28 942.49 41.70 942.50 46.11 C 940.41 46.70 938.34 47.29 936.27 47.89 C 936.23 43.47 936.25 39.05 936.25 34.64 Z" />
<path fill="#ffffff" d=" M 41.19 37.04 C 43.06 35.35 46.42 34.64 48.07 36.99 C 50.91 41.33 49.15 46.85 47.96 51.46 C 43.49 51.52 39.02 51.50 34.55 51.49 C 36.07 46.45 36.64 40.44 41.19 37.04 Z" />
<path fill="#ffffff" d=" M 157.27 46.32 C 159.26 45.77 161.25 45.21 163.24 44.67 C 163.25 46.95 163.24 49.22 163.25 51.50 C 161.24 51.50 159.24 51.50 157.24 51.50 C 157.25 49.77 157.26 48.05 157.27 46.32 Z" />
<path fill="#ffffff" d=" M 224.24 46.38 C 226.32 45.80 228.40 45.20 230.48 44.63 C 230.48 46.92 230.51 49.21 230.50 51.50 C 228.42 51.50 226.34 51.50 224.26 51.50 C 224.25 49.79 224.24 48.09 224.24 46.38 Z" />
<path fill="#ffffff" d=" M 310.00 46.33 C 312.00 45.79 313.99 45.22 316.00 44.67 C 316.00 46.95 316.00 49.22 316.00 51.50 C 314.00 51.50 312.00 51.50 310.00 51.50 C 310.00 49.78 310.00 48.06 310.00 46.33 Z" />
<path fill="#ffffff" d=" M 421.01 46.37 C 423.08 45.79 425.16 45.20 427.24 44.62 C 427.24 46.91 427.24 49.20 427.25 51.50 C 425.16 51.50 423.08 51.50 420.99 51.50 C 420.99 49.79 421.00 48.08 421.01 46.37 Z" />
<path fill="#ffffff" d=" M 554.27 46.32 C 556.25 45.77 558.24 45.21 560.24 44.67 C 560.24 46.95 560.24 49.22 560.25 51.50 C 558.24 51.50 556.24 51.50 554.24 51.50 C 554.24 49.77 554.26 48.05 554.27 46.32 Z" />
<path fill="#ffffff" d=" M 707.00 46.33 C 708.99 45.79 710.99 45.22 713.00 44.67 C 712.99 46.95 712.99 49.22 713.00 51.50 C 710.99 51.50 708.99 51.50 707.00 51.50 C 706.99 49.78 706.99 48.06 707.00 46.33 Z" />
<path fill="#ffffff" d=" M 887.75 46.34 C 889.75 45.79 891.74 45.22 893.75 44.66 C 893.74 46.94 893.74 49.22 893.75 51.50 C 891.74 51.50 889.74 51.50 887.76 51.50 C 887.74 49.78 887.74 48.06 887.75 46.34 Z" />
<path fill="#ffffff" d=" M 0.00 53.25 C 10.05 53.25 20.10 53.26 30.15 53.25 C 30.49 59.40 31.39 65.51 32.99 71.46 C 31.77 72.56 30.54 73.65 29.32 74.75 C 19.55 74.75 9.77 74.75 0.00 74.75 L 0.00 53.25 Z" />
<path fill="#ffffff" d=" M 34.28 53.24 C 38.62 53.26 42.96 53.24 47.31 53.26 C 44.36 59.08 40.47 64.49 35.44 68.69 C 34.27 63.64 33.60 58.42 34.28 53.24 Z" />
<path fill="#ffffff" d=" M 53.30 53.26 C 75.95 53.24 98.60 53.26 121.25 53.25 C 121.25 60.42 121.25 67.58 121.25 74.75 C 96.04 74.75 70.83 74.75 45.62 74.75 C 49.87 68.33 52.43 60.90 53.30 53.26 Z" />
<path fill="#ffffff" d=" M 124.50 53.26 C 126.08 53.26 127.66 53.25 129.25 53.25 C 129.25 60.41 129.25 67.58 129.25 74.75 C 127.66 74.75 126.08 74.75 124.50 74.75 C 124.50 67.59 124.50 60.42 124.50 53.26 Z" />
<path fill="#ffffff" d=" M 132.50 53.26 C 139.75 53.24 147.00 53.25 154.25 53.25 C 154.25 55.54 154.24 57.82 154.25 60.11 C 152.74 60.53 151.24 60.97 149.73 61.40 C 149.75 64.56 149.74 67.72 149.77 70.88 C 151.26 70.56 152.75 70.20 154.26 69.93 C 154.24 71.54 154.24 73.14 154.24 74.75 C 147.00 74.75 139.75 74.75 132.50 74.75 C 132.50 67.59 132.51 60.42 132.50 53.26 Z" />
<path fill="#ffffff" d=" M 157.25 53.25 C 159.24 53.25 161.24 53.25 163.24 53.25 C 163.24 54.79 163.26 56.33 163.27 57.87 C 161.26 58.37 159.26 58.86 157.25 59.35 C 157.25 57.32 157.25 55.28 157.25 53.25 Z" />
<path fill="#ffffff" d=" M 166.26 53.25 C 174.42 53.25 182.59 53.25 190.75 53.25 C 190.75 60.42 190.75 67.58 190.75 74.75 C 182.58 74.75 174.42 74.75 166.25 74.75 C 166.25 72.11 166.25 69.48 166.25 66.84 C 167.67 66.45 169.08 66.05 170.50 65.67 C 170.50 62.50 170.50 59.34 170.50 56.18 C 169.07 56.48 167.65 56.78 166.23 57.08 C 166.24 55.80 166.25 54.52 166.26 53.25 Z" />
<path fill="#ffffff" d=" M 194.00 53.25 C 195.58 53.25 197.16 53.25 198.75 53.25 C 198.75 60.42 198.75 67.58 198.75 74.75 C 197.16 74.75 195.58 74.75 194.00 74.75 C 194.00 67.58 194.00 60.42 194.00 53.25 Z" />
<path fill="#ffffff" d=" M 202.00 53.25 C 208.42 53.25 214.83 53.25 221.25 53.25 C 221.24 55.54 221.24 57.82 221.25 60.11 C 219.74 60.53 218.24 60.97 216.73 61.40 C 216.75 64.57 216.75 67.73 216.77 70.90 C 218.26 70.56 219.75 70.22 221.24 69.88 C 221.24 71.50 221.25 73.12 221.25 74.75 C 214.83 74.75 208.42 74.75 202.00 74.75 C 202.00 67.58 202.00 60.42 202.00 53.25 Z" />
<path fill="#ffffff" d=" M 224.25 53.25 C 226.33 53.25 228.41 53.25 230.49 53.25 C 230.49 54.80 230.51 56.34 230.52 57.89 C 228.43 58.38 226.34 58.86 224.25 59.34 C 224.25 57.31 224.25 55.28 224.25 53.25 Z" />
<path fill="#ffffff" d=" M 233.25 53.25 C 240.42 53.25 247.58 53.25 254.75 53.25 C 254.76 58.78 254.72 64.31 254.78 69.83 C 252.69 70.44 250.61 71.05 248.52 71.63 C 248.48 65.76 248.51 59.88 248.50 54.00 C 247.82 54.00 246.44 54.00 245.75 54.00 C 245.75 60.14 245.75 66.28 245.75 72.43 C 244.26 72.73 242.78 73.02 241.30 73.32 C 241.27 73.68 241.22 74.40 241.20 74.75 C 238.55 74.75 235.90 74.75 233.25 74.75 C 233.25 72.13 233.25 69.50 233.25 66.88 C 234.75 66.46 236.25 66.04 237.76 65.62 C 237.75 62.47 237.75 59.33 237.75 56.18 C 236.25 56.49 234.75 56.79 233.25 57.10 C 233.25 55.81 233.25 54.53 233.25 53.25 Z" />
<path fill="#ffffff" d=" M 257.50 53.25 C 264.41 53.25 271.33 53.25 278.25 53.25 C 278.25 60.42 278.25 67.58 278.25 74.75 C 272.83 74.75 267.42 74.75 262.00 74.75 C 262.00 72.54 262.00 70.33 262.00 68.12 C 260.50 68.54 259.01 68.96 257.52 69.37 C 257.49 64.00 257.51 58.63 257.50 53.25 Z" />
<path fill="#ffffff" d=" M 281.50 53.25 C 283.08 53.25 284.66 53.25 286.25 53.25 C 286.25 60.42 286.25 67.59 286.25 74.75 C 284.66 74.75 283.08 74.74 281.50 74.74 C 281.50 67.58 281.50 60.41 281.50 53.25 Z" />
<path fill="#ffffff" d=" M 289.50 53.25 C 295.33 53.25 301.17 53.25 307.00 53.25 C 307.00 55.54 307.00 57.83 307.00 60.12 C 305.49 60.53 303.98 60.97 302.48 61.39 C 302.50 64.55 302.49 67.72 302.52 70.88 C 304.01 70.56 305.51 70.23 307.00 69.91 C 307.00 71.52 306.99 73.14 307.00 74.75 C 301.16 74.74 295.33 74.75 289.50 74.75 C 289.50 67.58 289.50 60.41 289.50 53.25 Z" />
<path fill="#ffffff" d=" M 310.00 53.25 C 312.00 53.25 314.00 53.25 316.00 53.25 C 315.99 54.79 316.00 56.33 316.00 57.88 C 314.00 58.37 312.00 58.88 310.00 59.37 C 310.00 57.33 310.00 55.29 310.00 53.25 Z" />
<path fill="#ffffff" d=" M 319.00 53.25 C 326.08 53.25 333.16 53.25 340.24 53.25 C 340.25 58.80 340.24 64.35 340.26 69.90 C 338.25 70.46 336.25 71.03 334.25 71.60 C 334.25 65.73 334.25 59.87 334.25 54.00 C 333.50 54.00 332.00 54.00 331.25 54.00 C 331.25 60.11 331.24 66.21 331.25 72.32 C 329.49 72.92 327.14 72.71 326.26 74.73 C 323.83 74.76 321.42 74.75 319.00 74.75 C 319.00 72.11 319.00 69.47 319.00 66.83 C 320.42 66.44 321.83 66.05 323.26 65.67 C 323.25 62.50 323.25 59.33 323.24 56.16 C 321.82 56.47 320.41 56.78 319.00 57.10 C 319.00 55.81 319.00 54.53 319.00 53.25 Z" />
<path fill="#ffffff" d=" M 343.25 53.25 C 345.91 53.25 348.58 53.25 351.25 53.25 C 351.24 55.20 351.24 57.15 351.25 59.11 C 352.74 58.79 354.24 58.48 355.75 58.18 C 355.75 63.70 355.75 69.23 355.75 74.75 C 353.08 74.75 350.42 74.75 347.76 74.75 C 347.75 72.54 347.75 70.32 347.73 68.11 C 346.24 68.53 344.74 68.95 343.26 69.37 C 343.24 64.00 343.25 58.62 343.25 53.25 Z" />
<path fill="#ffffff" d=" M 367.47 55.29 C 369.39 54.75 371.27 54.00 373.15 53.36 C 378.76 53.06 384.38 53.35 390.00 53.25 C 390.00 60.42 390.00 67.58 390.00 74.75 C 379.50 74.75 369.00 74.75 358.50 74.75 C 358.49 68.95 358.51 63.15 358.49 57.35 C 360.58 56.88 362.67 56.40 364.76 55.91 C 364.74 61.36 364.75 66.80 364.75 72.25 C 365.44 72.25 366.81 72.25 367.50 72.25 C 367.49 66.60 367.54 60.94 367.47 55.29 Z" />
<path fill="#ffffff" d=" M 393.25 53.25 C 394.83 53.25 396.41 53.25 398.00 53.25 C 398.00 60.42 398.00 67.58 398.00 74.75 C 396.41 74.75 394.83 74.75 393.25 74.75 C 393.25 67.58 393.25 60.42 393.25 53.25 Z" />
<path fill="#ffffff" d=" M 401.25 53.25 C 406.92 53.25 412.58 53.25 418.25 53.25 C 418.24 55.54 418.24 57.82 418.25 60.11 C 416.74 60.53 415.24 60.97 413.73 61.40 C 413.75 64.56 413.74 67.73 413.77 70.90 C 415.25 70.56 416.75 70.22 418.24 69.88 C 418.24 71.50 418.24 73.13 418.25 74.75 C 412.58 74.75 406.92 74.75 401.25 74.75 C 401.25 67.58 401.25 60.42 401.25 53.25 Z" />
<path fill="#ffffff" d=" M 421.00 53.25 C 423.08 53.25 425.16 53.25 427.24 53.25 C 427.24 54.80 427.25 56.34 427.26 57.89 C 425.17 58.38 423.08 58.86 421.00 59.36 C 420.99 57.32 421.00 55.28 421.00 53.25 Z" />
<path fill="#ffffff" d=" M 430.00 53.25 C 437.17 53.26 444.33 53.24 451.50 53.25 C 451.50 58.78 451.47 64.31 451.52 69.84 C 449.44 70.44 447.35 71.04 445.27 71.64 C 445.23 65.76 445.26 59.88 445.25 53.99 C 444.56 54.00 443.18 54.00 442.50 54.00 C 442.50 60.12 442.49 66.24 442.50 72.36 C 440.72 72.92 438.25 72.66 437.47 74.77 C 434.98 74.75 432.49 74.74 430.00 74.75 C 430.00 72.13 430.00 69.51 430.00 66.89 C 431.50 66.46 433.01 66.02 434.52 65.60 C 434.49 62.46 434.50 59.32 434.49 56.17 C 432.99 56.48 431.49 56.79 430.00 57.10 C 429.99 55.82 430.00 54.53 430.00 53.25 Z" />
<path fill="#ffffff" d=" M 478.74 55.30 C 482.62 53.46 486.73 52.83 491.00 53.25 C 491.00 55.71 490.99 58.17 490.99 60.63 C 489.48 61.04 487.99 61.46 486.50 61.87 C 486.50 64.96 486.49 68.04 486.50 71.12 C 488.00 70.71 489.49 70.30 491.00 69.88 C 491.00 71.50 490.99 73.13 491.00 74.75 C 483.91 74.75 476.83 74.75 469.75 74.75 C 469.75 68.96 469.77 63.16 469.74 57.37 C 471.74 56.88 473.74 56.38 475.76 55.89 C 475.74 61.34 475.75 66.80 475.75 72.25 C 476.74 72.25 477.74 72.25 478.75 72.25 C 478.75 66.60 478.76 60.95 478.74 55.30 Z" />
<path fill="#ffffff" d=" M 494.00 53.25 C 495.99 53.25 497.99 53.25 499.99 53.25 C 499.99 54.95 500.00 56.65 500.02 58.36 C 498.00 58.84 496.01 59.39 494.00 59.88 C 493.99 57.67 494.00 55.46 494.00 53.25 Z" />
<path fill="#ffffff" d=" M 503.00 53.25 C 509.33 53.25 515.66 53.25 522.00 53.25 C 522.00 60.42 522.00 67.58 522.00 74.75 C 515.66 74.75 509.33 74.75 503.00 74.75 C 503.00 72.12 502.99 69.49 503.00 66.86 C 504.50 66.54 506.01 66.22 507.52 65.91 C 507.50 62.83 507.50 59.75 507.49 56.67 C 505.99 56.98 504.49 57.29 503.00 57.60 C 503.00 56.15 503.00 54.70 503.00 53.25 Z" />
<path fill="#ffffff" d=" M 525.25 53.25 C 526.91 53.25 528.57 53.25 530.25 53.25 C 530.25 60.41 530.24 67.57 530.25 74.73 C 528.58 74.74 526.91 74.75 525.25 74.76 C 525.25 67.59 525.25 60.42 525.25 53.25 Z" />
<path fill="#ffffff" d=" M 533.50 53.25 C 539.41 53.25 545.33 53.25 551.25 53.25 C 551.24 55.54 551.24 57.82 551.25 60.11 C 549.73 60.53 548.23 60.97 546.73 61.40 C 546.75 64.57 546.74 67.73 546.77 70.90 C 548.25 70.56 549.74 70.22 551.24 69.88 C 551.24 71.50 551.24 73.12 551.25 74.75 C 545.33 74.75 539.42 74.75 533.50 74.75 C 533.50 67.58 533.50 60.42 533.50 53.25 Z" />
<path fill="#ffffff" d=" M 554.25 53.25 C 556.24 53.25 558.24 53.25 560.24 53.25 C 560.24 54.79 560.25 56.33 560.27 57.87 C 558.26 58.37 556.25 58.86 554.25 59.35 C 554.24 57.32 554.25 55.28 554.25 53.25 Z" />
<path fill="#ffffff" d=" M 563.26 53.25 C 570.34 53.26 577.42 53.24 584.50 53.25 C 584.50 58.80 584.49 64.35 584.51 69.90 C 582.50 70.45 580.51 71.03 578.51 71.59 C 578.49 65.72 578.50 59.86 578.50 54.00 C 577.49 54.00 576.49 54.00 575.50 54.00 C 575.50 60.12 575.49 66.24 575.50 72.36 C 573.71 72.92 571.25 72.66 570.47 74.77 C 568.06 74.76 565.65 74.74 563.25 74.75 C 563.25 72.11 563.25 69.48 563.25 66.85 C 564.67 66.46 566.07 66.05 567.50 65.66 C 567.50 62.50 567.50 59.34 567.50 56.18 C 566.07 56.48 564.65 56.78 563.23 57.08 C 563.24 55.80 563.24 54.52 563.26 53.25 Z" />
<path fill="#ffffff" d=" M 627.00 53.25 C 629.08 53.25 631.16 53.25 633.24 53.25 C 633.24 54.97 633.24 56.68 633.26 58.39 C 631.16 58.88 629.07 59.36 627.00 59.86 C 626.99 57.65 626.99 55.45 627.00 53.25 Z" />
<path fill="#ffffff" d=" M 636.00 53.25 C 650.08 53.25 664.16 53.25 678.25 53.25 C 678.25 60.42 678.25 67.58 678.25 74.75 C 664.16 74.75 650.08 74.75 636.00 74.75 C 636.00 72.12 635.99 69.49 636.00 66.86 C 637.50 66.54 639.01 66.22 640.52 65.91 C 640.49 62.83 640.50 59.75 640.49 56.67 C 638.99 56.98 637.49 57.29 636.00 57.60 C 635.99 56.15 635.99 54.70 636.00 53.25 Z" />
<path fill="#ffffff" d=" M 681.50 53.26 C 683.16 53.26 684.82 53.25 686.50 53.25 C 686.50 60.41 686.49 67.58 686.50 74.74 C 684.83 74.74 683.16 74.75 681.50 74.75 C 681.50 67.59 681.50 60.42 681.50 53.26 Z" />
<path fill="#ffffff" d=" M 689.75 53.25 C 694.50 53.25 699.25 53.25 704.00 53.25 C 703.99 55.54 703.99 57.83 704.00 60.12 C 702.49 60.53 700.97 60.97 699.48 61.39 C 699.50 64.55 699.49 67.72 699.52 70.88 C 701.01 70.56 702.50 70.23 704.00 69.91 C 703.99 71.52 703.99 73.14 704.00 74.75 C 699.25 74.75 694.50 74.75 689.75 74.75 C 689.75 67.58 689.75 60.41 689.75 53.25 Z" />
<path fill="#ffffff" d=" M 707.00 53.25 C 708.99 53.25 710.99 53.25 713.00 53.25 C 712.99 54.79 712.99 56.33 713.00 57.88 C 710.99 58.37 709.00 58.88 707.00 59.37 C 706.99 57.33 706.99 55.29 707.00 53.25 Z" />
<path fill="#ffffff" d=" M 716.00 53.25 C 723.17 53.26 730.33 53.24 737.50 53.26 C 737.50 58.78 737.47 64.31 737.52 69.84 C 735.43 70.44 733.34 71.04 731.27 71.64 C 731.23 65.76 731.26 59.88 731.25 54.00 C 730.50 54.00 729.00 54.00 728.25 54.00 C 728.25 60.11 728.24 66.21 728.25 72.32 C 726.49 72.92 724.14 72.72 723.26 74.73 C 720.83 74.76 718.41 74.75 716.00 74.75 C 715.99 72.11 715.99 69.47 716.00 66.83 C 717.41 66.44 718.82 66.05 720.26 65.67 C 720.25 62.50 720.25 59.33 720.24 56.16 C 718.82 56.47 717.40 56.78 716.00 57.10 C 715.99 55.81 715.99 54.53 716.00 53.25 Z" />
<path fill="#ffffff" d=" M 740.25 53.25 C 742.91 53.25 745.57 53.25 748.25 53.25 C 748.24 55.20 748.24 57.15 748.25 59.11 C 749.74 58.79 751.24 58.48 752.75 58.18 C 752.74 63.70 752.75 69.23 752.75 74.75 C 750.08 74.75 747.42 74.75 744.76 74.75 C 744.74 72.54 744.75 70.32 744.73 68.11 C 743.24 68.54 741.73 68.94 740.26 69.38 C 740.24 64.00 740.25 58.63 740.25 53.25 Z" />
<path fill="#ffffff" d=" M 764.47 55.29 C 768.48 53.63 772.62 52.74 777.00 53.26 C 777.00 55.71 776.99 58.17 776.99 60.63 C 775.48 61.04 773.99 61.46 772.50 61.87 C 772.49 64.96 772.49 68.04 772.50 71.12 C 774.00 70.71 775.49 70.30 777.00 69.88 C 776.99 71.50 776.99 73.13 777.00 74.75 C 769.83 74.75 762.66 74.75 755.50 74.75 C 755.50 68.95 755.51 63.15 755.49 57.35 C 757.58 56.88 759.67 56.40 761.76 55.91 C 761.74 61.36 761.75 66.80 761.75 72.25 C 762.44 72.25 763.81 72.25 764.50 72.25 C 764.48 66.60 764.53 60.94 764.47 55.29 Z" />
<path fill="#ffffff" d=" M 789.00 53.25 C 798.92 53.25 808.83 53.25 818.74 53.25 C 818.74 55.38 818.74 57.50 818.76 59.63 C 820.24 59.21 821.73 58.79 823.23 58.37 C 823.26 62.76 823.23 67.15 823.26 71.54 C 821.41 72.29 818.54 72.17 818.38 74.77 C 808.58 74.73 798.79 74.76 789.00 74.75 C 788.99 72.12 788.99 69.49 789.00 66.86 C 790.41 66.54 791.83 66.21 793.26 65.89 C 793.24 62.81 793.25 59.73 793.24 56.65 C 791.82 56.97 790.40 57.28 789.00 57.60 C 788.99 56.15 788.99 54.70 789.00 53.25 Z" />
<path fill="#ffffff" d=" M 835.24 55.42 C 836.91 54.97 838.89 54.80 840.03 53.30 C 845.02 53.20 850.01 53.27 855.00 53.25 C 855.00 60.42 855.00 67.58 855.00 74.75 C 849.83 74.75 844.66 74.75 839.50 74.75 C 839.50 72.39 839.49 70.04 839.50 67.68 C 838.06 67.98 836.66 68.28 835.25 68.58 C 835.24 64.19 835.25 59.80 835.24 55.42 Z" />
<path fill="#ffffff" d=" M 858.25 53.25 C 859.82 53.25 861.40 53.25 863.00 53.25 C 863.00 60.42 863.00 67.58 863.00 74.75 C 861.40 74.75 859.82 74.75 858.25 74.75 C 858.25 67.58 858.25 60.42 858.25 53.25 Z" />
<path fill="#ffffff" d=" M 866.25 53.25 C 872.41 53.25 878.58 53.25 884.75 53.25 C 884.74 55.54 884.74 57.83 884.75 60.12 C 883.24 60.53 881.73 60.95 880.24 61.38 C 880.24 64.54 880.24 67.70 880.27 70.86 C 881.76 70.55 883.25 70.24 884.76 69.93 C 884.74 71.53 884.74 73.14 884.74 74.75 C 878.58 74.75 872.41 74.75 866.25 74.75 C 866.25 67.58 866.25 60.42 866.25 53.25 Z" />
<path fill="#ffffff" d=" M 887.75 53.25 C 889.74 53.25 891.73 53.25 893.74 53.25 C 893.73 54.79 893.75 56.33 893.77 57.87 C 891.76 58.37 889.76 58.87 887.76 59.36 C 887.74 57.32 887.74 55.29 887.75 53.25 Z" />
<path fill="#ffffff" d=" M 896.74 53.25 C 903.82 53.25 910.91 53.25 918.00 53.25 C 918.00 58.80 918.00 64.35 918.00 69.91 C 916.00 70.46 914.00 71.03 912.01 71.58 C 911.99 65.72 912.00 59.86 912.00 54.00 C 911.25 54.00 909.75 54.00 909.00 54.00 C 908.99 60.11 909.01 66.23 908.99 72.35 C 907.30 73.03 904.73 72.58 904.03 74.71 C 901.60 74.76 899.17 74.75 896.75 74.75 C 896.74 72.11 896.75 69.47 896.75 66.83 C 898.16 66.45 899.56 66.06 901.00 65.68 C 901.00 62.50 900.99 59.32 901.00 56.15 C 899.58 56.47 898.16 56.80 896.76 57.12 C 896.76 55.83 896.74 54.54 896.74 53.25 Z" />
<path fill="#ffffff" d=" M 921.00 53.25 C 923.58 53.25 926.16 53.25 928.75 53.25 C 928.74 55.21 928.74 57.17 928.75 59.14 C 930.23 58.80 931.73 58.47 933.23 58.15 C 933.25 63.68 933.24 69.21 933.25 74.75 C 930.58 74.75 927.91 74.75 925.25 74.75 C 925.23 72.55 925.25 70.36 925.24 68.17 C 923.83 68.56 922.40 68.93 921.00 69.32 C 920.99 63.97 921.00 58.61 921.00 53.25 Z" />
<path fill="#ffffff" d=" M 945.21 55.23 C 947.00 54.81 948.79 54.30 950.38 53.33 C 952.83 53.24 955.28 53.24 957.75 53.24 C 957.74 55.70 957.74 58.16 957.76 60.62 C 956.24 61.04 954.74 61.46 953.25 61.88 C 953.24 64.96 953.24 68.04 953.24 71.13 C 954.73 70.71 956.24 70.29 957.76 69.88 C 957.75 71.09 957.75 73.53 957.75 74.75 C 950.58 74.75 943.41 74.75 936.25 74.75 C 936.25 68.94 936.25 63.14 936.25 57.33 C 938.32 56.87 940.41 56.40 942.50 55.91 C 942.50 61.36 942.49 66.81 942.50 72.25 C 943.19 72.25 944.56 72.25 945.25 72.25 C 945.23 66.58 945.29 60.91 945.21 55.23 Z" />
<path fill="#ffffff" d=" M 960.50 53.25 C 962.57 53.25 964.65 53.25 966.75 53.25 C 966.74 54.97 966.74 56.69 966.75 58.41 C 964.66 58.89 962.59 59.37 960.51 59.84 C 960.49 57.64 960.49 55.45 960.50 53.25 Z" />
<path fill="#ffffff" d=" M 969.48 53.26 C 979.48 53.24 989.49 53.25 999.49 53.25 C 999.49 55.38 999.48 57.50 999.52 59.63 C 1001.00 59.21 1002.49 58.79 1004.00 58.37 C 1003.99 62.79 1004.01 67.21 1003.99 71.63 C 1002.48 72.04 1001.00 72.46 999.51 72.87 C 999.50 73.34 999.49 74.28 999.48 74.75 C 989.48 74.74 979.49 74.75 969.50 74.75 C 969.49 72.13 969.49 69.50 969.50 66.88 C 970.99 66.56 972.48 66.23 974.00 65.91 C 973.99 62.82 973.99 59.74 974.00 56.65 C 972.50 56.98 971.01 57.30 969.53 57.63 C 969.52 56.53 969.50 54.35 969.48 53.26 Z" />
<path fill="#ffffff" d=" M 1020.82 53.30 C 1032.71 53.18 1044.60 53.29 1056.50 53.25 C 1056.50 60.42 1056.49 67.58 1056.50 74.75 C 1051.83 74.75 1047.16 74.75 1042.50 74.75 C 1042.50 71.00 1042.50 67.25 1042.50 63.50 C 1041.75 63.50 1040.25 63.50 1039.50 63.50 C 1039.49 67.25 1039.49 71.00 1039.50 74.75 C 1037.49 74.75 1035.49 74.75 1033.50 74.75 C 1033.50 71.66 1033.49 68.58 1033.50 65.50 C 1032.75 65.50 1031.25 65.50 1030.50 65.50 C 1030.49 68.58 1030.49 71.66 1030.50 74.75 C 1027.08 74.75 1023.66 74.75 1020.25 74.75 C 1020.24 72.38 1020.24 70.02 1020.24 67.65 C 1018.82 67.97 1017.40 68.28 1016.00 68.60 C 1015.99 64.21 1015.99 59.82 1016.01 55.43 C 1017.70 54.98 1019.59 54.73 1020.82 53.30 Z" />
<path fill="#ffffff" d=" M 1059.75 53.25 C 1061.32 53.25 1062.90 53.25 1064.50 53.25 C 1064.49 60.42 1064.50 67.59 1064.49 74.76 C 1062.90 74.75 1061.32 74.75 1059.75 74.75 C 1059.75 67.58 1059.75 60.42 1059.75 53.25 Z" />
<path fill="#ffffff" d=" M 454.50 53.25 C 457.08 53.25 459.66 53.25 462.25 53.25 C 462.24 55.20 462.24 57.15 462.24 59.11 C 463.74 58.79 465.24 58.48 466.75 58.18 C 466.74 63.70 466.75 69.23 466.75 74.75 C 464.08 74.75 461.41 74.75 458.75 74.75 C 458.74 72.55 458.75 70.35 458.75 68.15 C 457.34 68.56 455.91 68.94 454.51 69.33 C 454.49 63.97 454.50 58.61 454.50 53.25 Z" />
<path fill="#ffffff" d=" M 587.50 53.25 C 590.08 53.25 592.66 53.25 595.25 53.25 C 595.24 55.20 595.24 57.16 595.25 59.11 C 596.82 58.78 598.41 58.49 600.00 58.15 C 600.00 63.68 600.00 69.22 600.00 74.75 C 597.33 74.75 594.66 74.75 592.00 74.75 C 591.99 72.54 591.99 70.33 592.00 68.12 C 590.50 68.54 589.00 68.96 587.51 69.37 C 587.49 64.00 587.50 58.63 587.50 53.25 Z" />
<path fill="#ffffff" d=" M 611.73 55.29 C 613.50 54.79 615.29 54.28 616.89 53.33 C 619.33 53.24 621.79 53.24 624.24 53.24 C 624.24 55.69 624.24 58.15 624.26 60.60 C 622.75 61.03 621.25 61.46 619.75 61.89 C 619.74 64.97 619.74 68.05 619.75 71.13 C 621.24 70.70 622.74 70.30 624.24 69.87 C 624.23 71.50 624.24 73.12 624.25 74.75 C 617.08 74.75 609.92 74.75 602.75 74.75 C 602.75 68.95 602.76 63.16 602.74 57.37 C 604.82 56.88 606.92 56.41 609.00 55.89 C 609.00 61.35 609.00 66.80 609.00 72.25 C 609.91 72.25 610.83 72.25 611.75 72.25 C 611.75 66.60 611.77 60.94 611.73 55.29 Z" />
<path fill="#ffffff" d=" M 779.75 53.25 C 781.83 53.25 783.91 53.25 786.00 53.25 C 785.99 54.97 785.99 56.68 785.99 58.40 C 783.91 58.89 781.83 59.37 779.77 59.85 C 779.75 57.65 779.74 55.45 779.75 53.25 Z" />
<path fill="#ffffff" d=" M 826.25 57.61 C 828.24 57.12 830.23 56.63 832.23 56.14 C 832.25 60.55 832.24 64.97 832.25 69.38 C 830.25 69.87 828.25 70.37 826.26 70.86 C 826.24 66.44 826.25 62.02 826.25 57.61 Z" />
<path fill="#ffffff" d=" M 1006.75 57.61 C 1008.83 57.13 1010.91 56.65 1013.00 56.14 C 1012.99 60.57 1013.01 64.99 1012.98 69.41 C 1010.90 69.90 1008.83 70.37 1006.76 70.85 C 1006.74 66.44 1006.75 62.02 1006.75 57.61 Z" />
<path fill="#ffffff" d=" M 887.73 69.13 C 889.73 68.63 891.73 68.13 893.75 67.65 C 893.74 70.01 893.74 72.38 893.75 74.75 C 891.74 74.75 889.75 74.75 887.76 74.75 C 887.74 72.87 887.74 71.00 887.73 69.13 Z" />
<path fill="#ffffff" d=" M 960.48 69.39 C 962.56 68.80 964.65 68.22 966.74 67.63 C 966.74 70.00 966.74 72.37 966.75 74.75 C 964.66 74.75 962.58 74.75 960.51 74.75 C 960.49 72.96 960.49 71.18 960.48 69.39 Z" />
<path fill="#ffffff" d=" M 157.23 69.12 C 159.23 68.63 161.23 68.13 163.24 67.64 C 163.24 70.01 163.25 72.38 163.25 74.75 C 161.25 74.75 159.25 74.75 157.26 74.75 C 157.25 72.88 157.24 71.00 157.23 69.12 Z" />
<path fill="#ffffff" d=" M 224.23 69.11 C 226.32 68.62 228.40 68.15 230.49 67.67 C 230.49 70.03 230.50 72.39 230.50 74.75 C 228.42 74.75 226.34 74.75 224.26 74.75 C 224.25 72.87 224.24 70.99 224.23 69.11 Z" />
<path fill="#ffffff" d=" M 310.00 69.12 C 312.00 68.63 314.00 68.12 316.00 67.63 C 316.00 70.00 316.00 72.38 316.00 74.75 C 314.00 74.75 312.00 74.75 310.00 74.75 C 310.00 72.87 310.00 71.00 310.00 69.12 Z" />
<path fill="#ffffff" d=" M 421.00 69.10 C 423.08 68.62 425.16 68.14 427.24 67.65 C 427.24 70.02 427.24 72.38 427.25 74.75 C 425.16 74.75 423.08 74.75 421.00 74.75 C 420.99 72.87 421.00 70.99 421.00 69.10 Z" />
<path fill="#ffffff" d=" M 494.00 69.33 C 495.99 68.79 497.99 68.22 500.00 67.67 C 499.99 70.03 500.00 72.39 500.00 74.75 C 497.99 74.75 496.00 74.75 494.00 74.75 C 493.99 72.94 493.99 71.14 494.00 69.33 Z" />
<path fill="#ffffff" d=" M 554.23 69.12 C 556.23 68.63 558.23 68.13 560.24 67.64 C 560.24 70.01 560.25 72.38 560.25 74.75 C 558.25 74.75 556.25 74.75 554.26 74.75 C 554.25 72.88 554.24 71.00 554.23 69.12 Z" />
<path fill="#ffffff" d=" M 627.01 69.37 C 629.08 68.79 631.16 68.20 633.24 67.62 C 633.24 70.00 633.24 72.37 633.25 74.75 C 631.16 74.75 629.07 74.75 626.99 74.75 C 626.98 72.96 627.00 71.16 627.01 69.37 Z" />
<path fill="#ffffff" d=" M 707.00 69.12 C 708.99 68.63 710.99 68.12 713.00 67.63 C 712.99 70.00 712.99 72.38 713.00 74.75 C 710.99 74.75 708.99 74.75 707.00 74.75 C 706.99 72.87 706.99 71.00 707.00 69.12 Z" />
<path fill="#ffffff" d=" M 779.73 69.40 C 781.82 68.81 783.90 68.21 786.00 67.61 C 785.99 69.99 785.99 72.37 786.00 74.75 C 783.91 74.75 781.83 74.75 779.76 74.75 C 779.74 72.96 779.74 71.18 779.73 69.40 Z" />
<path fill="#ffffff" d=" M 0.00 76.50 C 9.19 76.49 18.37 76.52 27.55 76.49 C 21.55 83.04 15.32 89.65 11.42 97.75 C 7.62 97.75 3.81 97.75 0.00 97.75 L 0.00 76.50 Z" />
<path fill="#ffffff" d=" M 44.36 76.49 C 69.99 76.52 95.62 76.49 121.25 76.50 C 121.25 83.58 121.24 90.66 121.25 97.74 C 94.59 97.77 67.92 97.74 41.25 97.75 C 40.21 93.05 39.26 88.33 38.25 83.62 C 40.29 81.25 42.33 78.88 44.36 76.49 Z" />
<path fill="#ffffff" d=" M 132.50 76.50 C 139.75 76.50 147.00 76.50 154.25 76.50 C 154.25 79.92 154.24 83.34 154.25 86.76 C 155.25 86.75 156.25 86.75 157.25 86.75 C 157.25 83.33 157.25 79.92 157.25 76.50 C 159.25 76.50 161.25 76.50 163.25 76.50 C 163.24 78.92 163.25 81.33 163.25 83.75 C 164.00 83.75 165.50 83.75 166.25 83.75 C 166.25 81.33 166.25 78.92 166.25 76.50 C 174.42 76.50 182.58 76.50 190.75 76.50 C 190.75 83.58 190.75 90.67 190.75 97.75 C 171.33 97.75 151.92 97.75 132.50 97.75 C 132.50 90.66 132.50 83.58 132.50 76.50 Z" />
<path fill="#ffffff" d=" M 202.00 76.50 C 208.42 76.51 214.83 76.50 221.25 76.50 C 221.25 79.92 221.24 83.34 221.25 86.76 C 222.25 86.75 223.25 86.75 224.25 86.75 C 224.25 83.33 224.25 79.92 224.25 76.50 C 226.33 76.50 228.41 76.50 230.50 76.50 C 230.50 78.92 230.49 81.34 230.50 83.75 C 231.19 83.75 232.56 83.75 233.25 83.75 C 233.25 81.33 233.25 78.92 233.25 76.50 C 235.91 76.50 238.57 76.50 241.24 76.50 C 241.25 78.63 241.24 80.76 241.27 82.89 C 242.76 82.47 244.25 82.05 245.74 81.63 C 245.76 86.01 245.72 90.39 245.79 94.78 C 244.03 95.54 241.27 95.38 240.82 97.73 C 227.88 97.78 214.94 97.73 202.00 97.75 C 202.00 90.67 202.00 83.58 202.00 76.50 Z" />
<path fill="#ffffff" d=" M 262.64 76.51 C 267.84 76.48 273.04 76.51 278.25 76.50 C 278.25 83.59 278.25 90.67 278.25 97.75 C 272.83 97.75 267.42 97.75 262.00 97.75 C 262.00 95.47 262.00 93.19 262.00 90.91 C 260.51 91.23 259.02 91.55 257.53 91.88 C 257.48 87.48 257.51 83.08 257.49 78.69 C 259.29 78.21 261.44 78.17 262.64 76.51 Z" />
<path fill="#ffffff" d=" M 310.00 76.50 C 312.00 76.50 314.00 76.50 316.00 76.50 C 315.99 78.92 316.00 81.34 316.00 83.76 C 316.75 83.76 318.25 83.76 319.00 83.76 C 318.99 81.34 319.00 78.92 319.00 76.50 C 321.58 76.50 324.16 76.50 326.74 76.50 C 326.75 78.63 326.74 80.75 326.77 82.88 C 328.25 82.46 329.74 82.04 331.24 81.62 C 331.26 86.00 331.23 90.38 331.26 94.77 C 329.49 95.53 326.84 95.48 326.31 97.76 C 314.04 97.73 301.77 97.76 289.50 97.75 C 289.50 90.66 289.50 83.58 289.50 76.50 C 295.33 76.50 301.17 76.50 307.00 76.50 C 307.00 79.92 307.00 83.34 307.00 86.75 C 307.75 86.75 309.25 86.76 310.00 86.76 C 310.00 83.34 310.00 79.92 310.00 76.50 Z" />
<path fill="#ffffff" d=" M 348.20 76.48 C 362.13 76.53 376.06 76.49 389.99 76.50 C 390.00 83.58 390.00 90.67 390.00 97.75 C 375.92 97.75 361.83 97.75 347.75 97.75 C 347.75 95.47 347.75 93.20 347.76 90.92 C 346.26 91.24 344.76 91.54 343.27 91.85 C 343.24 87.43 343.26 83.01 343.25 78.59 C 344.63 78.32 346.02 78.06 347.42 77.79 C 347.61 77.47 348.00 76.81 348.20 76.48 Z" />
<path fill="#ffffff" d=" M 421.00 76.50 C 423.08 76.50 425.16 76.50 427.25 76.51 C 427.24 78.92 427.24 81.33 427.25 83.75 C 427.93 83.75 429.31 83.76 429.99 83.76 C 429.99 81.34 430.00 78.92 430.00 76.50 C 432.66 76.50 435.33 76.50 438.00 76.50 C 438.00 78.63 437.99 80.75 438.00 82.88 C 439.49 82.46 440.98 82.04 442.49 81.63 C 442.51 86.01 442.47 90.40 442.53 94.78 C 440.74 95.56 437.96 95.38 437.57 97.79 C 425.46 97.70 413.36 97.77 401.25 97.75 C 401.25 90.67 401.25 83.59 401.25 76.50 C 406.91 76.50 412.58 76.50 418.25 76.50 C 418.24 79.92 418.25 83.33 418.25 86.75 C 418.93 86.75 420.31 86.76 420.99 86.76 C 421.00 83.34 421.00 79.92 421.00 76.50 Z" />
<path fill="#ffffff" d=" M 454.50 78.72 C 456.45 78.28 458.28 77.50 460.06 76.62 C 470.36 76.33 480.69 76.60 491.00 76.50 C 491.00 78.70 490.99 80.91 491.00 83.11 C 489.49 83.54 487.98 83.98 486.48 84.40 C 486.50 87.56 486.49 90.72 486.52 93.88 C 488.01 93.56 489.50 93.23 491.00 92.91 C 490.99 94.52 490.99 96.14 491.00 97.75 C 480.25 97.75 469.50 97.75 458.75 97.75 C 458.75 95.48 458.75 93.20 458.77 90.93 C 457.34 91.23 455.92 91.53 454.51 91.83 C 454.49 87.46 454.50 83.09 454.50 78.72 Z" />
<path fill="#ffffff" d=" M 494.00 76.50 C 496.00 76.50 497.99 76.50 500.00 76.50 C 499.99 77.96 499.99 79.42 500.00 80.88 C 497.99 81.37 496.00 81.88 494.00 82.37 C 493.99 80.41 494.00 78.46 494.00 76.50 Z" />
<path fill="#ffffff" d=" M 503.01 76.50 C 509.33 76.50 515.67 76.50 522.00 76.50 C 522.00 83.58 522.00 90.67 522.00 97.75 C 515.66 97.75 509.33 97.75 503.00 97.75 C 503.00 95.13 503.00 92.50 503.00 89.88 C 504.50 89.47 505.99 89.02 507.52 88.61 C 507.50 85.45 507.50 82.28 507.48 79.11 C 505.98 79.53 504.48 79.96 503.00 80.39 C 502.99 79.09 502.99 77.79 503.01 76.50 Z" />
<path fill="#ffffff" d=" M 592.64 76.52 C 603.17 76.48 613.71 76.51 624.25 76.50 C 624.24 78.70 624.24 80.90 624.25 83.11 C 622.74 83.53 621.23 83.97 619.73 84.40 C 619.75 87.56 619.74 90.73 619.77 93.90 C 621.25 93.56 622.74 93.22 624.24 92.88 C 624.24 94.50 624.24 96.13 624.25 97.75 C 613.50 97.75 602.75 97.75 592.00 97.75 C 591.99 95.47 592.00 93.19 592.00 90.91 C 590.50 91.23 589.01 91.55 587.53 91.88 C 587.48 87.48 587.51 83.08 587.49 78.69 C 589.29 78.20 591.43 78.16 592.64 76.52 Z" />
<path fill="#ffffff" d=" M 627.00 76.50 C 629.07 76.50 631.16 76.50 633.24 76.50 C 633.24 77.96 633.25 79.42 633.26 80.89 C 631.17 81.38 629.08 81.86 627.00 82.36 C 626.99 80.40 627.00 78.45 627.00 76.50 Z" />
<path fill="#ffffff" d=" M 636.01 76.50 C 643.17 76.51 650.33 76.50 657.50 76.50 C 657.50 82.05 657.49 87.60 657.50 93.14 C 655.50 93.62 653.50 94.12 651.52 94.60 C 651.48 88.82 651.51 83.03 651.50 77.25 C 650.49 77.25 649.49 77.25 648.50 77.25 C 648.50 83.29 648.49 89.33 648.50 95.36 C 646.71 95.92 644.25 95.66 643.47 97.77 C 640.98 97.75 638.49 97.74 636.00 97.75 C 635.99 95.13 636.00 92.50 636.00 89.88 C 637.50 89.47 638.99 89.02 640.52 88.61 C 640.50 85.45 640.50 82.28 640.48 79.11 C 638.98 79.54 637.48 79.96 636.00 80.39 C 635.99 79.09 635.99 77.79 636.01 76.50 Z" />
<path fill="#ffffff" d=" M 689.75 76.50 C 694.50 76.50 699.25 76.50 704.00 76.50 C 704.00 79.92 704.00 83.34 704.00 86.76 C 704.75 86.76 706.25 86.76 707.00 86.76 C 707.00 83.34 706.99 79.92 707.00 76.50 C 708.99 76.50 710.99 76.50 713.00 76.50 C 712.99 78.92 713.00 81.34 713.00 83.76 C 713.75 83.76 715.25 83.76 716.00 83.76 C 715.99 81.34 716.00 78.92 716.00 76.50 C 718.58 76.50 721.16 76.50 723.74 76.50 C 723.74 78.63 723.74 80.76 723.77 82.88 C 725.25 82.46 726.74 82.04 728.24 81.62 C 728.25 86.00 728.23 90.38 728.26 94.77 C 726.49 95.53 723.84 95.47 723.31 97.76 C 712.12 97.73 700.94 97.76 689.75 97.75 C 689.75 90.67 689.75 83.59 689.75 76.50 Z" />
<path fill="#ffffff" d=" M 740.24 78.72 C 742.27 78.30 744.20 77.54 746.06 76.63 C 756.36 76.32 766.69 76.60 777.00 76.50 C 776.99 78.70 776.99 80.91 777.00 83.12 C 775.49 83.53 773.97 83.97 772.48 84.39 C 772.49 87.55 772.49 90.72 772.53 93.88 C 774.01 93.56 775.50 93.23 777.00 92.91 C 776.99 94.52 776.99 96.14 777.00 97.75 C 766.25 97.75 755.50 97.75 744.75 97.75 C 744.74 95.47 744.75 93.20 744.76 90.92 C 743.26 91.24 741.76 91.54 740.27 91.85 C 740.23 87.47 740.26 83.10 740.24 78.72 Z" />
<path fill="#ffffff" d=" M 779.75 76.51 C 781.82 76.50 783.90 76.50 785.99 76.50 C 785.99 77.96 785.99 79.43 786.00 80.89 C 783.92 81.39 781.84 81.88 779.76 82.35 C 779.75 80.40 779.74 78.45 779.75 76.51 Z" />
<path fill="#ffffff" d=" M 813.25 76.50 C 815.07 76.50 816.90 76.50 818.74 76.50 C 818.74 78.46 818.74 80.42 818.76 82.39 C 820.24 81.96 821.73 81.54 823.23 81.12 C 823.26 86.66 823.24 92.20 823.25 97.75 C 821.32 97.75 819.41 97.75 817.51 97.75 C 817.49 95.64 817.50 93.53 817.49 91.43 C 816.07 91.73 814.65 92.02 813.25 92.33 C 813.25 87.05 813.25 81.78 813.25 76.50 Z" />
<path fill="#ffffff" d=" M 866.25 76.50 C 872.41 76.50 878.58 76.50 884.75 76.50 C 884.74 79.92 884.74 83.33 884.75 86.75 C 885.74 86.75 886.74 86.75 887.75 86.76 C 887.75 83.34 887.75 79.92 887.75 76.50 C 889.74 76.50 891.74 76.50 893.75 76.50 C 893.74 78.92 893.74 81.33 893.75 83.75 C 894.74 83.75 895.74 83.75 896.75 83.76 C 896.75 81.34 896.74 78.92 896.76 76.50 C 899.33 76.50 901.90 76.50 904.49 76.50 C 904.49 78.63 904.49 80.76 904.53 82.89 C 906.01 82.46 907.49 82.04 909.00 81.62 C 908.99 86.01 909.00 90.41 909.00 94.81 C 907.33 95.65 904.37 95.28 904.10 97.74 C 891.48 97.76 878.87 97.74 866.25 97.75 C 866.25 90.67 866.25 83.58 866.25 76.50 Z" />
<path fill="#ffffff" d=" M 960.50 76.50 C 962.57 76.50 964.65 76.50 966.74 76.50 C 966.74 77.96 966.74 79.43 966.77 80.89 C 964.68 81.39 962.59 81.87 960.51 82.34 C 960.49 80.39 960.49 78.45 960.50 76.50 Z" />
<path fill="#ffffff" d=" M 969.49 76.50 C 976.66 76.50 983.83 76.51 991.00 76.50 C 991.00 82.05 991.00 87.59 991.00 93.14 C 988.92 93.65 986.83 94.12 984.76 94.60 C 984.74 88.82 984.75 83.04 984.75 77.25 C 984.07 77.25 982.69 77.24 982.00 77.24 C 981.99 83.28 982.02 89.32 981.98 95.36 C 980.25 95.97 977.80 95.69 977.02 97.72 C 974.50 97.76 972.00 97.75 969.50 97.75 C 969.49 95.12 969.50 92.50 969.50 89.88 C 970.99 89.47 972.47 89.05 973.98 88.64 C 974.00 85.46 973.99 82.29 974.00 79.12 C 972.49 79.54 971.00 79.96 969.52 80.37 C 969.51 79.41 969.50 77.47 969.49 76.50 Z" />
<path fill="#ffffff" d=" M 124.50 76.50 C 126.08 76.50 127.66 76.50 129.25 76.50 C 129.25 83.58 129.25 90.67 129.25 97.75 C 127.66 97.75 126.08 97.75 124.50 97.75 C 124.50 90.67 124.50 83.58 124.50 76.50 Z" />
<path fill="#ffffff" d=" M 194.00 76.52 C 195.57 76.50 197.15 76.49 198.72 76.48 C 198.78 83.57 198.73 90.66 198.75 97.75 C 197.17 97.75 195.58 97.75 194.00 97.75 C 194.00 90.67 194.00 83.59 194.00 76.52 Z" />
<path fill="#ffffff" d=" M 281.50 76.50 C 283.08 76.50 284.66 76.50 286.25 76.50 C 286.25 83.58 286.25 90.67 286.25 97.75 C 284.66 97.75 283.08 97.75 281.50 97.75 C 281.50 90.67 281.50 83.58 281.50 76.50 Z" />
<path fill="#ffffff" d=" M 393.25 97.75 C 393.26 90.66 393.22 83.57 393.28 76.48 C 394.85 76.49 396.42 76.50 398.00 76.52 C 398.00 83.59 398.00 90.67 398.00 97.75 C 396.41 97.75 394.83 97.75 393.25 97.75 Z" />
<path fill="#ffffff" d=" M 525.25 76.50 C 526.91 76.50 528.57 76.50 530.25 76.50 C 530.25 83.58 530.25 90.67 530.25 97.75 C 528.57 97.75 526.91 97.75 525.25 97.75 C 525.25 90.67 525.25 83.58 525.25 76.50 Z" />
<path fill="#ffffff" d=" M 533.50 76.50 C 539.42 76.50 545.33 76.50 551.25 76.50 C 551.24 79.92 551.24 83.34 551.25 86.76 C 552.24 86.75 553.24 86.75 554.25 86.75 C 554.25 83.33 554.25 79.92 554.25 76.50 C 556.24 76.50 558.24 76.50 560.25 76.50 C 560.24 78.92 560.24 81.34 560.25 83.76 C 561.24 83.75 562.24 83.75 563.25 83.75 C 563.25 81.33 563.24 78.92 563.25 76.50 C 565.83 76.50 568.41 76.50 571.00 76.50 C 570.99 78.63 570.99 80.75 571.00 82.88 C 572.49 82.46 573.98 82.04 575.49 81.63 C 575.51 86.01 575.47 90.40 575.53 94.78 C 573.74 95.56 570.96 95.38 570.57 97.79 C 558.21 97.70 545.86 97.77 533.50 97.75 C 533.50 90.67 533.50 83.59 533.50 76.50 Z" />
<path fill="#ffffff" d=" M 660.50 76.50 C 666.41 76.50 672.33 76.50 678.25 76.50 C 678.25 83.58 678.24 90.67 678.25 97.75 C 673.75 97.75 669.25 97.75 664.76 97.75 C 664.74 95.64 664.75 93.53 664.75 91.43 C 663.34 91.73 661.91 92.03 660.51 92.33 C 660.49 87.06 660.50 81.78 660.50 76.50 Z" />
<path fill="#ffffff" d=" M 681.50 76.50 C 683.16 76.50 684.82 76.50 686.50 76.50 C 686.50 83.58 686.49 90.67 686.50 97.75 C 684.82 97.75 683.16 97.75 681.50 97.75 C 681.50 90.66 681.50 83.58 681.50 76.50 Z" />
<path fill="#ffffff" d=" M 789.00 76.51 C 791.98 76.51 794.97 76.49 797.97 76.46 C 799.37 75.99 801.19 76.93 801.29 78.48 C 801.25 84.10 801.23 89.71 801.25 95.32 C 799.48 95.92 797.14 95.72 796.26 97.73 C 793.83 97.76 791.41 97.75 789.00 97.75 C 788.99 95.11 788.99 92.47 789.00 89.83 C 790.41 89.44 791.82 89.05 793.26 88.67 C 793.25 85.50 793.25 82.34 793.24 79.17 C 791.82 79.55 790.41 79.94 789.00 80.32 C 789.00 79.37 789.00 77.46 789.00 76.51 Z" />
<path fill="#ffffff" d=" M 802.33 77.24 C 804.76 76.02 807.61 76.62 810.25 76.49 C 810.25 82.04 810.24 87.58 810.25 93.13 C 808.25 93.62 806.25 94.11 804.26 94.61 C 804.10 88.98 804.56 83.33 803.98 77.72 C 803.57 77.60 802.74 77.36 802.33 77.24 Z" />
<path fill="#ffffff" d=" M 835.25 78.46 C 836.84 77.84 838.51 77.39 840.03 76.58 C 845.02 76.42 850.01 76.53 855.00 76.50 C 855.00 83.59 855.00 90.67 855.00 97.75 C 845.41 97.75 835.83 97.75 826.25 97.75 C 826.25 92.03 826.25 86.32 826.25 80.61 C 828.24 80.12 830.23 79.63 832.23 79.14 C 832.26 84.51 832.24 89.88 832.25 95.25 C 833.24 95.25 834.24 95.25 835.25 95.25 C 835.25 89.65 835.24 84.05 835.25 78.46 Z" />
<path fill="#ffffff" d=" M 858.25 76.50 C 859.82 76.50 861.40 76.50 863.00 76.50 C 863.00 83.58 863.00 90.67 863.00 97.75 C 861.40 97.75 859.82 97.75 858.25 97.75 C 858.25 90.67 858.25 83.58 858.25 76.50 Z" />
<path fill="#ffffff" d=" M 925.91 76.56 C 936.52 76.43 947.14 76.54 957.75 76.50 C 957.73 78.71 957.74 80.91 957.75 83.12 C 956.23 83.54 954.72 83.95 953.24 84.38 C 953.24 87.54 953.24 90.70 953.27 93.86 C 954.76 93.55 956.25 93.24 957.76 92.93 C 957.74 94.53 957.73 96.14 957.74 97.75 C 946.91 97.75 936.08 97.75 925.25 97.75 C 925.24 95.47 925.24 93.19 925.25 90.91 C 923.82 91.22 922.40 91.53 921.00 91.85 C 921.05 87.52 920.87 83.18 921.07 78.85 C 922.67 78.07 924.59 77.90 925.91 76.56 Z" />
<path fill="#ffffff" d=" M 994.00 76.50 C 995.82 76.50 997.64 76.50 999.49 76.50 C 999.48 78.46 999.49 80.42 999.51 82.38 C 1001.00 81.96 1002.49 81.54 1004.00 81.12 C 1003.99 86.67 1004.00 92.21 1004.00 97.75 C 1002.07 97.75 1000.16 97.75 998.25 97.75 C 998.24 95.63 998.24 93.52 998.24 91.41 C 996.81 91.72 995.40 92.04 994.00 92.35 C 994.00 87.07 994.00 81.78 994.00 76.50 Z" />
<path fill="#ffffff" d=" M 1016.00 78.40 C 1020.54 76.18 1025.56 76.35 1030.50 76.51 C 1030.48 78.98 1030.49 81.44 1030.51 83.91 C 1028.99 84.22 1027.49 84.54 1026.00 84.86 C 1025.99 88.04 1025.99 91.21 1026.00 94.39 C 1027.48 93.96 1028.97 93.54 1030.47 93.12 C 1030.48 94.27 1030.50 96.59 1030.51 97.74 C 1022.59 97.75 1014.67 97.75 1006.75 97.75 C 1006.75 92.04 1006.76 86.32 1006.75 80.61 C 1008.82 80.13 1010.91 79.65 1013.00 79.14 C 1012.99 84.51 1013.00 89.88 1013.00 95.25 C 1013.75 95.25 1015.25 95.25 1016.00 95.25 C 1015.99 89.64 1016.00 84.02 1016.00 78.40 Z" />
<path fill="#ffffff" d=" M 1033.50 76.50 C 1035.49 76.50 1037.48 76.50 1039.50 76.50 C 1039.48 78.14 1039.49 79.77 1039.50 81.41 C 1037.49 81.97 1035.49 82.54 1033.50 83.09 C 1033.49 80.90 1033.49 78.70 1033.50 76.50 Z" />
<path fill="#ffffff" d=" M 1042.49 76.50 C 1047.15 76.50 1051.82 76.50 1056.50 76.50 C 1056.50 83.58 1056.49 90.66 1056.50 97.75 C 1051.83 97.75 1047.16 97.75 1042.50 97.75 C 1042.50 95.22 1042.49 92.68 1042.47 90.15 C 1043.97 89.82 1045.47 89.48 1047.00 89.15 C 1046.99 85.97 1046.99 82.79 1047.00 79.61 C 1045.50 80.03 1044.01 80.46 1042.53 80.88 C 1042.52 79.79 1042.50 77.60 1042.49 76.50 Z" />
<path fill="#ffffff" d=" M 1059.75 76.50 C 1061.32 76.50 1062.90 76.50 1064.50 76.50 C 1064.50 83.58 1064.49 90.67 1064.50 97.75 C 1062.90 97.75 1061.32 97.75 1059.75 97.75 C 1059.75 90.67 1059.75 83.58 1059.75 76.50 Z" />
<path fill="#ffffff" d=" M 248.50 80.84 C 250.58 80.38 252.66 79.90 254.75 79.41 C 254.75 83.83 254.75 88.25 254.75 92.67 C 252.67 93.15 250.59 93.62 248.50 94.09 C 248.50 89.67 248.50 85.26 248.50 80.84 Z" />
<path fill="#ffffff" d=" M 334.25 80.86 C 336.24 80.37 338.24 79.88 340.24 79.39 C 340.26 83.80 340.23 88.21 340.26 92.63 C 338.25 93.12 336.25 93.62 334.25 94.11 C 334.25 89.69 334.25 85.27 334.25 80.86 Z" />
<path fill="#ffffff" d=" M 445.25 80.85 C 447.33 80.37 449.40 79.90 451.49 79.42 C 451.50 83.83 451.49 88.25 451.51 92.66 C 449.41 93.14 447.33 93.62 445.24 94.09 C 445.26 89.67 445.25 85.26 445.25 80.85 Z" />
<path fill="#ffffff" d=" M 578.50 80.86 C 580.49 80.38 582.48 79.88 584.48 79.40 C 584.51 83.81 584.48 88.23 584.51 92.64 C 582.50 93.12 580.50 93.62 578.51 94.10 C 578.50 89.69 578.50 85.27 578.50 80.86 Z" />
<path fill="#ffffff" d=" M 731.25 80.85 C 733.32 80.37 735.40 79.90 737.49 79.42 C 737.50 83.83 737.49 88.24 737.51 92.66 C 735.41 93.14 733.33 93.62 731.24 94.09 C 731.25 89.67 731.25 85.26 731.25 80.85 Z" />
<path fill="#ffffff" d=" M 912.00 80.88 C 914.00 80.37 915.99 79.88 918.00 79.38 C 917.99 83.80 918.00 88.22 917.99 92.64 C 915.98 93.13 913.99 93.62 912.00 94.12 C 912.00 89.70 911.99 85.29 912.00 80.88 Z" />
<path fill="#ffffff" d=" M 23.93 97.77 C 27.65 93.48 31.66 89.46 35.97 85.76 C 36.74 89.75 37.48 93.75 38.23 97.75 C 33.46 97.75 28.70 97.74 23.93 97.77 Z" />
<path fill="#ffffff" d=" M 960.48 92.11 C 962.57 91.63 964.65 91.15 966.75 90.66 C 966.74 93.03 966.74 95.39 966.75 97.75 C 964.66 97.75 962.58 97.75 960.51 97.75 C 960.49 95.87 960.48 93.99 960.48 92.11 Z" />
<path fill="#ffffff" d=" M 494.00 92.12 C 496.00 91.63 498.00 91.12 500.00 90.63 C 499.99 93.00 500.00 95.38 500.00 97.75 C 497.99 97.75 496.00 97.75 494.00 97.75 C 494.00 95.87 493.99 94.00 494.00 92.12 Z" />
<path fill="#ffffff" d=" M 627.00 92.10 C 629.07 91.62 631.15 91.14 633.24 90.65 C 633.24 93.02 633.24 95.38 633.25 97.75 C 631.16 97.75 629.08 97.75 627.00 97.75 C 626.99 95.87 627.00 93.99 627.00 92.10 Z" />
<path fill="#ffffff" d=" M 779.74 92.12 C 781.82 91.64 783.91 91.15 786.00 90.64 C 785.99 93.01 785.99 95.38 786.00 97.75 C 783.91 97.75 781.83 97.75 779.76 97.75 C 779.74 95.87 779.74 93.99 779.74 92.12 Z" />
<path fill="#ffffff" d=" M 1033.49 92.36 C 1035.48 91.87 1037.49 91.38 1039.50 90.90 C 1039.49 93.18 1039.49 95.46 1039.50 97.75 C 1037.49 97.75 1035.49 97.75 1033.51 97.75 C 1033.49 95.95 1033.49 94.16 1033.49 92.36 Z" />
<path fill="#ffffff" d=" M 22.81 99.49 C 28.28 99.50 33.75 99.53 39.23 99.47 C 30.67 102.68 24.34 111.72 25.95 121.00 C 22.36 121.00 18.76 121.01 15.16 120.97 C 15.04 113.17 17.78 105.45 22.81 99.49 Z" />
<path fill="#ffffff" d=" M 51.16 99.37 C 74.52 99.68 97.89 99.41 121.25 99.50 C 121.25 106.67 121.25 113.83 121.25 121.00 C 102.54 121.00 83.83 121.00 65.12 121.00 C 65.21 111.84 59.90 102.69 51.16 99.37 Z" />
<path fill="#ffffff" d=" M 194.00 99.50 C 195.58 99.50 197.16 99.50 198.75 99.50 C 198.75 106.67 198.75 113.83 198.75 121.00 C 197.17 121.00 195.58 121.00 194.00 121.00 C 194.00 113.83 194.00 106.67 194.00 99.50 Z" />
<path fill="#ffffff" d=" M 202.00 99.50 C 215.08 99.51 228.16 99.50 241.24 99.50 C 241.24 101.55 241.25 103.59 241.27 105.64 C 242.75 105.21 244.24 104.79 245.73 104.37 C 245.76 109.91 245.74 115.45 245.75 121.00 C 231.17 121.00 216.58 121.00 202.00 121.00 C 202.00 113.83 202.00 106.67 202.00 99.50 Z" />
<path fill="#ffffff" d=" M 262.67 99.54 C 267.86 99.46 273.05 99.52 278.25 99.50 C 278.25 106.67 278.25 113.83 278.25 121.00 C 268.33 121.00 258.42 121.00 248.50 121.00 C 248.50 115.28 248.50 109.56 248.50 103.84 C 250.58 103.38 252.66 102.90 254.75 102.41 C 254.75 107.77 254.75 113.14 254.75 118.50 C 255.44 118.50 256.81 118.50 257.50 118.50 C 257.50 112.90 257.51 107.30 257.49 101.70 C 259.29 101.17 261.15 100.70 262.67 99.54 Z" />
<path fill="#ffffff" d=" M 348.39 99.59 C 362.25 99.38 376.13 99.57 390.00 99.50 C 390.00 106.67 390.00 113.83 390.00 121.00 C 371.42 121.00 352.83 121.00 334.25 121.00 C 334.25 115.28 334.25 109.57 334.25 103.86 C 336.24 103.37 338.23 102.88 340.24 102.39 C 340.26 107.76 340.24 113.13 340.25 118.50 C 341.00 118.50 342.50 118.50 343.25 118.50 C 343.25 112.91 343.25 107.32 343.25 101.72 C 345.00 101.14 346.84 100.66 348.39 99.59 Z" />
<path fill="#ffffff" d=" M 393.25 99.50 C 394.83 99.50 396.41 99.50 398.00 99.50 C 398.00 106.67 398.00 113.83 398.00 121.00 C 396.41 121.00 394.83 121.00 393.25 121.00 C 393.25 113.83 393.25 106.67 393.25 99.50 Z" />
<path fill="#ffffff" d=" M 459.36 99.59 C 469.90 99.38 480.45 99.56 491.00 99.50 C 491.00 103.00 491.00 106.50 491.00 110.00 C 491.75 110.00 493.25 110.00 494.00 110.00 C 494.00 106.50 494.00 103.00 494.00 99.50 C 496.00 99.50 497.99 99.50 500.00 99.50 C 499.99 102.00 500.00 104.50 500.00 107.00 C 500.75 107.00 502.25 107.00 503.00 107.00 C 502.99 104.50 503.00 102.00 503.00 99.50 C 509.33 99.50 515.66 99.50 522.00 99.50 C 522.00 106.67 522.00 113.83 522.00 121.00 C 496.42 121.00 470.83 121.00 445.25 121.00 C 445.25 115.28 445.25 109.56 445.25 103.84 C 447.33 103.37 449.40 102.90 451.49 102.42 C 451.50 107.78 451.49 113.14 451.50 118.50 C 452.49 118.50 453.49 118.50 454.50 118.50 C 454.50 112.90 454.50 107.30 454.50 101.69 C 456.17 101.14 457.93 100.67 459.36 99.59 Z" />
<path fill="#ffffff" d=" M 525.25 99.50 C 526.91 99.50 528.58 99.50 530.25 99.50 C 530.25 106.67 530.25 113.83 530.25 121.00 C 528.57 121.00 526.91 121.00 525.25 121.00 C 525.25 113.83 525.25 106.67 525.25 99.50 Z" />
<path fill="#ffffff" d=" M 533.50 99.50 C 546.00 99.50 558.50 99.50 571.00 99.50 C 570.99 101.54 570.99 103.59 571.00 105.63 C 572.48 105.21 573.98 104.79 575.48 104.37 C 575.51 109.91 575.49 115.46 575.50 121.00 C 561.50 121.00 547.50 121.00 533.50 121.00 C 533.50 113.83 533.50 106.67 533.50 99.50 Z" />
<path fill="#ffffff" d=" M 592.67 99.54 C 603.19 99.45 613.72 99.53 624.25 99.50 C 624.24 103.00 624.24 106.50 624.24 110.00 C 624.93 110.00 626.31 110.00 627.00 110.00 C 627.00 106.50 627.00 103.00 627.00 99.50 C 629.08 99.50 631.16 99.50 633.25 99.51 C 633.24 102.00 633.24 104.50 633.24 107.00 C 633.93 107.00 635.31 107.00 636.00 107.00 C 635.99 104.50 636.00 102.00 636.00 99.50 C 638.66 99.50 641.33 99.50 644.00 99.50 C 644.00 101.63 643.99 103.75 644.00 105.88 C 645.49 105.46 646.98 105.04 648.49 104.63 C 648.51 109.01 648.47 113.40 648.53 117.79 C 646.72 118.59 643.66 118.33 643.70 121.00 C 621.96 121.00 600.23 121.00 578.50 121.00 C 578.50 115.28 578.50 109.57 578.50 103.86 C 580.49 103.38 582.48 102.88 584.48 102.40 C 584.51 107.77 584.49 113.13 584.50 118.50 C 585.49 118.50 586.49 118.50 587.50 118.50 C 587.50 112.90 587.51 107.31 587.50 101.71 C 589.28 101.17 591.16 100.71 592.67 99.54 Z" />
<path fill="#ffffff" d=" M 660.50 101.73 C 662.45 101.28 664.29 100.49 666.08 99.62 C 670.12 99.30 674.19 99.59 678.25 99.50 C 678.25 106.67 678.24 113.83 678.25 121.00 C 673.74 121.00 669.25 121.00 664.75 121.00 C 664.75 118.64 664.75 116.28 664.77 113.92 C 663.34 114.30 661.92 114.69 660.50 115.08 C 660.50 110.63 660.50 106.18 660.50 101.73 Z" />
<path fill="#ffffff" d=" M 745.38 99.59 C 755.92 99.38 766.46 99.56 777.00 99.50 C 777.00 103.00 776.99 106.50 777.00 110.00 C 777.69 110.00 779.07 110.00 779.76 110.00 C 779.75 106.50 779.75 103.00 779.75 99.51 C 781.83 99.50 783.91 99.50 786.00 99.50 C 785.99 102.00 786.00 104.50 786.00 107.00 C 786.75 107.00 788.25 107.00 789.00 107.00 C 788.99 104.50 789.00 102.00 789.00 99.50 C 791.58 99.50 794.16 99.50 796.74 99.50 C 796.75 101.63 796.73 103.75 796.77 105.88 C 798.25 105.46 799.74 105.04 801.24 104.62 C 801.25 109.00 801.23 113.39 801.26 117.77 C 799.47 118.58 796.50 118.41 796.44 121.00 C 774.71 121.00 752.98 121.00 731.25 121.00 C 731.25 115.28 731.25 109.56 731.25 103.84 C 733.32 103.37 735.41 102.90 737.49 102.42 C 737.50 107.78 737.49 113.14 737.50 118.50 C 738.19 118.50 739.56 118.50 740.25 118.50 C 740.25 112.91 740.25 107.32 740.25 101.72 C 742.00 101.15 743.84 100.66 745.38 99.59 Z" />
<path fill="#ffffff" d=" M 818.10 99.57 C 830.40 99.41 842.70 99.55 855.00 99.50 C 855.00 106.67 855.00 113.83 855.00 121.00 C 842.50 121.00 830.00 121.00 817.50 121.00 C 817.50 118.63 817.49 116.27 817.50 113.91 C 816.07 114.30 814.64 114.69 813.23 115.08 C 813.26 110.61 813.25 106.14 813.25 101.67 C 814.91 101.13 816.98 101.17 818.10 99.57 Z" />
<path fill="#ffffff" d=" M 858.25 99.50 C 859.82 99.50 861.40 99.50 863.00 99.50 C 863.00 106.67 863.00 113.83 863.00 121.00 C 861.40 121.00 859.82 121.00 858.25 121.00 C 858.25 113.83 858.25 106.67 858.25 99.50 Z" />
<path fill="#ffffff" d=" M 960.50 99.50 C 962.57 99.50 964.66 99.50 966.75 99.50 C 966.74 102.06 966.74 104.62 966.76 107.18 C 967.41 107.10 968.72 106.93 969.37 106.85 C 969.64 104.41 969.47 101.95 969.50 99.50 C 972.16 99.50 974.82 99.50 977.49 99.50 C 977.49 101.63 977.49 103.76 977.53 105.89 C 979.01 105.46 980.50 105.04 982.00 104.62 C 981.99 109.02 982.00 113.42 982.00 117.82 C 980.23 118.62 977.12 118.31 977.20 121.00 C 955.46 121.00 933.73 121.00 912.00 121.00 C 912.00 115.29 911.99 109.58 912.00 103.88 C 913.99 103.37 915.99 102.88 918.00 102.38 C 918.00 107.75 918.00 113.13 918.00 118.50 C 918.75 118.50 920.25 118.50 921.00 118.50 C 921.00 112.89 920.99 107.28 921.00 101.68 C 922.66 101.11 924.47 100.71 925.88 99.57 C 936.50 99.42 947.12 99.54 957.75 99.50 C 957.74 103.00 957.74 106.50 957.75 110.00 C 958.44 110.00 959.81 110.00 960.50 110.00 C 960.50 106.50 960.50 103.00 960.50 99.50 Z" />
<path fill="#ffffff" d=" M 0.00 99.50 C 3.55 99.50 7.10 99.50 10.65 99.49 C 8.36 106.41 7.72 113.90 9.57 121.00 C 6.38 121.00 3.19 121.00 0.00 121.00 L 0.00 99.50 Z" />
<path fill="#ffffff" d=" M 124.50 99.50 C 126.08 99.50 127.66 99.50 129.25 99.50 C 129.25 106.67 129.25 113.83 129.25 121.00 C 127.66 121.00 126.08 121.00 124.50 121.00 C 124.50 113.83 124.50 106.67 124.50 99.50 Z" />
<path fill="#ffffff" d=" M 132.50 99.50 C 151.92 99.50 171.33 99.50 190.75 99.50 C 190.75 106.67 190.74 113.83 190.75 121.00 C 171.33 121.00 151.92 121.00 132.50 121.00 C 132.50 113.83 132.50 106.67 132.50 99.50 Z" />
<path fill="#ffffff" d=" M 281.50 99.50 C 283.08 99.50 284.66 99.50 286.25 99.50 C 286.25 106.67 286.25 113.83 286.25 121.00 C 284.66 121.00 283.08 121.00 281.50 121.00 C 281.50 113.83 281.50 106.67 281.50 99.50 Z" />
<path fill="#ffffff" d=" M 289.50 99.50 C 301.92 99.50 314.33 99.50 326.75 99.50 C 326.74 101.54 326.75 103.59 326.76 105.63 C 328.25 105.21 329.74 104.79 331.23 104.37 C 331.26 109.91 331.24 115.46 331.25 121.00 C 317.33 121.00 303.42 121.00 289.50 121.00 C 289.50 113.83 289.50 106.67 289.50 99.50 Z" />
<path fill="#ffffff" d=" M 401.25 121.00 C 401.25 113.83 401.25 106.67 401.25 99.50 C 413.50 99.50 425.75 99.50 438.00 99.50 C 437.99 101.54 437.99 103.59 438.00 105.63 C 439.49 105.21 440.98 104.79 442.48 104.37 C 442.51 109.91 442.49 115.46 442.50 121.00 C 428.75 121.00 415.00 121.00 401.25 121.00 Z" />
<path fill="#ffffff" d=" M 681.50 99.50 C 683.16 99.50 684.82 99.50 686.50 99.50 C 686.50 106.67 686.50 113.83 686.50 121.00 C 684.82 121.00 683.16 121.00 681.50 121.00 C 681.50 113.83 681.50 106.67 681.50 99.50 Z" />
<path fill="#ffffff" d=" M 689.75 99.50 C 701.08 99.50 712.41 99.50 723.74 99.50 C 723.74 101.54 723.74 103.59 723.76 105.63 C 725.24 105.21 726.74 104.79 728.23 104.37 C 728.26 109.91 728.24 115.46 728.25 121.00 C 715.41 121.00 702.58 121.00 689.75 121.00 C 689.75 113.83 689.75 106.67 689.75 99.50 Z" />
<path fill="#ffffff" d=" M 866.25 121.00 C 866.25 113.83 866.24 106.67 866.25 99.50 C 879.00 99.50 891.74 99.50 904.49 99.50 C 904.48 101.54 904.49 103.59 904.52 105.63 C 906.01 105.21 907.49 104.80 909.00 104.37 C 909.00 109.91 909.00 115.46 909.00 121.00 C 894.75 121.00 880.50 121.00 866.25 121.00 Z" />
<path fill="#ffffff" d=" M 998.90 99.56 C 1009.43 99.43 1019.96 99.53 1030.50 99.50 C 1030.49 101.81 1030.49 104.11 1030.50 106.42 C 1028.99 106.72 1027.49 107.03 1026.00 107.35 C 1025.99 110.52 1025.99 113.69 1026.01 116.87 C 1027.49 116.54 1028.99 116.24 1030.50 115.91 C 1030.48 117.61 1030.48 119.30 1030.50 121.00 C 1019.75 121.00 1009.00 121.00 998.25 121.00 C 998.24 118.64 998.24 116.27 998.25 113.91 C 996.83 114.31 995.40 114.68 994.00 115.08 C 993.99 110.62 993.99 106.15 994.01 101.68 C 995.72 101.21 997.63 100.95 998.90 99.56 Z" />
<path fill="#ffffff" d=" M 1033.50 99.50 C 1035.48 99.50 1037.48 99.50 1039.50 99.50 C 1039.48 101.05 1039.48 102.60 1039.50 104.14 C 1037.50 104.62 1035.49 105.12 1033.52 105.60 C 1033.49 103.57 1033.49 101.53 1033.50 99.50 Z" />
<path fill="#ffffff" d=" M 1042.49 99.50 C 1047.16 99.50 1051.82 99.50 1056.50 99.50 C 1056.50 106.67 1056.49 113.83 1056.50 121.00 C 1051.83 121.00 1047.16 121.00 1042.50 121.00 C 1042.50 118.38 1042.49 115.77 1042.48 113.15 C 1043.97 112.72 1045.48 112.30 1047.00 111.87 C 1046.99 108.72 1046.99 105.56 1047.00 102.41 C 1045.50 102.73 1044.00 103.05 1042.52 103.38 C 1042.52 102.41 1042.50 100.47 1042.49 99.50 Z" />
<path fill="#ffffff" d=" M 1059.75 99.50 C 1061.32 99.50 1062.90 99.50 1064.50 99.50 C 1064.50 106.67 1064.49 113.83 1064.50 121.00 C 1062.90 121.00 1061.32 121.00 1059.75 121.00 C 1059.75 113.83 1059.75 106.67 1059.75 99.50 Z" />
<path fill="#ffffff" d=" M 651.49 104.10 C 653.49 103.55 655.48 102.97 657.49 102.41 C 657.50 106.82 657.48 111.23 657.51 115.63 C 655.50 116.12 653.50 116.62 651.51 117.10 C 651.49 112.77 651.51 108.44 651.49 104.10 Z" />
<path fill="#ffffff" d=" M 804.23 104.11 C 806.23 103.53 808.23 102.97 810.24 102.41 C 810.25 106.82 810.23 111.22 810.26 115.63 C 808.25 116.12 806.24 116.61 804.24 117.11 C 804.25 112.78 804.26 108.44 804.23 104.11 Z" />
<path fill="#ffffff" d=" M 984.74 104.15 C 986.81 103.55 988.90 102.96 991.00 102.37 C 990.99 106.80 991.01 111.23 990.99 115.66 C 988.90 116.15 986.83 116.63 984.76 117.10 C 984.74 112.78 984.76 108.47 984.74 104.15 Z" />
<path fill="#ffffff" d=" M 31.06 120.94 C 32.18 115.92 35.79 111.73 40.64 109.98 C 41.49 113.64 42.21 117.32 42.99 120.99 C 39.02 121.00 35.04 121.04 31.06 120.94 Z" />
<path fill="#ffffff" d=" M 43.54 109.53 C 50.42 109.61 56.62 114.34 58.46 120.96 C 54.22 121.03 49.97 120.99 45.73 121.00 C 44.96 117.18 44.21 113.37 43.54 109.53 Z" />
<path fill="#ffffff" d=" M 1033.48 115.12 C 1035.47 114.63 1037.48 114.13 1039.49 113.65 C 1039.49 116.10 1039.49 118.55 1039.50 121.00 C 1037.49 121.00 1035.49 121.00 1033.51 121.00 C 1033.49 119.04 1033.49 117.08 1033.48 115.12 Z" />
<path fill="#ffffff" d=" M 0.00 122.75 C 3.37 122.75 6.73 122.75 10.10 122.76 C 12.96 132.41 20.47 140.34 29.88 143.88 C 19.92 143.60 9.96 143.82 0.00 143.75 L 0.00 122.75 Z" />
<path fill="#ffffff" d=" M 15.39 122.77 C 19.05 122.74 22.71 122.75 26.37 122.75 C 28.24 128.37 32.63 133.02 38.31 134.84 C 38.44 134.45 38.70 133.67 38.83 133.27 C 34.77 131.11 31.57 127.52 31.03 122.78 C 35.10 122.73 39.16 122.76 43.23 122.75 C 44.39 128.81 45.55 134.86 46.78 140.90 C 39.01 142.80 30.42 141.67 23.92 136.83 C 18.97 133.84 16.39 128.27 15.39 122.77 Z" />
<path fill="#ffffff" d=" M 46.23 122.75 C 50.44 122.75 54.64 122.74 58.84 122.76 C 59.38 129.79 55.89 136.72 49.58 140.01 C 48.39 134.27 47.33 128.51 46.23 122.75 Z" />
<path fill="#ffffff" d=" M 65.16 122.74 C 83.86 122.78 102.55 122.74 121.25 122.75 C 121.25 129.75 121.25 136.75 121.25 143.75 C 100.50 143.75 79.76 143.75 59.02 143.75 C 55.86 143.75 52.67 143.95 49.56 143.30 C 57.43 139.16 64.52 132.08 65.16 122.74 Z" />
<path fill="#ffffff" d=" M 124.50 122.75 C 126.08 122.75 127.66 122.75 129.25 122.75 C 129.25 129.75 129.25 136.75 129.25 143.75 C 127.66 143.75 126.08 143.75 124.50 143.75 C 124.50 136.75 124.50 129.75 124.50 122.75 Z" />
<path fill="#ffffff" d=" M 132.50 122.75 C 151.92 122.75 171.33 122.75 190.75 122.75 C 190.75 129.75 190.75 136.75 190.75 143.75 C 171.33 143.75 151.92 143.75 132.50 143.75 C 132.50 136.75 132.50 129.75 132.50 122.75 Z" />
<path fill="#ffffff" d=" M 194.00 122.75 C 195.58 122.75 197.17 122.75 198.75 122.76 C 198.75 129.75 198.75 136.75 198.75 143.75 C 197.16 143.75 195.58 143.75 194.00 143.75 C 194.00 136.75 194.00 129.75 194.00 122.75 Z" />
<path fill="#ffffff" d=" M 202.00 122.75 C 227.42 122.75 252.83 122.75 278.25 122.75 C 278.25 129.75 278.25 136.75 278.25 143.75 C 252.83 143.75 227.42 143.75 202.00 143.75 C 202.00 136.75 202.00 129.75 202.00 122.75 Z" />
<path fill="#ffffff" d=" M 281.50 122.75 C 283.08 122.75 284.66 122.75 286.25 122.75 C 286.25 129.75 286.25 136.75 286.25 143.75 C 284.66 143.75 283.08 143.75 281.50 143.75 C 281.50 136.75 281.50 129.75 281.50 122.75 Z" />
<path fill="#ffffff" d=" M 289.50 122.75 C 323.00 122.75 356.50 122.75 390.00 122.75 C 390.00 129.75 390.00 136.75 390.00 143.75 C 356.50 143.74 323.00 143.75 289.50 143.75 C 289.50 136.75 289.50 129.75 289.50 122.75 Z" />
<path fill="#ffffff" d=" M 393.25 122.75 C 394.83 122.75 396.41 122.75 398.00 122.75 C 398.00 129.75 398.00 136.75 398.00 143.75 C 396.41 143.75 394.83 143.75 393.25 143.75 C 393.25 136.75 393.25 129.75 393.25 122.75 Z" />
<path fill="#ffffff" d=" M 401.25 143.75 C 401.25 136.75 401.25 129.75 401.25 122.75 C 441.50 122.75 481.75 122.75 522.00 122.75 C 522.00 129.75 522.00 136.75 522.00 143.75 C 514.02 144.07 505.86 143.07 498.00 144.31 C 496.07 143.52 493.97 143.82 491.96 143.77 C 461.72 143.73 431.49 143.76 401.25 143.75 Z" />
<path fill="#ffffff" d=" M 525.25 122.75 C 526.91 122.75 528.57 122.75 530.25 122.75 C 530.25 129.75 530.25 136.75 530.25 143.75 C 528.57 143.75 526.91 143.75 525.25 143.75 C 525.25 136.75 525.25 129.75 525.25 122.75 Z" />
<path fill="#ffffff" d=" M 533.50 122.75 C 570.33 122.75 607.17 122.75 644.00 122.75 C 643.99 124.70 643.99 126.65 644.00 128.61 C 645.49 128.30 646.99 127.98 648.49 127.67 C 648.50 133.03 648.49 138.39 648.50 143.75 C 610.16 143.74 571.83 143.75 533.50 143.75 C 533.50 136.75 533.50 129.75 533.50 122.75 Z" />
<path fill="#ffffff" d=" M 660.49 124.65 C 666.08 122.00 672.27 122.85 678.25 122.76 C 678.25 129.75 678.25 136.75 678.25 143.75 C 669.32 143.73 660.40 143.79 651.48 143.72 C 651.52 138.10 651.49 132.48 651.50 126.86 C 653.49 126.38 655.48 125.88 657.49 125.40 C 657.51 130.77 657.49 136.13 657.50 141.50 C 658.49 141.50 659.49 141.50 660.50 141.50 C 660.49 135.88 660.51 130.26 660.49 124.65 Z" />
<path fill="#ffffff" d=" M 681.50 122.75 C 683.16 122.75 684.82 122.75 686.50 122.75 C 686.50 129.75 686.49 136.75 686.50 143.75 C 684.83 143.74 683.15 143.75 681.50 143.75 C 681.50 136.75 681.50 129.75 681.50 122.75 Z" />
<path fill="#ffffff" d=" M 689.75 122.75 C 725.42 122.75 761.08 122.75 796.74 122.75 C 796.74 124.72 796.74 126.68 796.77 128.64 C 798.25 128.31 799.74 127.98 801.24 127.64 C 801.25 133.01 801.24 138.38 801.25 143.75 C 764.08 143.75 726.92 143.75 689.75 143.75 C 689.75 136.75 689.75 129.75 689.75 122.75 Z" />
<path fill="#ffffff" d=" M 813.25 124.70 C 814.88 124.09 816.58 123.63 818.16 122.86 C 830.43 122.62 842.72 122.82 855.00 122.75 C 855.00 129.75 855.00 136.75 855.00 143.75 C 838.08 143.75 821.17 143.75 804.25 143.75 C 804.25 138.12 804.25 132.49 804.25 126.86 C 806.24 126.37 808.23 125.88 810.24 125.39 C 810.26 130.76 810.24 136.13 810.25 141.50 C 811.00 141.50 812.50 141.50 813.25 141.50 C 813.25 135.90 813.25 130.30 813.25 124.70 Z" />
<path fill="#ffffff" d=" M 858.25 122.75 C 859.82 122.75 861.40 122.75 863.00 122.75 C 863.00 129.75 863.00 136.75 863.00 143.75 C 861.40 143.75 859.82 143.75 858.25 143.75 C 858.25 136.75 858.25 129.75 858.25 122.75 Z" />
<path fill="#ffffff" d=" M 866.25 122.75 C 903.33 122.75 940.41 122.75 977.49 122.75 C 977.49 124.71 977.49 126.67 977.52 128.63 C 979.00 128.30 980.50 127.98 982.00 127.65 C 982.00 133.02 982.00 138.38 982.00 143.75 C 943.42 143.75 904.83 143.75 866.25 143.75 C 866.25 136.75 866.25 129.75 866.25 122.75 Z" />
<path fill="#ffffff" d=" M 994.00 124.68 C 995.65 124.10 997.37 123.60 998.97 122.83 C 1009.47 122.65 1019.98 122.80 1030.50 122.75 C 1030.49 126.17 1030.49 129.59 1030.50 133.01 C 1031.25 133.00 1032.76 132.99 1033.51 132.99 C 1033.49 129.58 1033.49 126.16 1033.50 122.75 C 1035.49 122.75 1037.49 122.75 1039.50 122.75 C 1039.49 125.17 1039.49 127.58 1039.49 129.99 C 1040.25 130.00 1041.75 130.00 1042.50 130.00 C 1042.49 127.58 1042.50 125.17 1042.50 122.75 C 1047.16 122.75 1051.83 122.75 1056.50 122.75 C 1056.50 129.75 1056.50 136.75 1056.50 143.75 C 1032.58 143.75 1008.67 143.75 984.75 143.75 C 984.75 138.12 984.75 132.49 984.75 126.86 C 986.83 126.38 988.91 125.90 991.00 125.39 C 991.00 130.77 990.99 136.14 991.01 141.51 C 991.75 141.51 993.25 141.50 994.00 141.50 C 994.00 135.89 994.00 130.29 994.00 124.68 Z" />
<path fill="#ffffff" d=" M 1059.75 122.75 C 1061.32 122.75 1062.90 122.75 1064.50 122.75 C 1064.50 129.75 1064.50 136.75 1064.50 143.75 C 1062.90 143.75 1061.32 143.75 1059.75 143.75 C 1059.75 136.75 1059.75 129.75 1059.75 122.75 Z" />
</svg>
