<!-- Generated by IcoMoon.io -->
<svg version="1.1" xmlns="http://www.w3.org/2000/svg" width="32" height="32" viewBox="0 0 32 32">
<title>uniE126</title>
<path d="M15.813 9.188q2.063-0.188 3.813-1.313l-1.875 6.938q-0.188 0.188-0.5 0.406t-0.625 0.531q-0.75 0.563-1.375 0.563-0.25 0-0.438-0.25 0.188-0.563 0.25-1.188v-0.25q0-0.938-0.563-1.563-0.625-0.75-1.75-0.875-2.438 0.313-2.563 2.75 0.125 1.25 1.063 2.063 1 0.813 2.25 0.813 2-0.188 3.813-1.313l-3.375 12h1.25l6.688-23.938h-0.688q-1.125 2.063-3.188 3l-0.375 0.125q-0.313 0-0.5-0.375l0.063-0.375q0.188-0.25 0.188-0.938 0-1.125-0.813-1.813-0.813-0.75-1.875-0.625-2.125 0.625-2.125 2.688 0 1.25 1 2.063 0.938 0.75 2.25 0.875z"></path>
</svg>
