<!-- Generated by IcoMoon.io -->
<svg version="1.1" xmlns="http://www.w3.org/2000/svg" width="32" height="32" viewBox="0 0 32 32">
<title>uniE120</title>
<path d="M23 19.063q0.375-1.313 0.375-2.688-0.063-2.688-1.938-4.938-1.125-1.438-3.438-3.438-0.875-0.875-1.125-1.75-0.25-0.813-0.25-1.688h-0.688v21.188q-0.813-0.75-2.313-0.625-1.813 0.125-3.438 1.375-1.75 1.313-1.813 3.063 0 1.063 0.875 1.75 0.688 0.625 1.875 0.625 2 0 3.625-1.25 1.813-1.313 1.875-3.25v-12q1.563 1.063 2.875 1.813 1.438 0.875 2.5 2 0.688 0.75 0.875 1.563t0.188 1.813q0 0.938-0.313 2.375-0.438 1.125-0.938 1.938h0.5q1.063-1.625 1.313-3.813v-2.063q-0.188-1.188-0.625-2zM22.563 18.375q-0.375-0.625-0.625-0.938l-1.188-1.313q-0.438-0.375-1.563-1.5-1.063-0.875-1.75-2.188-0.688-1.25-0.813-2.813 2.5 1.313 4.313 3.313 1.5 1.563 1.688 3.688 0 1.125-0.063 1.75z"></path>
</svg>
