<!-- Generated by IcoMoon.io -->
<svg version="1.1" xmlns="http://www.w3.org/2000/svg" width="32" height="32" viewBox="0 0 32 32">
<title>uniE127</title>
<path d="M18.625 2.688q0-1.188-0.813-1.813-0.75-0.75-1.875-0.563-2.125 0.563-2.188 2.688 0.125 1.25 1.063 2.063 1 0.813 2.25 0.813 2-0.188 3.813-1.313l-1.938 6.813q-0.25 0.375-1.188 1.188-0.75 0.563-1.375 0.563-0.375 0-0.438-0.25l0.25-1.125v-0.25q0-0.813-0.563-1.563-0.688-0.813-1.688-0.875-2.5 0.25-2.625 2.75 0.125 1.25 1 2 0.938 0.75 2.313 0.875 2.063-0.188 3.813-1.313l-1.813 6.875q-0.688 0.688-1.188 1.063-0.75 0.563-1.375 0.563-0.375 0-0.438-0.25 0-0.063 0.25-1.313-0.188-2.188-2.313-2.563-2.5 0.25-2.625 2.75 0.063 1.313 1.063 2.063 0.875 0.813 2.313 0.813 1.938-0.063 3.813-1.313l-3.375 12h1.25l9.063-32.813h-0.563q-1.25 2.063-3.25 3-0.25 0.125-0.375 0.125-0.313 0-0.5-0.375l0.125-0.438q0.25-0.313 0.125-0.875z"></path>
</svg>
