<!-- Generated by IcoMoon.io -->
<svg version="1.1" xmlns="http://www.w3.org/2000/svg" width="32" height="32" viewBox="0 0 32 32">
<title>uniE121</title>
<path d="M21.125 7.938q-1.875-2.063-4.375-3.313v1.25q0 0.5 0.063 0.75 0.313 1.063 1.063 1.75 2.188 1.875 3.563 3.563 1.063 1.313 1.313 1.875 0-0.188 0.094-0.375t0.094-0.375v-1.25q0-1.875-1.813-3.875zM22.688 17.375q-0.188-2.188-1.688-3.875-1.938-2.125-4.25-3.375v0.875q0 0.938 0.625 2.063 0.188 0.25 0.656 1.031t0.969 1.219l1.688 1.563q0.563 0.5 1.188 1.313l0.688 1q0.125-1.375 0.125-1.813zM16.406 4.594l-0.031-0.031v0.063h0.063zM23.75 23.313q-0.063 2.688-1.5 5.313h-0.438q0.188-0.5 0.469-1.156t0.406-1.156q0.5-1.625 0.375-2.688 0-1.125-0.188-1.938-0.188-0.688-0.875-1.688-1.063-1.188-2.563-2-1.875-1.25-2.688-1.75v11.25q0 1.688-1.938 3.188-1.688 1.188-3.813 1.313-1.063 0-1.875-0.688-0.813-0.625-0.813-1.688 0-1.75 1.75-3.125 1.75-1.25 3.438-1.375 0.688 0 1.188 0.125t1.188 0.5v-26.125h0.5l0.25 1.625q0.188 0.625 1.188 1.625 2.188 1.875 3.563 3.563 1.938 2.313 2 5.125 0 1.688-0.438 3.063 0.438 1.313 0.438 2.438 0 1.5-0.438 2.813 0.688 1.313 0.813 3.438z"></path>
</svg>
