<!-- Generated by IcoMoon.io -->
<svg version="1.1" xmlns="http://www.w3.org/2000/svg" width="32" height="32" viewBox="0 0 32 32">
<title>uniE128</title>
<path d="M22.125 2.625l-1.938 6.875q-0.938 1.188-2.125 1.563l-0.375 0.125q-0.313 0-0.5-0.375l0.125-0.313q0.188-0.5 0.125-0.938 0-1.125-0.813-1.875-0.813-0.625-1.938-0.563-2.063 0.563-2.188 2.688 0.125 1.313 1 2.063 1.125 0.813 2.375 0.813 2.063-0.125 3.813-1.313l-1.938 6.813q-0.688 0.813-1.188 1.188-0.75 0.688-1.438 0.563-0.25 0.063-0.438-0.188l0.313-1.125q0-1.125-0.625-1.813-0.625-0.75-1.75-0.875-2.5 0.313-2.563 2.688 0 1.188 1 2.063 1.125 0.813 2.313 0.813 2-0.188 3.813-1.313l-1.875 6.938q-0.438 0.563-1.188 1.063-0.75 0.563-1.375 0.563-0.188 0.063-0.438-0.188l0.313-1.375q-0.188-2.25-2.375-2.5-2.438 0.188-2.563 2.688 0.125 1.375 1.063 2.063 0.875 0.75 2.25 0.875 2-0.188 3.813-1.313l-3.313 11.938h1.25l11.563-41.625h-0.625q-1 1.938-3.188 3-0.25 0.125-0.375 0.125-0.313 0-0.5-0.375l0.125-0.438q0.313-0.375 0.188-0.875 0-1.125-0.813-1.813-0.813-0.75-1.938-0.563-2.063 0.563-2.188 2.625 0.125 1.313 1 2.063 0.938 0.75 2.313 0.875 2-0.188 3.813-1.313z"></path>
</svg>
