<!-- Generated by IcoMoon.io -->
<svg version="1.1" xmlns="http://www.w3.org/2000/svg" width="32" height="38" viewBox="0 -5 32 38">
<title>uniE312</title>
<path d="M22.688 18.688q-0.188-2.125-1.813-3.875-1.938-2.125-4.438-3.375 0.063 1.5 0.875 2.938 0.625 1.188 1.75 2.313-0.438-0.313 1.688 1.5 1.25 1.438 1.188 1.375 0.5 0.625 0.688 1 0.063-0.688 0.063-1.875zM16.813 6.875q0 0.688 0.125 1.063 0.375 1.25 1 1.813 2.188 1.875 3.563 3.563 0.938 1.063 1.313 1.813 0-0.125 0.063-0.313t0.063-0.375v-1.25q0-2.063-1.688-3.875-1.875-2.063-4.438-3.438v1zM16.813 1.313q0 0.688 0.125 1.125 0.375 1.25 1 1.813 2.188 1.75 3.563 3.563 0.688 0.75 1.313 1.813 0-0.188 0.063-0.375t0.063-0.375v-1.25q0-2.063-1.688-3.875-1.875-2.063-4.438-3.438v1zM23.813 24.438q-0.063 1.438-0.406 2.563t-1.094 2.5h-0.438q0.188-0.5 0.469-1.063t0.406-1.063q0.438-1.5 0.375-2.438 0-1.125-0.188-1.875-0.188-0.938-0.875-1.688-1.063-1.188-2.5-2.063l-2.75-1.813v10q-0.25 1.188-0.688 1.844t-1.375 1.344q-1.563 1.188-3.875 1.313-1.188 0-1.875-0.688-0.813-0.563-0.813-1.688 0.125-1.813 1.813-3.063 1.75-1.375 3.5-1.375 0.688-0.063 1.219 0.063t1.219 0.5v-30.5h0.5l0.25 1.688q0.188 0.688 1.188 1.688 2.188 1.875 3.563 3.563 1.938 2.313 2 5.125 0 1.5-0.5 3.125 0.375 0.938 0.5 2.438 0 1.75-0.438 3.125 0.313 1 0.438 2.438 0 1.5-0.438 2.813 0.688 1.313 0.813 3.188z"></path>
</svg>
