<!-- Generated by IcoMoon.io -->
<svg version="1.1" xmlns="http://www.w3.org/2000/svg" width="36" height="32" viewBox="0 0 36 32">
<title>uniE168</title>
<path d="M5.5 15.125q0.25 0.25 0.25 0.938 0 1.75-1.313 3.375-1 1.25-1.813 1.25-0.375 0-0.625-0.313-0.25-0.25-0.25-0.813 0-1.063 0.625-2.313 0.5-1.188 1.375-1.938 0.625-0.5 1.063-0.5 0.375 0 0.688 0.313zM5.563 14.688q-0.25-0.25-0.75-0.25-0.875 0-1.688 0.625-1.063 0.813-1.875 2.188-0.75 1.375-0.75 2.625 0 0.813 0.438 1.25 0.375 0.5 0.938 0.5 0.625 0 1.188-0.375 0.875-0.563 1.875-1.875l-0.188 0.563-0.125 1q0 0.25 0.125 0.5 0.188 0.188 0.5 0.188 0.438 0 1.063-0.438 0.688-0.563 1.125-1.25l-0.313-0.188q-0.438 0.75-0.75 0.938-0.125 0.125-0.313 0.125l-0.125-0.063q-0.063-0.063-0.063-0.188v-0.188l0.188-0.688 1.5-5.25-1.25 0.188-0.25 0.875q-0.188-0.563-0.5-0.813zM12.625 20.625q-0.625 0.313-1.188 0.313-0.75 0-1.25-0.5-0.438-0.563-0.438-1.25 0-1 0.625-2.375 0.563-0.938 1.313-1.5t1.5-0.563q0.375 0 0.625 0.188l0.125 0.25v0.188l-0.25 0.25-0.25 0.313-0.063 0.25q0 0.188 0.188 0.375t0.375 0.188q0.25 0 0.563-0.313 0.25-0.25 0.25-0.813t-0.375-0.813q-0.438-0.375-1.25-0.375-1.125 0-2.188 0.688-1.188 0.813-1.813 1.875t-0.625 2.313q0 1 0.563 1.688 0.75 0.625 1.75 0.625 0.875 0 1.688-0.5 0.813-0.375 1.625-1.375l-0.188-0.188q-0.813 0.813-1.313 1.063zM19.625 20.625q-0.625 0.313-1.188 0.313-0.688 0-1.188-0.5-0.438-0.438-0.438-1.25 0-1.188 0.625-2.375 0.438-0.875 1.25-1.5 0.75-0.563 1.5-0.563 0.438 0 0.625 0.188 0.188 0.063 0.188 0.25l-0.063 0.188-0.25 0.25q-0.188 0.188-0.188 0.313-0.063 0.063-0.063 0.25 0 0.25 0.125 0.375 0.188 0.188 0.438 0.188 0.313 0 0.5-0.313 0.313-0.313 0.313-0.813 0-0.563-0.438-0.813-0.375-0.375-1.25-0.375-1 0-2.188 0.688-1 0.688-1.813 1.875-0.625 1.063-0.625 2.313 0 1.063 0.625 1.688t1.688 0.625q0.875 0 1.75-0.5 0.625-0.313 1.625-1.375l-0.25-0.188q-0.813 0.813-1.313 1.063zM25.313 15.625q1-0.813 1.688-0.813 0.375 0 0.563 0.188 0.25 0.25 0.25 0.563 0 0.438-0.5 1.125-0.375 0.5-1.438 1-0.813 0.375-1.875 0.438 0.5-1.688 1.313-2.5zM26.375 18q1.438-0.5 2-1.25 0.5-0.5 0.5-1.188 0-0.438-0.375-0.813-0.438-0.313-1.188-0.313-1.188 0-2.25 0.688-1.125 0.688-1.75 1.875-0.75 1.125-0.75 2.313 0 0.875 0.563 1.563 0.688 0.75 1.75 0.75 1.625 0 3.438-1.813l-0.125-0.25q-1.188 0.875-1.563 1-0.438 0.25-1.063 0.25-0.563 0-1.188-0.5-0.438-0.438-0.438-1.188 0-0.375 0.063-0.625 1.75-0.188 2.375-0.5zM31.688 11.125q0.375 0 0.5 0.125t0.125 0.313l-0.25 1-2.125 7.25-0.25 1.125q0 0.125 0.25 0.5 0.188 0.188 0.438 0.188 0.375 0 0.875-0.313 0.563-0.313 1.375-1.438l-0.25-0.25q-0.25 0.438-0.813 1l-0.313 0.125-0.188-0.063q-0.063-0.063-0.063-0.188l0.188-0.875 2.625-9.188-2.625 0.438v0.313zM34.25 20.25q-0.188 0.25-0.188 0.563 0 0.375 0.188 0.563 0.375 0.25 0.563 0.25t0.563-0.25q0.25-0.25 0.25-0.563 0-0.188-0.25-0.563-0.188-0.188-0.563-0.188-0.25 0-0.563 0.188z"></path>
</svg>
