<!-- Generated by IcoMoon.io -->
<svg version="1.1" xmlns="http://www.w3.org/2000/svg" width="32" height="32" viewBox="0 0 32 32">
<title>uniE145</title>
<path d="M17.938 12.563q-0.688-0.313-1.375-0.438v9.75q-0.125 1.25-1.25 2.125-1 0.688-2.313 0.813v0q-0.625 0-1.313-0.438-0.563-0.5-0.563-1.25 0.063-1.188 1.188-2 1.063-0.75 2.25-0.875h0.313q0.563 0 1.063 0.25v-13.313h0.625v0.125l0.188 1.438q0.188 0.625 0.875 1.563l1 1.063 1.25 1.5q0.813 1.25 1 2.875 0 1.375-0.563 2.688-0.688 1.563-0.938 1.938v0.063h-0.5l0.063-0.125 0.625-1.563 0.063-0.25q0.438-0.875 0.438-2.313-0.125-1.438-0.938-2.563v0l-0.125-0.188q-0.5-0.563-1.063-0.875z"></path>
</svg>
