<!-- Generated by IcoMoon.io -->
<svg version="1.1" xmlns="http://www.w3.org/2000/svg" width="32" height="32" viewBox="0 0 32 32">
<title>uniE248</title>
<path d="M15.563 1.563q1.063 1.063 1.375 2.75-0.25 1.875-2.25 3.375-2.063 1.438-2.375 3.625 0.313 1.313 1.313 2.625 0.938 1.125 1.875 2.063h-0.188q1.125 1.25 1.375 2.75-0.375 1.875-2.25 3.375-2.063 1.375-2.375 3.625 0.25 1.313 1.25 2.563 0.688 0.875 2 2.188h1q-1.125-1.5-1.313-2.688 0.375-1.875 2.25-3.313 2.063-1.563 2.375-3.688-0.25-1.375-1.25-2.625l-2-2.125h0.25q-1.25-1.5-1.313-2.688 0.375-1.938 2.25-3.313 2.063-1.625 2.375-3.688-0.25-1.438-1.313-2.625-0.375-0.563-2-2.188-0.188-0.063-1.063 0z"></path>
</svg>
