<!-- Generated by IcoMoon.io -->
<svg version="1.1" xmlns="http://www.w3.org/2000/svg" width="32" height="32" viewBox="0 0 32 32">
<title>uniE194</title>
<path d="M12.75 19.063q1.875-1.563 3.063-3.688 0.563-0.938 1-2.375 0.438-1.25 0.438-2.438 0-1.875-0.5-2.875-0.5-0.813-1.188-1.25-0.813-0.5-1.875-0.375-0.5 0.063-1.5 0.313-0.688 0.25-1.063 0.625-0.25 0.188-0.688 0.938l-0.063 0.188q0 0.375 0.625 0.5 0.375 0 0.813-0.188 0.938 0 1.438 0.5 0.625 0.5 0.625 1.25t-0.563 1.313q-0.563 0.625-1.625 0.625-1.125 0-1.813-0.625-0.688-0.688-0.75-1.625 0-1.063 0.563-2.063 0.625-0.875 1.688-1.563 0.875-0.438 1.438-0.563 0.563-0.188 1.563-0.313 2.125-0.125 3.938 1.375 0.938 0.75 1.375 1.563 0.438 0.938 0.5 2.125 0.188 1.938-1.063 4.125-1.188 2.125-2.813 3.438-1.188 0.875-3.563 2.375-2.375 1.313-4.063 2.063l-0.125-0.438q3.063-2 4.188-2.938zM0.188 26.438h31.625v0.25h-31.625v-0.25zM0.188 21.125h31.625v0.25h-31.625v-0.25zM0.188 15.875h31.625v0.25h-31.625v-0.25zM0.188 10.625h31.625v0.25h-31.625v-0.25zM21.063 12.875q0-1 1.188-1.125 1.125 0.063 1.125 1.125 0 0.5-0.313 0.813t-0.813 0.375q-1.188-0.125-1.188-1.188zM0.188 5.313h31.625v0.25h-31.625v-0.25zM21.063 8.25q0-1 1.188-1.188 1.125 0.188 1.125 1.188t-1.125 1.125q-1.188-0.125-1.188-1.125z"></path>
</svg>
