<!-- Generated by IcoMoon.io -->
<svg version="1.1" xmlns="http://www.w3.org/2000/svg" width="32" height="32" viewBox="0 0 32 32">
<title>uniE192</title>
<path d="M31.813 5.313v0.25h-31.625v-0.25h31.625zM31.813 10.625v0.25h-31.625v-0.25h31.625zM31.813 15.875v0.25h-31.625v-0.25h31.625zM31.813 21.125v0.25h-31.625v-0.25h31.625zM31.813 26.438v0.25h-31.625v-0.25h31.625zM6.5 7.5l-1.438 0.375v-3.125l1.438-0.438v3.188zM4.313 2.375l-1.063 0.313v2.25l1.063-0.313v3.188l-1.063 0.25v2.25l1.063-0.25v4.125h0.75v-4.25l1.438-0.375v3.938h0.688v-4.125l1.063-0.25v-2.313l-1.063 0.313v-3.188l1.063-0.25v-2.25l-1.063 0.25v-4.125h-0.688v4.25l-1.438 0.438v-4.188h-0.75v4.313zM13.375 14.375l-1.438 0.375v-3.125l1.438-0.375v3.125zM11.25 4.938v4.375l-1.125 0.25v2.25l1.125-0.313v3.188l-1.125 0.25v2.313l1.125-0.25v4.125h0.688v-4.313l1.438-0.375v3.938h0.688v-4.063l1.063-0.313v-2.313l-1.063 0.313v-3.188l1.063-0.25v-2.25l-1.063 0.25v-4.125h-0.688v4.313l-1.438 0.375v-4.188h-0.688zM20.375-1.5l1.063-0.313v2.25l-1.063 0.25v3.188l1.063-0.313v2.313l-1.063 0.313v4.063h-0.688v-3.938l-1.5 0.375v4.313h-0.688v-4.125l-1.063 0.25v-2.313l1.063-0.25v-3.188l-1.063 0.313v-2.25l1.063-0.25v-4.313h0.688v4.125l1.5-0.375v-4.313h0.688v4.188zM19.688 4.25v-3.125l-1.5 0.375v3.125z"></path>
</svg>
