<!-- Generated by IcoMoon.io -->
<svg version="1.1" xmlns="http://www.w3.org/2000/svg" width="32" height="32" viewBox="0 0 32 32">
<title>uniE191</title>
<path d="M3.938 26.375q0-0.375 0.438-0.375 0.75 0 0.75-0.625v-1.125h-3.438q-0.125 0-0.25-0.125t-0.125-0.25l0.063-0.188v-0.063l0.125-0.125q0.813-1.063 1.594-2.594t0.781-3.031q0-0.375 0.438-0.375l1.313 0.063 1.25-0.063q0.25 0 0.25 0.25v0.125q-0.063 0.25-1.813 2.531t-2.688 3.094h2.5v-1.563q0-0.313 0.188-0.375l1.75-2.125q0.125-0.188 0.375-0.188 0.188 0 0.188 0.313v3.938h1.375q0.25 0 0.25 0.375 0 0.313-0.25 0.313h-1.375v1.125q0 0.688 0.563 0.688 0.125 0 0.281 0.094t0.156 0.281q0 0.375-0.375 0.375h-3.938q-0.375 0-0.375-0.375zM0.188 26.438h31.625v0.25h-31.625v-0.25zM0.188 21.125h31.625v0.25h-31.625v-0.25zM2 12.438q0-0.688 0.438-1.125 0.313-0.375 0.875-0.5h0.188q0.375 0 0.75 0.219t0.5 0.531q0.063 0.188 0.063 0.563 0 0.313-0.188 0.688t-0.188 0.563v0.063q0 0.313 0.5 0.313h0.188q0.5 0 0.938-0.438t0.438-1.688q0-0.5-0.469-1.094t-1.844-0.594q-0.438 0-0.438-0.25 0-0.125 0.156-0.219t0.281-0.094q2.25-0.125 2.25-1.938v-0.125q0-1.438-1.688-1.438-0.188 0-0.469 0.125t-0.344 0.313v0.125q0 0.188 0.156 0.219t0.219 0.031q0.563 0 0.625 0.75v0.125q0 0.5-0.344 0.844t-0.906 0.344h-0.063q-0.75-0.063-1.125-0.5t-0.375-1q0-0.688 1-1.344t2.188-0.656h0.25q1 0.063 2.063 0.594t1.063 1.656q0 0.75-0.438 1.188-0.188 0.25-0.688 0.5-0.063 0.063-0.625 0.188l-0.063 0.188 0.063 0.063q0 0.063 0.125 0.063l0.625 0.188 0.375 0.25q0.313 0.125 0.5 0.375 0.25 0.188 0.313 0.5 0.063 0.063 0.188 0.813v0.125q0 1.188-1.125 1.875t-2.625 0.688h-0.125q-3.125-0.125-3.188-2.063zM0.188 15.875h31.625v0.25h-31.625v-0.25zM0.188 10.625h31.625v0.25h-31.625v-0.25zM0.188 5.313h31.625v0.25h-31.625v-0.25z"></path>
</svg>
