<!-- Generated by IcoMoon.io -->
<svg version="1.1" xmlns="http://www.w3.org/2000/svg" width="32" height="32" viewBox="0 0 32 32">
<title>uniE178</title>
<path d="M3.875 15.563h25.375v19.438h-25.375v-19.438zM8.813 16.063h0.688v18.5h-0.688v-18.5zM4.375 29.563h24.313v0.75h-24.313v-0.75zM13.625 16.063h0.75v18.5h-0.75v-18.5zM1.75 11.563l0.563-0.5 3.5 3.438-0.563 0.563zM1.75 14.5l3.5-3.438 0.563 0.5-3.5 3.5zM4.375 25.313h24.313v0.813h-24.313v-0.813zM28.5 34.25v-17.938h-23.875v17.938h23.875zM18.5 16.063h0.75v18.5h-0.75v-18.5zM4.125 20.875h24.563v0.75h-24.563v-0.75zM22.625 29.156q-0.438-0.406-0.438-1.031t0.438-1.063 1.063-0.438q0.688 0 1.125 0.438t0.438 1.063-0.438 1.031-1.125 0.406q-0.625 0-1.063-0.406zM17.875 24.313q-0.438-0.438-0.438-1.063t0.438-1.031 1.063-0.406 1.063 0.406 0.438 1.031-0.438 1.063-1.063 0.438-1.063-0.438zM7.063 11.563l0.563-0.5 3.438 3.438-0.5 0.563zM7.063 14.5l3.5-3.438 0.5 0.5-3.438 3.5zM23.25 16.063h0.75v18.5h-0.75v-18.5zM27.938 16.313v0zM12.375 14.313q-0.563-0.563-0.563-1.25 0-0.813 0.563-1.344t1.25-0.531q0.813 0 1.375 0.531t0.563 1.344q0 0.688-0.563 1.25t-1.375 0.563q-0.688 0-1.25-0.563zM14.469 13.813q0.344-0.313 0.344-0.75 0-0.5-0.344-0.844t-0.844-0.344q-0.375 0-0.719 0.375t-0.344 0.813 0.344 0.75 0.719 0.313q0.5 0 0.844-0.313zM27.75 24.313q-0.438-0.438-0.438-1.063t0.438-1.031 1-0.406q0.688 0 1.125 0.406t0.438 1.031-0.469 1.063-1.094 0.438q-0.563 0-1-0.438zM13.375 0.25h1.875q0.5 0 2 0.188 0.188 0.063 0.563 0.219t0.625 0.344q0.75 0.438 1.25 1.375 0.375 0.75 0.375 2.25 0 1.313-0.375 2.125-0.563 1-1.25 1.438-0.375 0.25-0.781 0.438t-0.594 0.25l-1.75 0.063h-1.938v-8.688zM16.75 7.813q0.313 0 1.063-0.5 0.563-0.313 0.813-1.063 0.313-0.5 0.313-1.625 0-1.188-0.313-1.75-0.25-0.625-0.938-1.125-0.188-0.063-0.5-0.188t-0.563-0.125q-0.625-0.25-1.313-0.25h-0.813v6.813h0.813q0.125 0 1.438-0.188z"></path>
</svg>
