<!-- Generated by IcoMoon.io -->
<svg version="1.1" xmlns="http://www.w3.org/2000/svg" width="32" height="32" viewBox="0 0 32 32">
<title>uniE217</title>
<path d="M19 20.063q-0.313 1.063-0.875 1.625-0.625 0.75-1.563 0.75v-5.75h2.813q0.125 1.188-0.375 3.375zM13.688 21.688q-0.625-0.625-0.813-1.625-0.438-2.188-0.375-3.375h2.625v5.75q-0.875 0-1.438-0.75zM13.688 10.313q0.563-0.75 1.438-0.75v5.938h-2.625q-0.063-1.313 0.375-3.563 0.188-0.875 0.813-1.625zM19 11.938q0.5 2.25 0.375 3.563h-2.813v-5.938q0.938 0 1.563 0.75 0.563 0.688 0.875 1.625zM21.188 11.188q-1.25-1.938-4.625-2.75v-2.125h-1.438v2.125q-3.188 0.875-4.375 2.75-0.625 0.625-1.125 2.063-0.5 1.313-0.5 2.25h-2.313v1.188h2.313q0 0.813 0.5 2.125 0.563 1.375 1.125 2.063 1.313 1.875 4.375 2.625v2.188h1.438v-2.188q3.188-0.688 4.625-2.625 0.625-0.938 1.063-2.063 0.5-1.313 0.5-2.125h2.438v-1.188h-2.438q0-0.938-0.5-2.25-0.438-1.25-1.063-2.063z"></path>
</svg>
