<!-- Generated by IcoMoon.io -->
<svg version="1.1" xmlns="http://www.w3.org/2000/svg" width="32" height="32" viewBox="0 0 32 32">
<title>uniE165</title>
<path d="M8.938 11.25l1.438-2.563h-1.125q-1.563 2.063-2.438 4.375-0.625 1.813-0.625 3.938 0 2.188 0.875 4.438 0.875 2.063 2.188 3.75h1.125q-2.625-4.063-2.625-8.188 0-1.75 0.438-3.25 0.125-0.875 0.75-2.5zM14.313 3.688h-1.125v18.688l5.063-1.25v7.25h1.125v-18.75l-5.063 1.313v-7.25zM18.25 17.75l-3.938 1v-4.438l3.938-1v4.438zM23.813 13.75l0.375 3.25q0 4.125-2.625 8.188h1.125q1.188-1.438 2.188-3.75 0.938-2.188 0.938-4.438 0-2-0.688-3.938-0.688-2.063-2.438-4.375h-1.125l1.438 2.625z"></path>
</svg>
