<!-- Generated by IcoMoon.io -->
<svg version="1.1" xmlns="http://www.w3.org/2000/svg" width="32" height="32" viewBox="0 0 32 32">
<title>uniE209</title>
<path d="M31.375 23.125v0.875h-30.313v-0.875h30.313zM31.375 19.625v0.875h-30.313v-0.875h30.313zM31.375 16.125v0.875h-30.313v-0.875h30.313zM31.375 12.563v0.875h-30.313v-0.875h30.313zM31.375 9.063v0.875h-30.313v-0.875h30.313zM1.063 9.063v14.938h-0.875v-14.938h0.875zM31.813 9.063v14.938h-0.875v-14.938h0.875zM17.313 9.063v14.938h-0.875v-14.938h0.875zM6.375 1.25v2.625h-3.813v-2.625h3.813zM14.438 1.25v2.625h-3.875v-2.625h3.875zM22.438 1.25v2.625h-3.813v-2.625h3.813zM30 1.25v2.625h-3.813v-2.625h3.813zM6.375 28.063v2.625h-3.813v-2.625h3.813zM14.438 28.063v2.625h-3.875v-2.625h3.875zM22.438 28.063v2.625h-3.813v-2.625h3.813zM30 28.063v2.625h-3.813v-2.625h3.813z"></path>
</svg>
