<!-- Generated by IcoMoon.io -->
<svg version="1.1" xmlns="http://www.w3.org/2000/svg" width="36" height="32" viewBox="0 0 36 32">
<title>uniE224</title>
<path d="M4.75 18.625q-0.625 0.313-1.125 0.313-0.75 0-1.25-0.5-0.438-0.438-0.438-1.25 0-1.188 0.625-2.375 0.625-1 1.25-1.5 0.688-0.5 1.5-0.5 0.5 0 0.625 0.125 0.188 0.063 0.188 0.25 0 0.125-0.063 0.188 0 0.063-0.188 0.25-0.25 0.25-0.25 0.313-0.063 0.063-0.063 0.25 0 0.25 0.125 0.375 0.188 0.188 0.438 0.188 0.313 0 0.5-0.313 0.313-0.313 0.313-0.813 0-0.563-0.438-0.813-0.375-0.375-1.25-0.375-1 0-2.188 0.688-1.063 0.688-1.75 1.875t-0.688 2.313q0 1.063 0.625 1.688t1.688 0.625q0.75 0 1.75-0.438 0.688-0.375 1.625-1.438l-0.25-0.188q-0.688 0.813-1.313 1.063zM8.688 13.063q0.188 0 0.438 0.125l0.125 0.25q0 0.063-0.25 1.188l-1.438 4.813h1.188l0.25-1q0-0.125 0.375-1.063 0.188-0.688 0.563-1.125 0.5-0.938 1.375-1.938 0.375-0.563 0.625-0.625 0.063-0.063 0.188-0.063t0.188 0.063l0.063 0.188q0 0.125 0.125 0.375 0.25 0.125 0.313 0.125 0.375 0 0.563-0.375 0.25-0.438 0.25-1 0-0.188-0.125-0.438-0.25-0.125-0.438-0.125-0.313 0-1 0.5-1.188 0.938-2.438 3.25l1.063-3.75-2.625 0.438 0.063 0.25zM16.063 13.688q0.875-0.875 1.625-0.875 0.375 0 0.625 0.188 0.188 0.25 0.188 0.563 0 0.438-0.5 1.125-0.438 0.563-1.375 1-0.938 0.375-1.875 0.438 0.375-1.625 1.313-2.438zM17.125 16q1.313-0.438 1.938-1.188 0.563-0.688 0.563-1.25 0-0.438-0.438-0.813-0.438-0.313-1.188-0.313-1.125 0-2.188 0.688-1 0.625-1.813 1.875-0.688 1-0.688 2.313 0 0.875 0.563 1.563 0.563 0.75 1.688 0.75 1.563 0 3.5-1.813l-0.188-0.25q-1.25 0.875-1.5 1-0.5 0.25-1.063 0.25-0.688 0-1.188-0.5t-0.5-1.125q0-0.438 0.063-0.688 1.813-0.188 2.438-0.5zM24.688 12.813l-0.5-0.188-0.5-0.125q-0.125-0.063-0.438-0.063-0.813 0-1.438 0.5-0.563 0.563-0.563 1.313 0 0.375 0.25 0.813 0.313 0.625 0.875 1.188 0.75 0.938 0.875 1.313 0.125 0.188 0.125 0.563t-0.313 0.813q-0.438 0.313-0.938 0.313-0.875 0-1.188-0.5-0.5-0.5-0.5-1.625h-0.313l-0.438 2.5h0.25q0.188-0.375 0.563-0.375l0.375 0.125q1 0.25 1.313 0.25 1 0 1.688-0.625 0.625-0.625 0.625-1.438 0-0.563-0.25-1.063-0.188-0.25-1.313-1.625-0.438-0.563-0.5-0.688-0.125-0.25-0.125-0.438 0-0.375 0.313-0.688 0.375-0.25 0.75-0.25 0.5 0 1 0.5 0.313 0.438 0.438 1.5h0.25l0.5-2.375h-0.313q-0.188 0.375-0.563 0.375zM30.563 18.625q-0.625 0.313-1.188 0.313-0.75 0-1.25-0.5-0.438-0.563-0.438-1.25 0-1 0.625-2.375 0.563-0.938 1.313-1.5 0.688-0.5 1.5-0.5 0.438 0 0.625 0.125l0.125 0.25q0 0.125-0.063 0.188 0 0.063-0.188 0.25l-0.25 0.313-0.063 0.25q0 0.25 0.188 0.375 0.125 0.188 0.375 0.188t0.563-0.313q0.25-0.25 0.25-0.813t-0.375-0.813q-0.438-0.375-1.25-0.375-1.063 0-2.25 0.688-1.125 0.813-1.75 1.875-0.688 1.188-0.688 2.313 0 0.938 0.625 1.688 0.625 0.625 1.75 0.625 0.813 0 1.688-0.438 0.875-0.5 1.625-1.438l-0.188-0.188q-0.813 0.813-1.313 1.063zM33.75 18.25q-0.25 0.375-0.25 0.563 0 0.313 0.25 0.563 0.375 0.25 0.563 0.25t0.563-0.25q0.25-0.25 0.25-0.563 0-0.188-0.25-0.563-0.25-0.188-0.563-0.188-0.25 0-0.563 0.188z"></path>
</svg>
