<!-- Generated by IcoMoon.io -->
<svg version="1.1" xmlns="http://www.w3.org/2000/svg" width="32" height="32" viewBox="0 0 32 32">
<title>uniE263</title>
<path d="M11.75 13.125l-0.063 12.125h-0.938l0.125-12.125h0.875zM20.438 13.438q0-1.125-0.938-2.188l-2.188 2.125 2.25 2.25q0.875-1.125 0.875-2.188zM16.063 17.063q1.25 0 2.125-0.438l-2.063-2.063-2.125 2.063q0.875 0.438 2.063 0.438zM12.625 15.688l2.25-2.313-2.188-2.188q-0.938 1.063-0.938 2.25 0 1.25 0.875 2.25zM16.063 9.813q-0.938 0-1.938 0.438l2 1.938 1.938-1.938q-1.063-0.438-2-0.438zM19.75 10.281q1.563 1.344 1.563 3.156 0 1.875-1.531 3.219t-3.719 1.344q-2.125 0-3.656-1.344t-1.531-3.219q0-1.813 1.531-3.156t3.656-1.344 3.688 1.344z"></path>
</svg>
