<!-- Generated by IcoMoon.io -->
<svg version="1.1" xmlns="http://www.w3.org/2000/svg" width="32" height="32" viewBox="0 0 32 32">
<title>uniE134</title>
<path d="M24.875 8.375q2.063 1.563 2.188 4.75-0.25 4.875-4.938 8.375v0q-4.563 3.5-9.875 3.625-3.063-0.063-5.25-1.625-1.938-1.875-2.125-4.625 0.375-4.625 5-8.188t9.313-3.75h0.5q3.25 0 5.188 1.438zM22.75 22.375q5-3.75 5.375-9.25-0.125-3.813-2.625-5.563-2.25-1.813-6.313-1.688-5.125 0.25-9.938 3.938-5 3.938-5.375 9 0.063 3.375 2.5 5.5 2.313 1.75 5.813 1.875 5.688-0.063 10.563-3.813zM16.375 19q-0.063-1.563-1.063-2.313-0.938-0.688-2.688-0.688-2.188 0.125-4.25 1.688-2.125 1.688-2.313 3.813 0.125 1.438 1 2.25 1.063 0.75 2.5 0.75 2.375 0 4.5-1.625 2.125-1.563 2.313-3.875z"></path>
</svg>
