<!-- Generated by IcoMoon.io -->
<svg version="1.1" xmlns="http://www.w3.org/2000/svg" width="32" height="32" viewBox="0 0 32 32">
<title>uniE225</title>
<path d="M7.438 18.938q-1.188 1.75-2.063 1.75-0.375 0-0.563-0.313-0.25-0.25-0.25-0.875 0-1.5 1-3.063 1.125-1.625 2.063-1.625 0.375 0 0.688 0.313 0.313 0.25 0.313 0.813 0 1.375-1.188 3zM9.438 11.125q0.313 0 0.375 0.125 0.125 0.063 0.125 0.25 0 0.313-0.063 0.5-0.125 0.25-0.125 0.5l-0.813 2.688q-0.25-0.5-0.563-0.563-0.25-0.188-0.75-0.188-0.813 0-1.688 0.625-1.313 0.938-1.938 2.125-0.75 1.313-0.75 2.5 0 0.938 0.438 1.375 0.375 0.563 1 0.563 0.563 0 1.25-0.5 1-0.75 2-2.375l-0.313 0.938q-0.188 0.75-0.188 1.188 0 0.313 0.125 0.563 0.188 0.188 0.438 0.188 0.438 0 1.063-0.5 0.5-0.438 1.125-1.25l-0.25-0.188q-0.75 0.875-0.875 0.938l-0.25 0.125-0.125-0.063q-0.063-0.063-0.063-0.188l0.188-0.938 2.688-9.125-2.688 0.438v0.313zM13.813 11.563q-0.188 0.25-0.188 0.563 0 0.25 0.188 0.563 0.375 0.25 0.563 0.25t0.563-0.25q0.188-0.313 0.188-0.563 0-0.313-0.188-0.563-0.25-0.188-0.563-0.188-0.25 0-0.563 0.188zM12.5 15.063q0.125 0 0.375 0.125 0.063 0.063 0.063 0.25l-0.188 1.125-1.063 3.438q-0.188 0.625-0.188 0.938t0.25 0.5q0.188 0.188 0.5 0.188 0.5 0 1-0.438 0.625-0.438 1.25-1.313l-0.313-0.188q-0.313 0.563-0.875 1l-0.25 0.063q-0.125 0-0.188-0.063t-0.063-0.188l0.125-0.625 1.563-5.438-2.688 0.438v0.313zM16.625 15.125q0.313 0 0.375 0.125 0.188 0.063 0.188 0.313 0 0.125-0.063 0.188l-0.188 0.688-1.438 5h1.125l0.938-2.75q0.375-0.938 1.125-1.875 0.75-1.063 1.188-1.313 0.313-0.188 0.563-0.188 0.063 0 0.188 0.125t0.125 0.313q0 0.313-0.25 1l-1.313 4.688h1.188q0.375-1.5 1.125-3 0.938-1.813 2-2.75 0.313-0.313 0.688-0.313 0.125 0 0.188 0.063 0.125 0.125 0.125 0.313t-0.063 0.313q0 0.188-0.25 0.938l-0.688 2.5q-0.313 1.25-0.313 1.438 0 0.313 0.188 0.5t0.438 0.188q0.375 0 0.625-0.188 0.25-0.125 0.875-0.75 0.625-0.75 0.688-0.875l-0.25-0.125q-0.438 0.5-0.875 0.875-0.125 0.125-0.25 0.125l-0.125-0.063q-0.063 0-0.063-0.125 0-0.188 0.25-1.125l0.875-3q0.125-0.625 0.125-0.938 0-0.563-0.188-0.75-0.25-0.25-0.625-0.25-0.563 0-1.25 0.5-1 0.813-2.375 3.313l0.563-1.938q0.188-0.688 0.188-1 0-0.375-0.25-0.625t-0.625-0.25q-0.563 0-0.875 0.25-0.563 0.25-1.438 1.375-0.438 0.625-1.125 1.875l1-3.5-2.688 0.5 0.063 0.25zM27.438 20.25q-0.25 0.25-0.25 0.563 0 0.375 0.25 0.563 0.25 0.25 0.563 0.25 0.188 0 0.563-0.25 0.188-0.188 0.188-0.563 0-0.313-0.188-0.563-0.25-0.188-0.563-0.188-0.375 0-0.563 0.188z"></path>
</svg>
