<!-- Generated by IcoMoon.io -->
<svg version="1.1" xmlns="http://www.w3.org/2000/svg" width="32" height="32" viewBox="0 0 32 32">
<title>uniE162</title>
<path d="M14.063 14.938q0.5 0.313 0.5 0.938-0.063 1.125-1.25 1.313l-2 0.375v3.063h3.063l0.438-2.125q0-0.25 0.25-0.75 0.313-0.5 0.938-0.563 1.125 0.063 1.313 1.25l0.25 2.188h3.125v-3.063l-1.875-0.313q-1.188-0.063-1.375-1.25 0.188-1.125 1.25-1.25l2-0.375v-3.063h-3.125l-0.25 2.063q-0.125 1.188-1.313 1.375-0.688-0.125-0.938-0.563-0.313-0.375-0.313-0.75l-0.375-2.125h-3.063v3.063l2 0.25q0.25 0 0.75 0.313z"></path>
</svg>
