<!-- Generated by IcoMoon.io -->
<svg version="1.1" xmlns="http://www.w3.org/2000/svg" width="32" height="32" viewBox="0 0 32 32">
<title>uniE163</title>
<path d="M13.875 19.938q-0.125 1.563-1.188 3-0.625 0.875-2.063 2.563v-5.875q0-0.375 0.625-1 0.563-0.563 1.25-0.563 1.313 0.188 1.375 1.875zM17.188 18.625q0.563-0.563 1.25-0.563 1.25 0.188 1.375 1.875-0.125 1.563-1.188 3-0.5 0.688-1.156 1.438t-0.969 1.125v-5.875q0.063-0.375 0.688-1zM15.438 4.25v13.188q-0.75-0.75-1.75-0.75-1.75 0.188-3.063 1.313v-13.75h-1.125v23.5q1.813-1.813 3.5-3.25 1.188-0.938 2.438-2.375v5.625q1.313-1.375 3.5-3.25 1.5-1.25 2.25-2.063 1.188-1.25 1.25-2.813 0-1.188-0.875-2.063t-1.938-0.875q-1.688 0.188-3.125 1.313v-13.75h-1.063z"></path>
</svg>
