<!-- Generated by IcoMoon.io -->
<svg version="1.1" xmlns="http://www.w3.org/2000/svg" width="38" height="32" viewBox="0 0 38 32">
<title>uniE146</title>
<path d="M36.563 17.063h-0.875v-1.313h-8.063v-0.875h8.938v2.188zM10 15.75h-8.063v1.313h-0.875v-2.188h8.938v0.875zM23.625 10.281q-1.063-0.781-3-0.781-2 0-3.281 1.156t-1.281 2.656q0 0.625 0.375 1.063t1.125 0.438q0.625 0 1.094-0.531t0.469-1.219q0-0.563-0.375-1.063-0.375-0.313-0.375-0.563 0-0.375 0.5-0.688t1.313-0.313q1.75 0 1.75 1.5 0 3-3.438 4.375-2.063 0.875-3.125 2.094t-1.5 2.969l-0.125 0.563q0 0.5 0.563 0.5 0.438 0 0.688-0.625 0.313-0.75 0.875-0.75 0.5 0 1.5 0.563 1.5 0.938 2.875 0.938 1.25 0 1.938-0.75t1.188-2.313q0.188-0.313 0.188-0.438 0-0.438-0.563-0.438-0.188 0-0.5 0.375-0.563 0.75-1.5 0.75-0.563 0-1.375-0.313-1.063-0.313-1.5-0.313-0.5 0-1.375 0.25-0.5 0.25-0.563 0.25-0.125 0-0.125-0.125t0.25-0.5q1.063-1.188 3.25-1.688 5.125-1.063 5.125-4.875 0-1.375-1.063-2.156z"></path>
</svg>
