<!-- Generated by IcoMoon.io -->
<svg version="1.1" xmlns="http://www.w3.org/2000/svg" width="32" height="32" viewBox="0 0 32 32">
<title>uniE119</title>
<path d="M18.375 9.5q-1-1.438-1.313-2.625-0.188-0.75-0.313-2.25h-0.688v21.125q-0.813-0.625-2.313-0.563-1.688 0-3.438 1.375-1.688 1.25-1.813 3.063 0 1.063 0.813 1.688 0.75 0.688 1.938 0.688 2.125-0.125 3.625-1.313 1.688-1.313 1.875-3.188v-15.563q1.063 0.063 2.313 0.813 1.125 0.688 2 1.75 1.375 1.75 1.5 4.125 0 2.063-0.625 3.75-0.563 1.375-1.25 2.813h0.438q0.75-1.25 1.5-3.188 0.875-1.938 0.875-4.063-0.188-2.813-1.938-5z"></path>
</svg>
