<!-- Generated by IcoMoon.io -->
<svg version="1.1" xmlns="http://www.w3.org/2000/svg" width="32" height="32" viewBox="0 0 32 32">
<title>uniE215</title>
<path d="M29.75 5.375v0.25h-29.688v-0.25h29.688zM29.75 10.625v0.25h-29.688v-0.25h29.688zM29.75 15.875v0.25h-29.688v-0.25h29.688zM29.75 21.188v0.25h-29.688v-0.25h29.688zM29.75 26.438v0.25h-29.688v-0.25h29.688zM24.938 31.813h-0.875v-31.625h0.875v31.625zM31.938 31.813h-4.375v-31.625h4.375v31.625zM19.469 10.969q0.656 0.656 0.656 1.531 0 0.938-0.656 1.563t-1.594 0.625q-0.875 0-1.531-0.625t-0.656-1.563q0-0.875 0.656-1.531t1.531-0.656q0.938 0 1.594 0.656zM19.469 17.969q0.656 0.656 0.656 1.594 0 0.875-0.656 1.531t-1.594 0.656q-0.875 0-1.531-0.656t-0.656-1.531q0-0.938 0.656-1.594t1.531-0.656q0.938 0 1.594 0.656z"></path>
</svg>
