<!-- Generated by IcoMoon.io -->
<svg version="1.1" xmlns="http://www.w3.org/2000/svg" width="32" height="32" viewBox="0 0 32 32">
<title>uniE164</title>
<path d="M11.75 12.375l1.5-0.375v3.188l-1.5 0.375v4.5l1.5-0.375v3.25l-1.5 0.438v5.813h-1v-5.563l-2.125 0.5v6.125h-1v-5.875l-1.5 0.313v-3.25l1.5-0.375v-4.5l-1.5 0.375v-3.188l1.5-0.375v-6.188h1v5.938l2.125-0.563v-6.125h1v5.938zM10.75 20.25v-4.5l-2.125 0.563v4.5zM20.563 1.875h-0.938v21.188q1.313-1.5 3.125-3 1.125-0.938 2-1.875 1-1 1.125-2.5 0-1.125-0.75-1.875t-1.75-0.75q-1.563 0.063-2.813 1.188v-12.375zM23.563 15.938q-0.063 1.313-1.125 2.75-1.25 1.625-1.875 2.313v-5.375q0.125-0.375 0.625-0.875t1.125-0.5q1.188 0.188 1.25 1.688z"></path>
</svg>
