<!-- Generated by IcoMoon.io -->
<svg version="1.1" xmlns="http://www.w3.org/2000/svg" width="32" height="32" viewBox="0 0 32 32">
<title>uniE177</title>
<path d="M19.313 12.813l0.375-1.188h-1.5q0.625-2.563 1.688-3.813 0.688-0.75 1.25-0.75 0.125 0 0.188 0.063t0.063 0.188l-0.125 0.375q-0.188 0.25-0.188 0.563 0 0.375 0.25 0.625 0.375 0.25 0.688 0.25 0.438 0 0.75-0.313 0.313-0.438 0.313-0.875 0-0.563-0.438-1-0.438-0.375-1.438-0.375-1.563 0-2.813 0.938-1.188 0.75-2.438 3-0.313 0.563-0.688 0.938-0.375 0.188-1.125 0.188l-0.375 1.188h1.438l-2.063 8.25-0.75 2.5q-0.313 0.688-0.813 1.125-0.188 0.25-0.5 0.25l-0.188-0.063v-0.063q0-0.125 0.125-0.25 0.188-0.125 0.188-0.5 0-0.313-0.25-0.563t-0.75-0.25q-0.563 0-0.875 0.313-0.375 0.25-0.375 0.75 0 0.438 0.438 0.75 0.375 0.375 1.313 0.375 1.438 0 2.438-0.75 1.125-0.75 1.875-2.25 0.875-1.5 1.688-4.875l1.188-4.75h1.438z"></path>
</svg>
