<!-- Generated by IcoMoon.io -->
<svg version="1.1" xmlns="http://www.w3.org/2000/svg" width="32" height="32" viewBox="0 0 32 32">
<title>uniE242</title>
<path d="M27.688 24.188q0.25 0 0.25 0.188 0 0.313-0.375 0.5-1.125 0.563-1.625 0.75l-0.75 0.25t-1.125 0.188q-1.313 0-1.5-1.438-0.125-1.25-0.125-2.094t-0.063-1.344q0-0.438-0.063-0.625t-0.313-0.188q-0.125 0-0.313 0.063t-0.438 0.125v0q-0.313 0.125-0.5 0.219t-0.375 0.156q-0.125 0.063-0.75 0.25t-1.188 0.188q-1.25 0-1.438-1.438-0.125-1.25-0.125-2.094t-0.063-1.344q-0.063-0.625-0.156-0.75t-0.594 0q-0.438 0.25-0.719 0.344t-0.469 0.219q-0.125 0.063-0.75 0.25t-1.188 0.188q-1.25 0-1.438-1.438-0.188-2.375-0.188-3.438 0-0.375-0.094-0.594t-0.344-0.219l-0.563 0.125q-1.063 0.438-1 0.438-0.125 0.063-0.75 0.25t-1.188 0.188q-1.25 0-1.438-1.438-0.063-1.25-0.094-2.063t-0.094-1.313q0-0.375-0.094-0.594t-0.281-0.219l-0.75 0.188h-0.125q-0.25 0-0.375-0.156t0.188-0.406 1-0.469 1.375-0.219q0.5 0 0.688 0.063 0.5 0.188 0.75 0.75 0.5 1.438 0.813 3.25 0.188 0.875 1.188 0.875 0.438 0 0.688-0.063 0.688-0.188 1.375-0.188 0.5 0 0.75 0.063 0.563 0.125 0.75 0.75 0.438 1.188 0.813 3.188 0.25 1.125 1.625 0.875 0.75-0.313 1.563-0.313 0.25 0 0.75 0.125 0.563 0.125 0.75 0.75 0.438 1.188 0.813 3.188 0.25 1.125 1.875 0.875h0.188q0.688-0.188 1.313-0.188 0.438 0 0.625 0.063 0.5 0.125 0.75 0.688 0.438 1.313 0.813 3.25 0.25 1.125 1.875 0.875z"></path>
</svg>
