<!-- Generated by IcoMoon.io -->
<svg version="1.1" xmlns="http://www.w3.org/2000/svg" width="33" height="32" viewBox="0 0 33 32">
<title>uniE366</title>
<path d="M4.75 16.75q1.5 0 1.5-1.625 0-1.563-1.5-1.563-0.875 0-1.25 0.375t-0.375 1.188q0 1.625 1.625 1.625zM15.5 11.5h-3.188l-11.75 13.688h3.188zM21.25 11.5h-3.313l-11.75 13.688h3.188zM20.063 0h-3.313q-0.188 1.625-0.813 3.25-0.625 1.688-1.938 3v0.813h4.125v0.563q0 0.5-0.313 1-0.125 0.438-0.938 0.438v0.625h4.813v-0.688q-0.875 0-1-0.438-0.188-0.563-0.188-1v-0.563h1.188v-0.75h-1.188v-4.375l-2.563 2.375v2h-3.125q2.188-2.188 2.875-3 0.875-1.125 2.375-3.25zM27.875 23.25q0.688 0 1.063-0.375t0.375-1.063q0-1.625-1.438-1.625-0.875 0-1.281 0.375t-0.406 1.25q0 1.438 1.688 1.438zM26.813 11.5h-3.188l-11.75 13.688h3.188zM32.563 11.5h-3.313l-11.75 13.688h3.188z"></path>
</svg>
