<!-- Generated by IcoMoon.io -->
<svg version="1.1" xmlns="http://www.w3.org/2000/svg" width="32" height="32" viewBox="0 0 32 32">
<title>uniE249</title>
<path d="M24.844 8.563q0.719 0.188 1.531 0.188 1.688-0.063 3.438-1.375 1.688-1.375 1.75-3 0-1.063-0.875-1.563-0.688-0.563-2-0.688-2 0.125-3.625 1.188-1.813 1.438-1.813 3.125v22.75h0.875v-21.125q0 0.313 0.719 0.5zM6.844 23.063q-0.594-0.188-1.406-0.188-0.813 0.063-1.531 0.406t-1.656 1.031q-1.625 1.375-1.813 3.125 0 1.188 0.875 1.688 0.75 0.688 1.938 0.75 1.688-0.063 3.5-1.313 1.563-1.188 1.563-3.25v-22.75h-0.875v21.063q0-0.375-0.594-0.563zM21.063 7.563l-10.375 16.688 0.875 0.625 10.438-16.688z"></path>
</svg>
