<!-- Generated by IcoMoon.io -->
<svg version="1.1" xmlns="http://www.w3.org/2000/svg" width="32" height="32" viewBox="0 0 32 32">
<title>uniE144</title>
<path d="M17.531 12.813q-0.219-0.188-0.406-0.25-0.563-0.313-1.313-0.438v2.5l2.063-1.5q-0.125-0.125-0.344-0.313zM20.063 15.75q0 1.313-0.5 2.688-0.688 1.563-0.938 1.938l-0.063 0.063h-0.5l0.063-0.125 0.625-1.563 0.125-0.25q0.375-0.938 0.375-2.313-0.125-1.25-0.75-2.375l-2.688 1.938v6.125q-0.125 1.188-1.25 2.125-1.063 0.75-2.375 0.813v0q-0.75 0-1.25-0.5-0.563-0.313-0.563-1.188 0-1.063 1.125-2 1.125-0.75 2.25-0.875h0.313q0.5 0 1.125 0.25v-4.25l-2.938 2.063-0.563-0.75 3.5-2.438v-7.938h0.563l0.063 0.125q0 0.563 0.188 1.438 0.188 0.75 0.813 1.563l2 2.188 2.25-1.688 0.563 0.75-2.375 1.688q0.75 1.25 0.813 2.5z"></path>
</svg>
