<!-- Generated by IcoMoon.io -->
<svg version="1.1" xmlns="http://www.w3.org/2000/svg" width="32" height="32" viewBox="0 0 32 32">
<title>uniE117</title>
<path d="M18.75 25.563q0.438 0 0.563 0.5 0 0.625-0.688 1.5-0.813 1-1.688 1.563-0.875 0.813-1.875 1.188-0.938 0.438-1.625 0.438-0.625-0.063-0.563-0.625 0-1.313 1.688-2.625 0.625-0.438 2-1.313 1.188-0.75 2.188-0.625zM17.25 24.375q-1.813 0.063-3.5 1.375-1.5 1.188-1.813 3.125-0.188 1.625 1 2.625 0.875 0.438 1.875 0.375 1.813 0 3.5-1.375 1.688-1.125 1.875-3.125v-23.313h-0.688v20.938q-1.313-0.813-2.25-0.625z"></path>
</svg>
