<!-- Generated by IcoMoon.io -->
<svg version="1.1" xmlns="http://www.w3.org/2000/svg" width="32" height="32" viewBox="0 0 32 32">
<title>uniE204</title>
<path d="M32 5.5v0.875h-9.188v-0.875h9.188zM32 10.813v0.875h-11.813v-0.875h11.813zM32 16.063v0.875h-14.5v-0.875h14.5zM32 21.313v0.875h-17.125v-0.875h17.125zM32 26.625v0.875h-19.75v-0.875h19.75zM9.188 26.938v0.25h-9.063v-0.25h9.063zM11.813 21.625v0.313h-11.688v-0.313h11.688zM14.438 16.375v0.25h-14.313v-0.25h14.313zM17.063 11.125v0.25h-16.938v-0.25h16.938zM19.75 5.813v0.25h-19.625v-0.25h19.625zM9.875 30.188l-0.75-0.375 13.375-28 0.813 0.375z"></path>
</svg>
