<!-- Generated by IcoMoon.io -->
<svg version="1.1" xmlns="http://www.w3.org/2000/svg" width="32" height="32" viewBox="0 0 32 32">
<title>uniE203</title>
<path d="M9 9.563h0.75v8.438q0.875-0.75 1.938-0.75 0.75 0 1.125 0.5 0.5 0.5 0.5 1.25-0.125 1.125-0.75 1.688-0.875 0.875-1.438 1.188l-2.125 2.063v-14.375zM2.625 29.438h3.875v2.625h-3.875v-2.625zM10.688 29.438h3.813v2.625h-3.813v-2.625zM0 3.625h0.875v21.375h-0.875v-21.375zM2.625 3.625h0.875v21.375h-0.875v-21.375zM18.688 29.438h3.875v2.625h-3.875v-2.625zM10.875 21q0.625-0.875 0.813-1.813 0-1-0.813-1.188-0.313 0-0.813 0.375-0.063 0.063-0.438 0.625v3.563q0.875-1 1.25-1.563zM0.438 24.75h31.625v0.25h-31.625v-0.25zM0.438 19.5h31.625v0.25h-31.625v-0.25zM26.25 29.438h3.875v2.625h-3.875v-2.625zM0.438 14.188h31.625v0.25h-31.625v-0.25zM17.313 11.313q0.625-0.813 0.75-1.813 0-1.063-0.75-1.125-0.5 0-0.813 0.313-0.375 0.5-0.438 0.625v3.625q0.625-0.688 1.25-1.625zM0.438 8.938h31.625v0.25h-31.625v-0.25zM15.438-0.063h0.625l0.063 8.313q0.938-0.75 1.938-0.75 0.75 0 1.188 0.5 0.5 0.625 0.5 1.25-0.125 1.063-0.813 1.625-1.063 1.063-1.375 1.25-0.813 0.688-2.125 2v-14.188zM0.438 3.625h31.625v0.25h-31.625v-0.25z"></path>
</svg>
