<!-- Generated by IcoMoon.io -->
<svg version="1.1" xmlns="http://www.w3.org/2000/svg" width="32" height="39" viewBox="0 0 32 39">
<title>uniE132</title>
<path d="M7.625 37.438q1.625 1.125 3.813 1.25 3.5-0.313 5.125-1.938 1.875-1.688 2-2.5l-0.25-0.188q-1.188 1.813-3 2.5-1.75 0.563-4 0.563-2.063 0-3.5-0.688-1.625-0.625-2.813-2.375l-0.25 0.063q1.188 2.125 2.875 3.313zM19.188 25.063q-1.688 0.063-3.5 1.438-1.563 1.5-1.75 3.125 0 1.125 0.875 1.688 0.813 0.625 2 0.688 1.813-0.063 3.625-1.25 1.688-1.438 1.75-3.25v-22.75h-0.688v21.063q-0.75-0.75-2.313-0.75z"></path>
</svg>
