<!-- Generated by IcoMoon.io -->
<svg version="1.1" xmlns="http://www.w3.org/2000/svg" width="32" height="32" viewBox="0 0 32 32">
<title>uniE135</title>
<path d="M16.438 18.813q0-1.438-1.063-2.313-0.938-0.688-2.688-0.688-2.063 0-4.25 1.688-2.313 1.813-2.313 3.813 0 1.438 1 2.25t2.25 0.813q2.625 0 4.75-1.688 2.313-1.688 2.313-3.875zM27.625 13.188q0 4.813-5.188 8.75-4.875 3.75-9.813 3.75-3.563 0-5.938-1.813-2.313-1.875-2.313-5.313 0-4.375 5.188-8.313 4.938-3.813 10.313-3.813 3.25 0 5.313 1.563 2.438 1.75 2.438 5.188z"></path>
</svg>
