<!-- Generated by IcoMoon.io -->
<svg version="1.1" xmlns="http://www.w3.org/2000/svg" width="32" height="32" viewBox="0 0 32 32">
<title>uniE253</title>
<path d="M6.563 18.313q-1.125-1.313-1.125-3 0.313-1.688 1.5-2.625 1.125-0.75 3.063-1.063 3.5 0.188 5.938 2.188l3.813 2.625q0.563 0.375 1.438 0.813 1 0.375 1.75 0.313 1.375-0.188 2-1.063 0.5-0.688 0.375-1.75-0.375-1.188-1.688-1.188-0.625 0.063-1.063 0.438-0.625 0.313-1.375 0.313-1.375-0.063-1.438-1.188 0.063-0.813 0.875-1.188 1.063-0.313 1.75-0.313 2 0.063 3 1.313 1.063 1.188 1.125 2.813 0.125 1.688-1.313 2.813-1.375 1.125-3.25 1.125-3.438-0.188-5.875-2.188l-3.813-2.563q-1.438-1.063-3.25-1.25-1.188 0.25-1.75 1-0.5 0.688-0.5 1.375 0 0.75 0.438 1.25 0.5 0.563 1.25 0.563 0.375-0.063 1.125-0.438 0.5-0.438 1.313-0.5 1.063 0 1.5 0.938v0.125q0 0.813-0.875 1.313-0.938 0.375-1.875 0.375-2.063-0.188-3.063-1.375zM15.938 10.313h0.938v11.375h-0.938v-11.375z"></path>
</svg>
