<!-- Generated by IcoMoon.io -->
<svg version="1.1" xmlns="http://www.w3.org/2000/svg" width="32" height="32" viewBox="0 0 32 32">
<title>uniE251</title>
<path d="M24 15.438q-0.125 0-0.5-0.25l-3.75-2.938q-0.313-0.438-0.938-0.125l-2.375 2.625v-5.063h-1v5.938l-4.063-3.375q-0.438-0.438-1-0.125l-4.438 4.813v1.875l2.375-2.5q0.188-0.188 0.438-0.188t0.5 0.25l3.625 3q0.313 0.188 0.438 0.188 0.313 0 0.5-0.25l1.625-1.625v4.625h1v-5.75l0.25-0.25q0.313-0.188 0.5-0.188 0.25 0 0.5 0.25l3.563 3q0.313 0.188 0.5 0.188 0.313 0 0.563-0.25l3.75-4.25v-1.688l-1.625 1.75q-0.188 0.313-0.438 0.313z"></path>
</svg>
