<!-- Generated by IcoMoon.io -->
<svg version="1.1" xmlns="http://www.w3.org/2000/svg" width="32" height="32" viewBox="0 0 32 32">
<title>uniE198</title>
<path d="M0.188 26.438h31.625v0.25h-31.625v-0.25zM0.188 21.125h31.625v0.25h-31.625v-0.25zM0.188 15.875h31.625v0.25h-31.625v-0.25zM0.188 10.625h31.625v0.25h-31.625v-0.25zM0.188 5.313h31.625v0.25h-31.625v-0.25zM31.813 1.063v1.75h-0.875v-1.75h0.875zM31.813 4.563v1.75h-0.875v-1.75h0.875zM31.813 8.063v1.75h-0.875v-1.75h0.875zM31.813 11.563v1.75h-0.875v-1.75h0.875zM31.813 15.125v1.75h-0.875v-1.75h0.875zM31.813 18.625v1.75h-0.875v-1.75h0.875zM31.813 22.125v1.75h-0.875v-1.75h0.875zM31.813 25.625v1.75h-0.875v-1.75h0.875zM31.813 29.188v1.75h-0.875v-1.75h0.875z"></path>
</svg>
