<!-- Generated by IcoMoon.io -->
<svg version="1.1" xmlns="http://www.w3.org/2000/svg" width="32" height="32" viewBox="0 0 32 32">
<title>uniE210</title>
<path d="M31.125 26.938v0.875h-30.313v-0.875h30.313zM31.125 23.375v0.875h-30.313v-0.875h30.313zM31.125 19.875v0.875h-30.313v-0.875h30.313zM31.125 16.375v0.875h-30.313v-0.875h30.313zM31.125 12.875v0.875h-30.313v-0.875h30.313zM17.063 12.875v14.938h-0.875v-14.938h0.875zM21 5.906q-1.875-1.719-4.5-1.719t-4.5 1.719-1.875 4.219h2.625q0-1.375 1.094-2.344t2.656-0.969 2.656 0.969 1.094 2.344h2.625q0-2.5-1.875-4.219z"></path>
</svg>
