<!-- Generated by IcoMoon.io -->
<svg version="1.1" xmlns="http://www.w3.org/2000/svg" width="32" height="32" viewBox="0 0 32 32">
<title>uniE226</title>
<path d="M10.125 11.125q0.375 0 0.438 0.125 0.188 0.063 0.188 0.313l-0.25 1-2.125 7.25-0.25 1.125q0 0.188 0.188 0.5 0.313 0.188 0.5 0.188 0.375 0 0.875-0.313 0.563-0.313 1.375-1.438l-0.25-0.25q-0.438 0.625-0.813 1l-0.313 0.125-0.188-0.063q-0.125-0.125-0.125-0.188 0-0.313 0.25-0.875l2.625-9.188-2.625 0.438v0.313q0.188-0.063 0.5-0.063zM12.688 20.25q-0.25 0.375-0.25 0.563 0 0.313 0.25 0.563t0.563 0.25q0.188 0 0.563-0.25 0.188-0.188 0.188-0.563 0-0.313-0.188-0.563-0.25-0.188-0.563-0.188-0.375 0-0.563 0.188zM16.813 15.125q0.438 0 0.625 0.375 0.625 1.125 0.813 6.125h0.25l1.75-1.813q1.063-1.25 1.75-2.25 0.563-0.813 0.75-1.438 0.125-0.5 0.125-0.75 0-0.438-0.25-0.688-0.188-0.25-0.563-0.25-0.25 0-0.438 0.188-0.25 0.188-0.25 0.438 0 0.375 0.375 0.563 0.375 0.25 0.375 0.5l-0.063 0.438-0.156 0.313t-0.219 0.375q-0.5 0.75-1.188 1.625l-1.125 1.313q-0.063-0.938-0.094-1.563t-0.094-0.938q-0.063-1.25-0.375-2.063-0.063-0.625-0.375-1.188l-2.188 0.5v0.25q0.25-0.063 0.563-0.063zM22.5 20.25q-0.25 0.25-0.25 0.563 0 0.375 0.25 0.563 0.25 0.25 0.563 0.25 0.188 0 0.563-0.25 0.188-0.188 0.188-0.563 0-0.313-0.188-0.563-0.25-0.188-0.563-0.188-0.375 0-0.563 0.188z"></path>
</svg>
