<!-- Generated by IcoMoon.io -->
<svg version="1.1" xmlns="http://www.w3.org/2000/svg" width="32" height="32" viewBox="0 0 32 32">
<title>uniE278</title>
<path d="M12 18.188l-0.25 0.313q-0.125 0.25-0.75 1.188-0.438 0.438-0.875 0.625-0.563 0.25-1.75 0.25h-1q-0.5 0-0.625-0.125-0.188-0.125-0.188-0.313 0-0.25 0.188-1l1.813-6.25q0.438-1.25 0.5-1.313 0.25-0.375 0.5-0.438 0.313-0.188 1-0.188l0.063-0.25h-4.25l-0.125 0.25q0.063 0.063 0.188 0.063 0.688 0 0.813 0.125 0.25 0.188 0.25 0.438 0 0.188-0.25 1.188l-1.875 6.375q-0.188 0.938-0.5 1.25-0.063 0.25-0.438 0.375t-0.875 0.125l-0.063 0.25h7.75l1-2.938h-0.25zM13.563 20q-0.25 0.188-0.25 0.563 0 0.313 0.25 0.563 0.188 0.188 0.563 0.188 0.313 0 0.5-0.188 0.25-0.25 0.25-0.563 0-0.375-0.188-0.563-0.375-0.25-0.563-0.25-0.313 0-0.563 0.25zM22.375 11.25q1 0 1.438 0.438 0.5 0.438 0.5 1.313 0 1.125-0.75 1.813-0.813 0.75-2.125 0.75-0.563 0-0.875-0.063l1.25-4.188q0.188-0.063 0.563-0.063zM24.688 20.5q-0.375-0.375-0.75-1.5l-1-3.063q1.375-0.188 2.125-1.063 0.813-0.938 0.813-1.813 0-1.125-0.813-1.75-0.688-0.625-2.438-0.625h-3.438l-0.063 0.25q0.438 0 0.813 0.25 0.313 0.313 0.313 0.625t-0.188 1l-1.875 6.313q-0.188 0.813-0.5 1.25-0.063 0.25-0.438 0.375-0.25 0.125-0.813 0.125l-0.063 0.25h4.063l0.063-0.25q-0.75-0.125-0.938-0.188-0.188-0.188-0.188-0.5t0.125-1.063l0.938-3.188q0.875 0.125 1.188 0.125l1.688 5.063h2.5l0.063-0.25q-0.813-0.125-1.188-0.375zM27.188 20q-0.25 0.188-0.25 0.563 0 0.313 0.25 0.563 0.188 0.188 0.5 0.188 0.375 0 0.563-0.188 0.25-0.25 0.25-0.563 0-0.375-0.25-0.563-0.25-0.25-0.563-0.25-0.25 0-0.5 0.25z"></path>
</svg>
