<!-- Generated by IcoMoon.io -->
<svg version="1.1" xmlns="http://www.w3.org/2000/svg" width="32" height="32" viewBox="0 0 32 32">
<title>uniE270</title>
<path d="M5.188 8.938q1.688-1.25 3.5-1.313 1.125 0 1.938 0.688 0.813 0.625 0.813 1.688 0 1.813-1.688 3.125-1.625 1.313-3.313 1.375-0.813 0-1.438-0.156t-0.625-0.469v14.25h-0.875v-16q0-1.875 1.688-3.188zM22.25 12.438q1.688-1.25 3.5-1.313 1.125 0 1.938 0.688t0.813 1.75q0 1.75-1.688 3.063-1.625 1.313-3.313 1.375h-0.313q-0.688 0-1.219-0.188t-0.531-0.438v14.313h-0.875v-16q0-1.938 1.688-3.25z"></path>
</svg>
