<!-- Generated by IcoMoon.io -->
<svg version="1.1" xmlns="http://www.w3.org/2000/svg" width="38" height="39" viewBox="0 0 38 39">
<title>uniE133</title>
<path d="M17.25 37.438q1.5 1.125 3.75 1.25 3.563-0.313 5.188-1.938 1.875-1.688 2-2.563l-0.25-0.188q-1.063 1.813-3 2.5-1.875 0.688-3.938 0.5-1.625 0.125-3.5-0.625-1.563-0.625-2.938-2.375l-0.25 0.125q1.125 2.063 2.938 3.313zM15.563 25.125q-1.625 0-3.5 1.438-1.625 1.375-1.75 3.063 0 1.188 0.875 1.688 0.688 0.563 2 0.688 1.813 0 3.625-1.25 1.563-1.188 1.75-3.25v-22.75h-0.688v21.125q-0.938-0.75-2.313-0.75z"></path>
</svg>
