<!-- Generated by IcoMoon.io -->
<svg version="1.1" xmlns="http://www.w3.org/2000/svg" width="32" height="32" viewBox="0 0 32 32">
<title>uniE175</title>
<path d="M8.438 8.563l-2.813 1.188 0.188 0.375q0.375-0.188 0.688-0.188 0.125 0 0.375 0.125 0.188 0.188 0.25 0.5 0.063 0.25 0.063 2v8.563q0 0.688-0.125 1.188l-0.375 0.438q-0.375 0.125-0.875 0.125v0.375h4.625v-0.375q-0.688 0-1-0.188-0.25-0.063-0.438-0.438-0.125-0.375-0.125-1.125v-12.563h-0.438zM14.813 22.25q-0.625 0-1-0.5-0.5-0.5-0.5-1.25 0-0.625 0.375-1.063 0.375-0.5 1.188-0.938 0.438-0.313 2-0.875v3.563q-1.375 1.063-2.063 1.063zM17.188 23.063q0.313 0.375 0.813 0.375 1.063 0 2.188-1.563v-0.563l-0.813 0.75q-0.125 0.063-0.313 0.063-0.125 0-0.25-0.125-0.188-0.125-0.188-0.375-0.063-0.188-0.063-1.688v-3.188q0-1.375-0.188-1.813-0.25-0.563-0.875-1-1-0.438-2.063-0.438-1.625 0-2.563 0.75-0.875 0.688-0.875 1.625 0 0.438 0.188 0.75 0.25 0.25 0.625 0.25 0.438 0 0.625-0.25 0.25-0.25 0.25-0.75v-0.563q0-0.438 0.375-0.813t1.063-0.375q0.875 0 1.313 0.563t0.438 1.938v0.375q-2.5 0.875-3.5 1.5-1.063 0.563-1.438 1.313-0.313 0.375-0.313 1.188 0 1.125 0.625 1.75 0.688 0.688 1.625 0.688 0.688 0 1.188-0.25 0.188-0.125 1.813-1.313 0 0.75 0.313 1.188zM26.438 17.75v1.563h-5.375v-1.563h5.375z"></path>
</svg>
