<!-- Generated by IcoMoon.io -->
<svg version="1.1" xmlns="http://www.w3.org/2000/svg" width="32" height="32" viewBox="0 0 32 32">
<title>uniE250</title>
<path d="M26.563 12.813l-2.375 2.625q-0.25 0.188-0.5 0.188-0.188 0-0.5-0.313l-3.625-3q-0.25-0.188-0.5-0.188t-0.563 0.313l-2.813 3q-0.25 0.188-0.5 0.188t-0.563-0.313l-3.625-3q-0.25-0.188-0.438-0.188-0.313 0-0.625 0.313l-4.563 4.813v1.938l2.438-2.563q0.313-0.188 0.5-0.188 0.25 0 0.563 0.313l3.625 3q0.188 0.125 0.438 0.125 0.313 0 0.563-0.25l2.875-3q0.313-0.188 0.5-0.188t0.5 0.313l3.688 3q0.188 0.125 0.438 0.125 0.313 0 0.563-0.25l4.5-4.875v-1.938z"></path>
</svg>
