<!-- Generated by IcoMoon.io -->
<svg version="1.1" xmlns="http://www.w3.org/2000/svg" width="32" height="32" viewBox="0 0 32 32">
<title>uniE158</title>
<path d="M11.813 12.313l4.688-6.75 4.75 6.75h-9.438zM11 16.875h-0.875q-0.063 0.375-0.313 0.875-0.313 0.375-0.625 0.563-0.313 0.125-0.813 0.25-0.313 0.063-0.938 0.063v0.875h2.438v6.75h1.125v-9.375zM13.438 26.438h0.938l3.875-9.875h-0.938zM18.625 20.188h1.125q0-0.563 0.063-0.813 0.063-0.375 0.313-0.75 0.313-0.375 0.563-0.563 0.375-0.188 0.875-0.188 0.188 0 0.688 0.125 0.313 0.063 0.563 0.313 0.313 0.25 0.375 0.563 0.188 0.25 0.188 0.688 0 0.5-0.188 0.875-0.063 0.125-0.438 0.688l-0.75 0.625q-0.188 0.125-0.438 0.281t-0.563 0.344l-0.938 0.625q-0.625 0.5-0.813 0.813-0.25 0.25-0.625 1-0.25 0.75-0.25 1.438h6.063v-1h-4.813q0.063-0.438 0.375-0.813l0.625-0.625q0.5-0.375 0.75-0.5l1.75-1.125q0.375-0.313 0.688-0.688 0.375-0.375 0.563-0.813 0.188-0.5 0.188-1.125 0-0.5-0.25-1.125-0.125-0.375-0.625-0.875-0.438-0.313-0.938-0.5-0.563-0.188-1.125-0.188-0.813 0-1.313 0.25-0.75 0.375-1 0.688-0.375 0.5-0.563 1.063-0.188 0.625-0.125 1.313z"></path>
</svg>
