<!-- Generated by IcoMoon.io -->
<svg version="1.1" xmlns="http://www.w3.org/2000/svg" width="32" height="32" viewBox="0 0 32 32">
<title>uniE212</title>
<path d="M20.625 14.563q0-5.375-4.438-10.313l0.688-0.563q4.625 5.063 4.625 10.813 0 5.875-4.75 10.875l-0.625-0.625q4.5-4.813 4.5-10.188zM14.688 22.875l4.188 3.625-5.188 1.813zM4.25 20.875h23.438v0.25h-23.438v-0.25zM4.25 17.375h23.438v0.25h-23.438v-0.25zM4.25 13.875h23.438v0.25h-23.438v-0.25zM4.25 10.375h23.438v0.25h-23.438v-0.25zM4.25 6.813h23.438v0.25h-23.438v-0.25z"></path>
</svg>
