<!-- Generated by IcoMoon.io -->
<svg version="1.1" xmlns="http://www.w3.org/2000/svg" width="32" height="32" viewBox="0 0 32 32">
<title>uniE159</title>
<path d="M16.5 26.063l-4.688-6.5h9.438zM11 6.25h-0.875q-0.125 0.563-0.313 0.875-0.375 0.375-0.625 0.5-0.25 0.188-0.813 0.313-0.313 0.063-0.938 0.063v0.875h2.438v6.688h1.125v-9.313zM13.438 15.813h0.938l3.875-9.875h-0.938zM18.625 9.563h1.125q0-0.563 0.063-0.875 0.063-0.375 0.313-0.688 0.313-0.375 0.563-0.563 0.375-0.188 0.875-0.188 0.438 0 0.688 0.125 0.313 0.063 0.563 0.313 0.313 0.313 0.375 0.563 0.188 0.25 0.188 0.688 0 0.5-0.188 0.813-0.063 0.313-0.438 0.688-0.25 0.313-0.75 0.625l-1 0.688q-0.313 0.125-0.938 0.625t-0.813 0.75q-0.25 0.313-0.625 1.063-0.25 0.75-0.25 1.375h6.063v-0.938h-4.813q0.063-0.438 0.375-0.813l0.625-0.625q0.5-0.375 0.75-0.5l1.75-1.125q0.375-0.313 0.688-0.688 0.438-0.438 0.563-0.875 0.188-0.5 0.188-1.063 0-0.438-0.25-1.188-0.125-0.313-0.625-0.813-0.25-0.313-0.938-0.5-0.563-0.188-1.125-0.188-0.813 0-1.313 0.25-0.75 0.375-1 0.688-0.375 0.5-0.563 1.063-0.188 0.625-0.125 1.313z"></path>
</svg>
