<!-- Generated by IcoMoon.io -->
<svg version="1.1" xmlns="http://www.w3.org/2000/svg" width="32" height="32" viewBox="0 0 32 32">
<title>uniE160</title>
<path d="M11 11.5l4.75-6.688 4.688 6.688h-9.438zM15.375 20.563q1.125 0 2.563 0.813 1.438 0.875 1.5 2.5-0.25 2.75-3.5 2.938-3.188-0.188-3.438-2.938 0.188-1.625 1.188-2.438 1-0.75 1.688-0.875zM18.25 18.625q-0.813 0.75-1.688 0.75-1.25 0-2.438-0.875-1.25-0.75-1.313-2.125 0-1.125 1-1.813 0.813-0.625 2.125-0.625 3 0.188 3.188 2.75 0 1.25-0.875 1.938zM19.125 14.313q-1.25-0.813-2.875-0.813-1.813 0-3.313 0.938-1.375 0.938-1.563 2.688 0 1.313 1 2.063 0.938 0.875 2.313 1.25v0.063l-0.625 0.125q-1.125 0.313-2.188 1.063-0.875 0.625-1 1.938 0.063 1.75 1.625 2.625 1.688 1 3.313 1 1.875 0 3.563-1 1.625-1.063 1.688-3 0-1.5-1.188-2.375-1.25-0.938-2.563-1.188l0.625-0.313q1.188-0.563 1.813-1 0.813-0.625 0.813-1.688 0-1.625-1.438-2.375z"></path>
</svg>
