<!-- Generated by IcoMoon.io -->
<svg version="1.1" xmlns="http://www.w3.org/2000/svg" width="32" height="32" viewBox="0 0 32 32">
<title>uniE161</title>
<path d="M15.75 27.188l-4.75-6.5h9.438zM15.375 11.813q1 0 2.563 0.875 1.438 0.813 1.5 2.438-0.313 2.813-3.5 3-3.125-0.188-3.438-3 0.188-1.563 1.188-2.375 1.125-0.875 1.688-0.938zM18.25 9.938q-0.75 0.688-1.688 0.688-1.375 0-2.438-0.813-1.188-0.75-1.313-2.125 0-1.125 1-1.813 0.813-0.625 2.125-0.625 3 0.063 3.188 2.75 0 1.25-0.875 1.938zM19.125 5.563q-1.313-0.75-2.875-0.75-1.813 0-3.313 0.938-1.375 0.813-1.563 2.625 0 1.375 1 2.125 0.875 0.75 2.313 1.188v0.063l-0.625 0.188q-1 0.313-2.188 1-0.938 0.75-1 2 0.063 1.75 1.625 2.625 1.625 0.938 3.313 0.938 2 0 3.563-0.938 1.625-1.125 1.688-3.063 0-1.438-1.188-2.313-1.063-0.875-2.563-1.188l0.625-0.375q1.063-0.375 1.813-0.938 0.813-0.625 0.813-1.688 0-1.563-1.438-2.438z"></path>
</svg>
