<!-- Generated by IcoMoon.io -->
<svg version="1.1" xmlns="http://www.w3.org/2000/svg" width="38" height="32" viewBox="0 0 38 32">
<title>uniE205</title>
<path d="M2.563 14.375h-0.313v3.313h7.688v-3.313h-7.375zM28.75 14.375h-0.25v3.313h7v-3.313h-6.75zM2.25 11.75v8.75h-0.875v-8.75h0.875zM36.375 11.75v8.75h-0.875v-8.75h0.875zM22.5 17.563l1.375-4.375 0.125-0.625q0-0.313-0.438-0.313-0.25 0-0.438 0.125t-0.375 0.313l-2.188 2.313q-0.125 0.188-0.219 0.344t-0.156 0.281l-0.563 1.938q0 0.063-0.094 0.156t-0.281 0.094h-3q-0.25 0-0.25-0.125t0.125-0.25q2-1.563 4-3.531t3.188-3.531q0.125-0.188 0.125-0.375 0-0.313-0.375-0.313-0.25 0-0.75 0.188t-0.813 0.188-0.875-0.188-0.75-0.188q-0.313 0-0.438 0.375-0.625 2.188-1.875 3.813-0.938 1.375-3.375 3.938-0.313 0.188-0.313 0.563 0 0.438 0.563 0.438h4.625q0.188 0 0.188 0.188l-0.563 1.875q-0.063 0.188-0.156 0.25t-0.281 0.063l-1.188 0.125q-0.438 0-0.438 0.5 0 0.438 0.5 0.438h5.625q0.563 0 0.563-0.438 0-0.5-0.438-0.5l-1.125-0.125q-0.188 0-0.219-0.094t0-0.188 0.031-0.156l0.563-1.688q0-0.25 0.313-0.25h1.125q0.5 0 0.5-0.5t-0.438-0.5h-1q-0.188 0-0.125-0.25z"></path>
</svg>
