<!-- Generated by IcoMoon.io -->
<svg version="1.1" xmlns="http://www.w3.org/2000/svg" width="32" height="32" viewBox="0 0 32 32">
<title>uniE264</title>
<path d="M14.125 16.188q-1.063 0-1.938-0.406t-1.313-1.156q-0.375-0.688-0.375-1.438 0-1.313 0.938-2.656t2.563-2.281q2-1.125 3.875-1.125 1.063 0 1.938 0.406t1.313 1.156q0.375 0.625 0.375 1.438 0 1.313-0.969 2.656t-2.594 2.281q-1.875 1.125-3.813 1.125zM10.563 13.188h1.063v12.063h-1.063v-12.063zM14.563 14.125l0.375-1.188h2.188l0.375 1.188h1.688l-2.313-6.375h-1.625l-2.313 6.375h1.625zM15.875 10l0.063-0.313 0.063-0.125v-0.188h0.063q0 0.25 0.125 0.625l0.125 0.313 0.438 1.5h-1.5l0.5-1.5z"></path>
</svg>
