<!-- Generated by IcoMoon.io -->
<svg version="1.1" xmlns="http://www.w3.org/2000/svg" width="32" height="32" viewBox="0 0 32 32">
<title>uniE167</title>
<path d="M8.813 16.25q1.125 0 2.563 0.813 1.438 0.875 1.5 2.5-0.25 2.75-3.5 2.938-3.188-0.188-3.438-2.938 0.188-1.625 1.188-2.438 1-0.75 1.688-0.875zM11.688 14.313q-0.813 0.75-1.688 0.75-1.25 0-2.438-0.875-1.25-0.75-1.313-2.125 0-1.125 1-1.813 0.813-0.625 2.125-0.625 3 0.188 3.188 2.75 0 1.25-0.875 1.938zM12.563 10q-1.25-0.813-2.875-0.813-1.813 0-3.313 0.938-1.375 0.938-1.563 2.688 0 1.313 1 2.063 0.938 0.875 2.313 1.25v0.063l-0.625 0.125q-1.125 0.313-2.188 1.063-0.875 0.625-1 1.938 0.063 1.75 1.625 2.625 1.688 1 3.313 1 1.875 0 3.563-1 1.625-1.063 1.688-3 0-1.5-1.188-2.375-1.25-0.938-2.563-1.188l0.625-0.313q1.188-0.563 1.813-1 0.813-0.625 0.813-1.688 0-1.625-1.438-2.375zM21 13.063q0-0.5-0.625-0.813-0.313 0-0.438 0.563 0 0.438 0.25 0.625 0.188 0.188 0.188 0.563-0.063 1-1.125 2.438-1.125 1.313-2.438 1.5-0.563-0.125-0.688-0.5v-0.25q0-0.25 0.125-0.625l1.375-3.188 0.125-0.563v-0.125q0-0.25-0.5-0.375-0.688 0.125-1.438 0.688-0.875 0.688-0.875 1.063 0.125 0.063 0.188 0l0.688-0.563q0.438-0.438 0.75-0.438t0.125 0.375l-1.625 3.313-0.063 0.5q0.125 1.125 1.438 1.125 1.75-0.188 3.063-1.938 1.438-1.688 1.5-3.25v-0.125zM26.688 14.063q-0.063 1.188-1.125 2.625-1 1.313-2.625 1.438-0.813 0-0.938-0.75 0.063-1.063 1.375-2.75 1.313-1.625 2.563-1.688 0.875 0.063 0.75 1.125zM26.125 12.188q-1.063 0-2.125 1.125-1.125 1.125-1.625 1.875v-0.063l2-5.875q0-0.25-0.125-0.125-0.063-0.063-0.25 0.063-0.688 0.375-1.313 0.313-0.438 0-0.5 0.25 0.063 0.188 0.5 0.188t0.438 0.25q-0.125 0.375-0.25 0.625l-1.438 4.5q-0.313 0.688-0.438 1.5 0.125 1.563 1.875 1.563 1.875-0.063 3.313-1.438 1.313-1.313 1.5-3 0-0.563-0.438-1.125-0.313-0.625-1.125-0.625z"></path>
</svg>
