<!-- Generated by IcoMoon.io -->
<svg version="1.1" xmlns="http://www.w3.org/2000/svg" width="32" height="32" viewBox="0 0 32 32">
<title>uniE166</title>
<path d="M8.563 16.125q1 0 2.438 0.875 1.375 0.75 1.563 2.375-0.25 2.875-3.5 3-3.125-0.125-3.313-2.938 0.125-1.625 1.125-2.438 1.063-0.875 1.688-0.875zM11.5 14.188q-0.938 0.75-1.688 0.75-1.313 0-2.5-0.813-1.188-0.75-1.25-2.063 0-1.125 0.938-1.75 0.75-0.563 2.188-0.688 2.938 0.188 3.188 2.75-0.125 1.188-0.875 1.813zM9.375 9.25q-1.625 0-3.188 0.875-1.5 1-1.563 2.563 0.313 2.625 3.25 3.25l-0.75 0.313q-1.25 0.438-2 1-1 0.688-1 2 0.063 1.688 1.625 2.563 1.438 0.938 3.188 0.938 2.125 0 3.563-1 1.625-1.063 1.625-3 0-1.5-1.125-2.313-1.063-0.875-2.563-1.188v-0.063l0.75-0.25q2.313-0.625 2.625-2.563-0.125-1.625-1.438-2.375-1.375-0.75-3-0.75zM20 13.438q0.188 0.25 0.188 0.563-0.125 1.188-1.188 2.438-1.125 1.375-2.375 1.5-0.625-0.063-0.688-0.5 0-0.563 0.125-0.813l1.313-3.188q0.063-0.063 0.188-0.625 0-0.438-0.5-0.5-0.563 0.063-1.438 0.688-0.875 0.688-0.875 1.125 0.125 0.063 0.188 0l0.625-0.625q0.375-0.313 0.75-0.438 0.313 0.063 0.125 0.375l-1.5 3.313q-0.125 0.188-0.125 0.5 0.125 1.125 1.375 1.125 1.813-0.188 3.125-1.938 1.438-1.688 1.5-3.25 0-0.688-0.625-0.938-0.313 0.063-0.438 0.563 0 0.438 0.25 0.625zM26.5 13.25q-0.125 0.563-0.625 1.25l-0.813 1.188q-0.313 0.25-1.125 1.063-0.875 0.688-1.375 0.75-0.313-0.063-0.5-0.25t-0.125-0.5q0-1.063 1.188-2.625 1.125-1.438 2.5-1.5 0.813 0 0.875 0.625zM25.125 17.75q0 0.438 0.375 0.438 0.688 0 1.5-0.813 0.875-0.75 0.938-1.125l-0.063-0.125q-0.375 0.188-0.75 0.813-0.375 0.25-0.75 0.375-0.188 0-0.063-0.313l1.438-4.625q-0.188-0.25-0.438-0.188h-0.125q-0.438 0-0.438 0.563l-0.063 0.063q-0.438-0.5-1.063-0.438-1.75 0.063-3.25 1.5-1.5 1.375-1.563 2.938 0 1.188 1.125 1.375 1.25-0.125 2.438-1.375 1.125-1.25 1.688-2.25l0.063 0.063-0.813 2.5z"></path>
</svg>
