<!-- Generated by IcoMoon.io -->
<svg version="1.1" xmlns="http://www.w3.org/2000/svg" width="32" height="32" viewBox="0 0 32 32">
<title>uniE202</title>
<path d="M11.813 19.875l1.063-0.75q1.75-1.375 3.063-3.688 0.375-0.563 1-2.375 0.438-1.563 0.438-2.438 0.063-1.75-0.563-2.938-0.375-0.688-1.125-1.188-0.625-0.438-1.938-0.438-1 0.063-1.688 0.313-0.875 0.375-1.063 0.625-0.25 0.25-0.625 1l-0.063 0.188q0 0.313 0.625 0.5 0.125-0.063 0.875-0.188 1 0 1.375 0.438 0.625 0.625 0.625 1.313 0 0.875-0.625 1.313-0.5 0.625-1.563 0.625-1.125 0-1.813-0.625-0.75-0.75-0.813-1.563 0-1.125 0.625-2.125 0.688-1 1.688-1.563 0.313-0.25 1.438-0.625 0.813-0.25 1.625-0.25 2-0.188 3.938 1.313 0.938 0.75 1.438 1.563 0.438 0.938 0.5 2.125 0.125 2.063-1.063 4.125-1.313 2.188-2.813 3.438-2.375 1.688-3.5 2.375-2 1.125-4.063 2.125l-0.188-0.438q1.5-0.938 3.188-2.188zM12.813 26.344q0.188-0.094 0.25-0.094 0.25-0.375 0.125-0.438-0.125-0.5-0.438-0.813l-0.563-0.625q-0.813 0.375-0.813 1.188 0 0.25 0.375 0.625 0.5 0.25 0.688 0.25t0.375-0.094zM11.438 26.313q-0.25-0.125-0.438-0.375t-0.188-0.563q0-0.5 0.5-0.813 0.25-0.188 0.875-0.438-0.438-0.438-0.438-1.063 0-0.438 0.25-0.688 0.063 0 0.094-0.031t0.094-0.031q0.313-0.313 1.063-0.313 0.313 0 0.688 0.125 0.25 0 0.313 0.188 0.438 0.375 0.438 0.938-0.125 0.5-0.125 0.688-0.375 0.375-0.625 0.438 0.5 0.625 0.5 1.063 0 0.688-0.625 1-0.563 0.25-1.188 0.25-0.438 0-1.188-0.375zM0.188 26.438h31.625v0.25h-31.625v-0.25zM14 23.25q0.063-0.063 0.063-0.188 0-0.25-0.25-0.5-0.125-0.375-0.5-0.375t-0.438 0.125q-0.375 0.125-0.375 0.438 0 0.188 0.094 0.406t0.281 0.344l0.625 0.625q0.5-0.375 0.5-0.875zM0.188 21.125h31.625v0.25h-31.625v-0.25zM0.188 15.875h31.625v0.25h-31.625v-0.25zM0.188 10.625h31.625v0.25h-31.625v-0.25zM21.313 13.688q-0.25-0.25-0.25-0.813 0-1 1.125-1.125 1.063 0.063 1.125 1.125 0 1-1.125 1.188-0.625-0.125-0.875-0.375zM0.188 5.313h31.625v0.25h-31.625v-0.25zM21.063 8.25q0-0.563 0.25-0.813t0.875-0.375q1.125 0.188 1.125 1.188t-1.125 1.125q-1.125-0.063-1.125-1.125z"></path>
</svg>
