<!-- Generated by IcoMoon.io -->
<svg version="1.1" xmlns="http://www.w3.org/2000/svg" width="32" height="32" viewBox="0 0 32 32">
<title>uniE207</title>
<path d="M9 23.938l12.625 0.188v4.813l4.938 0.063v10.75h-0.875v-9.875l-4.938-0.125v-4.75l-10.875-0.125v14.875h-0.875v-15.813zM13.188 36.5h9.688v0.875h-9.688v-0.875zM13.188 32.563h9.688v0.875h-9.688v-0.875zM2.25 17.625h3.875v2.625h-3.875v-2.625zM10.313 17.625h3.813v2.625h-3.813v-2.625zM21 24.813l0.625-0.625 5 4.938-0.625 0.625zM18.313 17.625h3.813v2.625h-3.813v-2.625zM25.875 17.625h3.875v2.625h-3.875v-2.625zM13.188 6.875h9.688v0.875h-9.688v-0.875zM9-0.188h0.875v13.438h15.813v-13.5h0.875v14.375h-17.563v-14.313zM13.188 2.438h9.688v0.875h-9.688v-0.875z"></path>
</svg>
