<!-- Generated by IcoMoon.io -->
<svg version="1.1" xmlns="http://www.w3.org/2000/svg" width="32" height="32" viewBox="0 0 32 32">
<title>uniE277</title>
<path d="M9.188 11.25q0.875 0 1.438 0.438 0.438 0.438 0.438 1.25 0 0.75-0.375 1.438-0.313 0.625-1.063 1.063-0.625 0.375-1.563 0.375-0.25 0-1.375-0.25l1.188-4.188q1-0.125 1.313-0.125zM6.125 11.188q0.188 0.188 0.188 0.438 0 0.563-0.313 1.438l-1.688 5.938q-0.375 1.25-0.688 1.563-0.438 0.313-1.125 0.313l-0.125 0.25h4.188l0.063-0.25q-0.813-0.125-1-0.188-0.188-0.188-0.188-0.438 0-0.438 0.25-1.375l0.875-2.813q1 0.25 1.813 0.25 1.063 0 2.188-0.5 1-0.375 1.5-1.188 0.5-0.688 0.5-1.563 0-0.938-0.75-1.688-0.875-0.688-2.438-0.688h-4.125l-0.125 0.25q0.875 0.125 1 0.25zM11.125 20q-0.188 0.188-0.188 0.563 0 0.25 0.188 0.563 0.313 0.188 0.563 0.188 0.375 0 0.563-0.188 0.25-0.25 0.25-0.563 0-0.375-0.25-0.563-0.25-0.25-0.563-0.25-0.188 0-0.563 0.25zM16.75 10.688l-0.063 0.25 0.875 0.188 0.438 0.313-2.25 7.813q-0.25 0.938-0.5 1.25-0.375 0.375-1.125 0.375h-0.188l-0.125 0.25h3.438l0.125-0.25q-0.813-0.063-1-0.188-0.25-0.188-0.25-0.438l0.25-1.125 1.875-6.5 1 8.5h0.313l6.063-8.5-1.688 6.063q-0.375 1.125-0.563 1.563-0.25 0.375-0.438 0.438-0.25 0.188-0.875 0.188h-0.188l-0.125 0.25h4.438l0.063-0.25h-0.188q-0.625 0-0.938-0.25-0.188-0.125-0.188-0.438t0.188-0.938l1.938-6.625q0.188-0.688 0.438-1.125 0.188-0.313 0.5-0.438l0.938-0.125v-0.25h-2.563l-6.063 8.438-0.938-8.438h-2.625zM28.25 20q-0.188 0.188-0.188 0.563 0 0.25 0.188 0.563 0.313 0.188 0.563 0.188 0.375 0 0.563-0.188 0.25-0.25 0.25-0.563 0-0.375-0.25-0.563-0.25-0.25-0.563-0.25-0.188 0-0.563 0.25z"></path>
</svg>
