<!-- Generated by IcoMoon.io -->
<svg version="1.1" xmlns="http://www.w3.org/2000/svg" width="32" height="32" viewBox="0 0 32 32">
<title>uniE268</title>
<path d="M7.875 10.313l1.438-2.563h-1.125q-1.625 2.188-2.438 4.375-0.625 1.688-0.625 3.875 0 2.375 0.875 4.5 1 2.313 2.188 3.75h1.125q-2.625-4.125-2.625-8.25 0-1.563 0.375-3.25 0.375-1.5 0.813-2.438zM19.75 15.375q-0.125-1.313-0.875-1.938-0.813-0.563-2.188-0.563-1.75 0.063-3.563 1.438-1.688 1.313-1.875 3.125 0.125 1.188 0.875 1.813 0.688 0.563 2 0.688 2-0.125 3.75-1.375 1.688-1.313 1.875-3.188zM24.938 12.813l0.375 3.188q0 4.125-2.625 8.25h1.125q1.188-1.438 2.188-3.75 0.875-2.125 0.875-4.5 0-2.188-0.625-3.875-0.813-2.188-2.438-4.375h-1.125l1.375 2.563z"></path>
</svg>
