<!-- Generated by IcoMoon.io -->
<svg version="1.1" xmlns="http://www.w3.org/2000/svg" width="34" height="32" viewBox="0 0 34 32">
<title>uniE227</title>
<path d="M24.125 17.813q0.375-1.313 1.875-2.125 1.25 1.688 1.313 4.5 0.063 2.688-1.313 3.063h-0.25q-0.813 0-1.375-0.938-0.688-1.125-0.563-2.375 0-0.75 0.313-2.125zM16.938 18.563q0-0.625 0.063-0.938 0.188-1.313 1.438-1.375 0.688 0 0.875 0.938 0.188 1-2.188 2.563-0.188-0.5-0.188-1.188zM9.063 8.063q-0.5 1.813-1.375 3.063-0.938 1.563-1 1.813 0 0.625 0.375 1l2.063 2.625q0.313 0.5 0.438 1.125-0.125 1.688-1.688 2.5-1.5 0.813-2.438 1.5-1.375 0.938-1.5 2.125 0.188 0.625 0.75 0.563 1-0.188 2.438-1.625 1.25-1.25 1.875-2.125 1.5 0.875 2.188 2.5 0.188 1.063 0.813 1.25l3.5-2.625 0.563 1.125q0.313 0.625 0.938 1.25 0.375 0.375 0.813 0.375 0.313 0 0.688-0.188l3.688-2.563q0.75 2.313 3.188 2.625 2-0.063 3.25-1.688 1.25-1.563 1.25-3.188-0.063-4.5-3.938-6.938-4-2.375-8.375-2.938l-0.063 0.688q2.25 0.438 4.438 1.5t3.625 3.125q-4.063 1.875-3.625 6.063-1.125 1.188-2.813 1.5-0.75-0.063-1.25-0.75-0.188-0.313-0.688-1.25 1-0.5 2.188-1.625 1.063-0.813 1.375-2.188-0.063-1.563-1.813-1.75-2.25 0.313-3.063 2.25-0.625 1.313-0.625 2.813 0 0.563 0.063 0.875-0.625 0.688-1.375 0.875-0.625-0.313-1.094-0.563t-0.844-0.438q-0.938-0.5-2.563-0.75l1.313-1.875q0.813-1.063 0.875-1.875-0.125-0.813-0.5-1.125l-2.063-2.625q-0.5-0.688-0.313-1.563l1.313-2.938q1.5 0.313 2.688 0.938 1.25 0.688 1.625 2.063v0.188q0 0.625-0.688 1l-0.5 0.125q-0.313 0-0.813-0.25-0.563-0.375-0.875-1.125l-0.75 0.313q0.375 1.063 1.25 2.063 1 1 2.313 1 1.938-0.313 1.938-2.063-0.188-2.25-2.188-3.5-2.188-1.375-4.5-1.375-3.563 0-6.125 1.688-2.688 1.688-2.875 4.063-0.063 1.25 0.563 2.188 0.625 0.813 2.125 0.938 1.375-0.125 2.188-1.375 0.625-0.875 0.625-2.188 0-0.563-0.063-0.813l-0.75-0.063q-0.063 1.375-1.313 2.063l-0.438 0.063q-1.188 0-1.188-1.375 0.188-2.188 2.375-3.313 2.188-1.063 4.375-1.188zM31.563 21.625q-1.313 0.125-1.5 1.375 0.188 1.313 1.5 1.375 1.375-0.063 1.563-1.375-0.188-1.313-1.563-1.375z"></path>
</svg>
