<!-- Generated by IcoMoon.io -->
<svg version="1.1" xmlns="http://www.w3.org/2000/svg" width="32" height="32" viewBox="0 0 32 32">
<title>uniE176</title>
<path d="M9.75 9v3.813h0.375q0.188-1.625 1.125-2.438 0.688-0.563 2.063-0.563h1v10.75q0 0.938-0.125 1.313-0.063 0.25-0.438 0.5-0.375 0.188-0.938 0.188h-0.5v0.375h7.313v-0.375h-0.438q-0.563 0-0.938-0.188-0.313-0.188-0.5-0.438-0.063-0.188-0.063-1.375v-10.75h1q1 0 1.375 0.188 0.563 0.188 1.125 0.875 0.438 0.75 0.688 1.938h0.375v-3.813h-12.5z"></path>
</svg>
