<!-- Generated by IcoMoon.io -->
<svg version="1.1" xmlns="http://www.w3.org/2000/svg" width="32" height="32" viewBox="0 0 32 32">
<title>uniE276</title>
<path d="M16.625 21.688q6.125 0 12.125 4.688l0.563 0.375 0.813-1-0.563-0.438q-6.25-4.938-12.875-4.938-7.063 0-14.25 5.5l-0.563 0.375 0.813 1.063 0.5-0.375q7.063-5.25 13.438-5.25zM13.313 5.938h2.75q0.813 0 1.313 0.125 0.625 0.188 0.938 0.625 0.313 0.5 0.313 1.188 0 0.875-0.563 1.438-0.625 0.5-2 0.5h-2.75v-3.875zM13.313 11.063h2.75q2.313 0 3.125-0.938 0.875-0.875 0.875-2.313 0-0.938-0.313-1.5-0.25-0.563-0.875-1-0.5-0.438-1.313-0.5-0.75-0.125-1.625-0.125h-4.063v10.75h1.438v-4.375z"></path>
</svg>
