<!-- Generated by IcoMoon.io -->
<svg version="1.1" xmlns="http://www.w3.org/2000/svg" width="38" height="32" viewBox="0 0 38 32">
<title>uniE148</title>
<path d="M36.563 17.063h-0.875v-1.313h-8.063v-0.875h8.938v2.188zM10 15.75h-8.063v1.313h-0.875v-2.188h8.938v0.875zM22.375 17.625l1.375-4.438 0.125-0.625q0-0.313-0.438-0.313-0.313 0-0.531 0.188t-0.281 0.25l-2.188 2.313-0.375 0.688-0.563 1.938q0 0.063-0.063 0.156t-0.25 0.094h-3.063q-0.25 0-0.25-0.188 0-0.125 0.188-0.188 4.75-3.938 7.125-7.125 0.125-0.125 0.125-0.375 0-0.313-0.375-0.313-0.25 0-0.75 0.188t-0.813 0.188-0.875-0.188-0.75-0.188-0.281 0.156-0.156 0.219q-0.438 1.813-1.813 3.813-0.813 1.125-1.906 2.313t-1.469 1.625q-0.375 0.25-0.375 0.563 0 0.438 0.625 0.438h4.563q0.25 0 0.188 0.25l-0.563 1.813q-0.063 0.188-0.156 0.281t-0.281 0.094l-1.188 0.125q-0.438 0-0.438 0.438 0 0.188 0.125 0.344t0.375 0.156h5.688q0.5 0 0.5-0.5 0-0.438-0.438-0.438l-1.125-0.125q-0.188-0.063-0.219-0.188t0.031-0.313l0.563-1.688q0-0.25 0.313-0.25h1.125q0.563 0 0.563-0.5 0-0.438-0.5-0.438h-0.938q-0.25 0-0.188-0.25z"></path>
</svg>
