<!-- Generated by IcoMoon.io -->
<svg version="1.1" xmlns="http://www.w3.org/2000/svg" width="32" height="32" viewBox="0 0 32 32">
<title>uniE124</title>
<path d="M15.438 6.5q0.188 2.188-0.875 3.875-1.063 1.813-2.563 3.125l5.563 7.188v0.063q-1.75-0.813-2.75-0.813-3.125 0.125-3.375 3.063 0.188 2.063 1.688 3.563 1.5 1.563 3.188 2.813l0.5-0.75q-0.813-0.688-1.5-2.063-0.313-0.563-0.313-1.313 0-0.938 0.5-1.688 0.75-1.125 1.875-1.063 1.25 0.125 2.5 0.813l0.5-0.75q-1.438-1.688-2.25-3-1.063-1.625-1.188-3.5 0.375-3.063 3.625-6.563l-5.688-6.813h-1.5q1.625 1.688 2.063 3.813z"></path>
</svg>
