<!-- Generated by IcoMoon.io -->
<svg version="1.1" xmlns="http://www.w3.org/2000/svg" width="32" height="32" viewBox="0 0 32 32">
<title>uniE179</title>
<path d="M15.938 12l2.125 4.938h-4.25zM19.375 20.625q0 0.313-0.25 0.5-0.375 0.25-1 0.25v0.313h4.813v-0.313q-0.625 0-1.125-0.375-0.438-0.375-0.938-1.625l-4.25-10.188h-0.313l-4.313 10.063q-0.563 1.375-1 1.75-0.313 0.313-1 0.375v0.313h3.813v-0.313q-0.875-0.125-1.125-0.25-0.25-0.25-0.25-0.5 0-0.5 0.313-1.063l0.813-1.938h4.75l0.688 1.75q0.375 0.813 0.375 1.25zM3.688 27.875h24.625v-23.75h-24.625v23.75zM29.188 3.25v25.5h-26.375v-25.5h26.375z"></path>
</svg>
