<!-- Generated by IcoMoon.io -->
<svg version="1.1" xmlns="http://www.w3.org/2000/svg" width="32" height="32" viewBox="0 0 32 32">
<title>uniE219</title>
<path d="M30.125 7.125h-29.25v15.813h-0.875v-16.688h30.125v0.875zM31.938 6.25v0.875h-30.938v-0.875h30.938zM10 21.375l1.188-1.063q0.938-0.938 1.375-1.875 0.438-0.813 0.438-1.813 0.125-1.375-0.938-2.25-1.125-0.938-2.75-0.813-0.875 0-1.75 0.188t-1.375 0.438v2.25h0.188l0.375-0.25q0.375-0.25 0.625-0.313 0.188-0.125 0.688-0.25t0.75-0.125q0.75 0 1.188 0.375 0.438 0.438 0.438 1.125t-0.375 1.25q-0.5 0.813-1.063 1.375l-1.313 1.25-1.75 1.438v1.688h7.5v-1.938h-4.313zM14.875 21.313v2.688h2.375v-2.688h-2.375z"></path>
</svg>
