<!-- Generated by IcoMoon.io -->
<svg version="1.1" xmlns="http://www.w3.org/2000/svg" width="32" height="32" viewBox="0 0 32 32">
<title>uniE213</title>
<path d="M9.156 25.563q-3.281-2.5-4.281-6.5l1.625-0.438q0.875 3.25 3.781 5.5t6.281 2.25q2.688 0 5.063-1.469t3.844-3.844 1.469-5.063-1.469-5.063-3.844-3.844-5.063-1.469q-3.313 0-6.156 2.125t-3.844 5.25l-1.563-0.5q1.188-3.875 4.375-6.25t7.188-2.375q3.25 0 6.031 1.625t4.406 4.406 1.625 6.094q0 3.25-1.625 6.031t-4.406 4.406-6.031 1.625q-4.125 0-7.406-2.5zM4.563 7l7.438 4.563-7.125 2.563z"></path>
</svg>
