<!-- Generated by IcoMoon.io -->
<svg version="1.1" xmlns="http://www.w3.org/2000/svg" width="32" height="32" viewBox="0 0 32 32">
<title>uniE190</title>
<path d="M19.5 21.188h-7.063q-0.813-0.063-1.344-0.625t-0.594-1.313q-0.063-0.875 0.5-1.5t1.438-0.688h7.063q1.75 0 2.938-1.188l0.063-0.125q1.125-1.125 1.125-2.75 0-1.688-1.219-2.875t-2.906-1.188h-7.063v-3.125l-4.063 4.063 4.063 4.063v-3.063h7.063q0.813 0.063 1.344 0.625t0.594 1.313q0.063 0.875-0.5 1.5t-1.438 0.688h-7.063q-1.75 0-2.875 1.188-1.313 1.188-1.188 2.875 0 1.688 1.188 2.875t2.875 1.125h7.125v3.063l4.125-4.063-4.188-4.063v3.188z"></path>
</svg>
