<!-- Generated by IcoMoon.io -->
<svg version="1.1" xmlns="http://www.w3.org/2000/svg" width="32" height="32" viewBox="0 0 32 32">
<title>uniE238</title>
<path d="M28.125 9.938q0 2.25-1.813 1.938-1.75-0.25-3.375-0.688-0.188-0.063-0.5-0.063-0.25 0-0.313 0.156t-0.063 0.469v0.438q0.125 0.75 0.125 0.938 0.063 0.25 0.063 1.125 0 2.188-1.813 1.875 0.5 0.063-3.375-0.625l-0.5-0.063q-0.25 0-0.313 0.125t-0.063 0.5l0.188 1.25q0.063 0.313 0.063 1.188 0 2.188-1.813 1.875 0.5 0.063-3.375-0.625l-0.5-0.063q-0.25 0-0.344 0.156t-0.031 0.656q0.125 0.875 0.125 1.063 0.063 0.313 0.063 1.188 0 2.188-1.813 1.875 0.5 0.063-3.375-0.625-0.25-0.063-0.563-0.063-0.25 0-0.313 0.188t0 0.813q0 0.25-0.219 0.406t-0.406-0.281q-0.188-0.75-0.188-1.375 0-1.063 0.375-1.688 0.313-0.563 0.875-0.563 0.5-0.063 1.563-0.063 1.375 0 1.813 0.063 1.125 0 1.25-1.625v-0.5q0-1 0.313-1.563 0.375-0.563 0.938-0.563 0.438-0.063 1.5-0.063 1.438 0 1.813 0.063 1.125 0 1.25-1.438v-0.5q0-1.125 0.313-1.75 0.25-0.438 0.563-0.5t0.375-0.063q0.5-0.063 1.563-0.063 1.375 0 1.813 0.063 1.125 0 1.25-1.625v-0.188q0-1.25 0.375-1.938 0.25-0.438 0.875-0.563 0.375-0.063 1.188-0.063l2.188 0.063q1.125 0.063 1.25-1.563 0-0.5 0.25-0.5 0.313 0 0.438 0.563 0.25 1.188 0.25 1.688 0.063 0.313 0.063 1.125z"></path>
</svg>
