<!-- Generated by IcoMoon.io -->
<svg version="1.1" xmlns="http://www.w3.org/2000/svg" width="32" height="32" viewBox="0 0 32 32">
<title>uniE169</title>
<path d="M8.813 14.563q0.25 0 0.375 0.125 0.125 0.063 0.125 0.25 0 0.438-0.25 1.188l-1.438 4.813h1.188l0.25-1 0.375-1.063 0.563-1.125q0.563-0.938 1.375-2 0.5-0.5 0.625-0.563 0.063-0.063 0.25-0.063 0.125 0 0.125 0.063 0.063 0 0.125 0.188 0 0.125 0.125 0.375 0.063 0.063 0.313 0.063 0.438 0 0.5-0.313 0.313-0.5 0.313-1 0-0.25-0.188-0.438-0.125-0.125-0.375-0.125-0.375 0-1 0.5-1.125 0.938-2.5 3.25l1.125-3.75-2.688 0.438 0.063 0.25zM16.5 11.063q-0.25 0.25-0.25 0.563t0.25 0.563 0.5 0.25q0.313 0 0.563-0.25 0.25-0.375 0.25-0.563 0-0.313-0.25-0.563-0.188-0.188-0.563-0.188-0.313 0-0.5 0.188zM15.188 14.563q0.188 0 0.313 0.125l0.125 0.25q0 0.188-0.094 0.469t-0.156 0.594l-1 3.5q-0.188 0.625-0.188 0.938t0.188 0.5 0.5 0.188q0.563 0 1-0.438 0.625-0.438 1.25-1.313l-0.25-0.188q-0.625 0.75-0.938 0.938-0.063 0.125-0.25 0.125-0.125 0-0.188-0.063t-0.063-0.188l0.188-0.625 1.5-5.438-2.688 0.438v0.313zM20.375 13.625q-0.438 0.375-1.375 0.688l-0.125 0.313h1.188l-1.313 4.438q-0.25 1.125-0.25 1.313 0 0.25 0.25 0.5 0.188 0.25 0.563 0.25t0.875-0.313q0.75-0.5 1.313-1.438l-0.25-0.188-0.813 0.938q-0.25 0.25-0.5 0.25-0.125 0-0.188-0.063v-0.188q0-0.313 0.188-0.938l1.313-4.563h1.25l0.125-0.5h-1.25l0.625-2.125h-0.375q-0.688 1.125-1.25 1.625zM23.063 19.75q-0.25 0.25-0.25 0.563t0.25 0.563 0.5 0.25q0.313 0 0.563-0.25t0.25-0.563-0.25-0.563q-0.188-0.188-0.563-0.188-0.313 0-0.5 0.188z"></path>
</svg>
