<!-- Generated by IcoMoon.io -->
<svg version="1.1" xmlns="http://www.w3.org/2000/svg" width="32" height="32" viewBox="0 0 32 32">
<title>uniE216</title>
<path d="M10.813 16.938q-1.188 0.063-1.313 1.125 0.125 1 1.313 1.125 1.25-0.125 1.313-1.125-0.063-1.063-1.313-1.125zM12.813 13.25q-1.563-0.875-1.688-2.25 0.063-1.438 1.313-1.625 0.375 0 0.625 0.188 0.313 0.188 0.375 0.813 0.375 1.375 1.438 1.188h0.125q0.5 0 0.875-0.375 0.438-0.438 0.375-1.063-0.188-1-1.063-1.5-1-0.5-2-0.5-1.563 0.125-2.563 1.188-1 1.125-1.125 2.563 0.063 1.938 1.625 3.063 1.438 1.25 3.125 2l-4.813 6.813h1.375l4.5-6.375q0.5 0.25 1.25 0.594t1.688 0.844q1.688 0.875 1.75 2.25-0.188 1.438-1.313 1.563-0.313 0.125-0.625-0.125-0.25-0.188-0.438-0.813-0.25-1.313-1.375-1.188h-0.188q-0.5 0-0.813 0.375-0.5 0.5-0.375 1.063 0.188 0.938 1.063 1.5 1 0.5 2 0.5 1.563-0.063 2.563-1.25 1.063-1.188 1.063-2.563-0.063-1.875-1.563-3.063-1.813-1.375-3.125-1.938l5-6.813h-1.5l-4.563 6.375q-2.375-1.125-3-1.438zM21.313 12.875q-1.188 0.063-1.313 1.125 0.125 1 1.313 1.125 1.125-0.125 1.313-1.125-0.188-1.063-1.313-1.125z"></path>
</svg>
