<!-- Generated by IcoMoon.io -->
<svg version="1.1" xmlns="http://www.w3.org/2000/svg" width="38" height="32" viewBox="0 0 38 32">
<title>uniE151</title>
<path d="M36.313 17h-0.875v-1.313h-8.063v-0.875h8.938v2.188zM9.75 15.688h-8.063v1.313h-0.875v-2.188h8.938v0.875zM14.188 14q0 0.375 0.438 0.375 0.5 0 0.625-0.438 0.25-0.813 0.594-1.25t0.906-0.438q0.688 0 1.5 0.313 1.125 0.375 1.875 0.375 1.063 0 2.125-0.688 0.188-0.125 0.281-0.031t-0.031 0.281q-0.5 0.75-1.094 1.313t-1.313 1.156-1.219 0.969q-3.063 2.313-4.063 5.875l-0.125 0.313q0 0.313 0.313 0.313t0.844-0.156 0.781-0.156 0.719 0.156 0.719 0.156q0.438 0 0.438-0.375 0.563-2.125 1.125-3.5t1.813-2.813q2.25-2.5 3.063-5.25 0.063-0.125 0.063-0.5t-0.5-0.375-0.688 0.438q-0.25 0.875-1.063 0.875-0.563 0-1.375-0.563-1.063-0.813-2.063-0.813t-1.938 0.813q-0.375 0.375-0.5 0.375l-0.031-0.031t-0.031-0.094q0-0.125 0.063-0.281t0.063-0.406q0-0.313-0.438-0.313-0.5 0-0.625 0.438l-1.188 3.688z"></path>
</svg>
