<!-- Generated by IcoMoon.io -->
<svg version="1.1" xmlns="http://www.w3.org/2000/svg" width="32" height="32" viewBox="0 0 32 32">
<title>uniE208</title>
<path d="M29.625 25.875v3.813h-2.625v-3.813h2.625zM29.625 17.875v3.813h-2.625v-3.813h2.625zM29.625 9.875v3.875h-2.625v-3.875h2.625zM29.625 2.313v3.75h-2.625v-3.75h2.625zM21.688 22.625v0.875h-19.313v-0.875h19.313zM21.688 19.063v0.875h-19.313v-0.875h19.313zM21.688 15.563v0.875h-19.313v-0.875h19.313zM21.688 12.063v0.875h-19.313v-0.875h19.313zM21.688 8.563v0.875h-19.313v-0.875h19.313zM22.125 8.563v14.938h-0.875v-14.938h0.875z"></path>
</svg>
