<!-- Generated by IcoMoon.io -->
<svg version="1.1" xmlns="http://www.w3.org/2000/svg" width="32" height="32" viewBox="0 0 32 32">
<title>uniE214</title>
<path d="M31.938 5.375v0.25h-29.688v-0.25h29.688zM31.938 10.625v0.25h-29.688v-0.25h29.688zM31.938 15.875v0.25h-29.688v-0.25h29.688zM31.938 21.188v0.25h-29.688v-0.25h29.688zM31.938 26.438v0.25h-29.688v-0.25h29.688zM7.938 0.188v31.625h-0.875v-31.625h0.875zM4.438 0.188v31.625h-4.375v-31.625h4.375zM15.656 10.969q0.656 0.656 0.656 1.531 0 0.938-0.656 1.563t-1.531 0.625q-0.938 0-1.594-0.625t-0.656-1.563q0-0.875 0.656-1.531t1.594-0.656q0.875 0 1.531 0.656zM15.656 17.969q0.656 0.656 0.656 1.594 0 0.875-0.656 1.531t-1.531 0.656q-0.938 0-1.594-0.656t-0.656-1.531q0-0.938 0.656-1.594t1.594-0.656q0.875 0 1.531 0.656z"></path>
</svg>
