<!-- Generated by IcoMoon.io -->
<svg version="1.1" xmlns="http://www.w3.org/2000/svg" width="32" height="32" viewBox="0 0 32 32">
<title>uniE139</title>
<path d="M25.688 5.375v3.875h-12.063v-3.875h12.063zM13.625 11.375v3.875h12.063v-3.875h-12.063zM13.625 17.375v3.875h12.063v-3.875h-12.063zM29.063 25.563q-1.688 0-3.438 1.375-1.563 1.313-1.75 3.063 0 1.063 0.875 1.625 0.813 0.625 1.938 0.688 1.938-0.125 3.5-1.25 1.625-1.313 1.75-3.188v-22.5h-0.625v20.875q-0.75-0.688-2.25-0.688zM5.188 25.188q-1.688 0.125-3.438 1.375-1.5 1.313-1.688 3.063 0 1.063 0.875 1.625 0.563 0.563 1.938 0.688 1.938-0.125 3.5-1.25 1.688-1.375 1.688-3.188v-22.5h-0.625v20.875q-0.813-0.688-2.25-0.688z"></path>
</svg>
