<!-- Generated by IcoMoon.io -->
<svg version="1.1" xmlns="http://www.w3.org/2000/svg" width="32" height="32" viewBox="0 0 32 32">
<title>uniE183</title>
<path d="M7 15q0.5-0.25 1.125-0.25v5.563q0 0.563-0.125 0.813-0.25 0.125-0.813 0.125v0.313h3.75v-0.313q-0.75 0-0.875-0.125-0.125-0.375-0.125-0.813v-5.563q0.625 0 1.125 0.25 0.813 0.5 0.875 1.625h0.25v-2.125h-6.313v2.125h0.25q0.188-1.188 0.875-1.625zM13.094 14.844q-0.094 0.156-0.094 0.344 0 0.375 0.25 0.625t0.625 0.25 0.625-0.25 0.25-0.625-0.25-0.625q-0.375-0.25-0.625-0.25t-0.625 0.25q-0.063 0.125-0.156 0.281zM12.438 21.688h2.563v-0.25q-0.25-0.063-0.313-0.188-0.125-0.063-0.125-0.438v-4h-2v0.25q0.313 0.063 0.438 0.188 0.063 0.063 0.063 0.438v3.063q0 0.375-0.188 0.5 0 0.188-0.313 0.188h-0.125v0.25zM16.125 17.125v3.438q0 0.688 0.563 1 0.375 0.125 0.625 0.125 0.813 0 1.125-0.438 0.313-0.188 0.438-0.688l-0.25-0.063q-0.063 0.063-0.25 0.438-0.063 0.063-0.156 0.125t-0.219 0.063q-0.188 0-0.375-0.313-0.063-0.063-0.063-0.313v-3.188h0.938v-0.438h-0.938v-1.75h-0.25q-0.625 0.875-0.875 1.125l-0.563 0.563q-0.25 0.063-0.313 0.25v0.063h0.563zM18.938 21.625h2.563v-0.25q-0.188 0-0.281-0.094t-0.156-0.094q-0.063-0.063-0.063-0.438v-6.25h-2.063v0.25l0.438 0.188q0.125 0.063 0.125 0.438v5.438q0 0.188-0.063 0.281t-0.063 0.156-0.313 0.188h-0.125v0.188zM23.688 17.5q0.25-0.438 0.563-0.438 0.438 0 0.5 0.313 0.188 0.438 0.188 1.375h-1.375q0-0.75 0.125-1.25zM22.156 18.188q-0.156 0.5-0.281 1.125 0 1.313 0.688 1.938 0.813 0.625 1.5 0.625t0.938-0.188q0.688-0.375 1.188-1.125l-0.25-0.188q-0.188 0.125-0.313 0.25t-0.25 0.188q-0.438 0.313-0.688 0.313-0.75 0-1.063-0.938-0.188-0.75-0.188-1h2.75v-0.438l-0.25-1q-0.188-0.375-0.75-0.813-0.5-0.25-0.938-0.25-0.813 0-1.625 0.688-0.313 0.313-0.469 0.813zM27.5 10.125v1.375h-22.938v-1.375h22.938z"></path>
</svg>
