<!-- Generated by IcoMoon.io -->
<svg version="1.1" xmlns="http://www.w3.org/2000/svg" width="32" height="32" viewBox="0 0 32 32">
<title>uniE173</title>
<path d="M22.375 29.063q-0.813-0.625-0.813-1.75 0.063-1.75 1.75-3.063 1.813-1.375 3.813-1.375 1.313 0 2 0.625v-12.25h-5.5v-3.313h5.5v-2.375h-18.688v19.625q-0.063 1.938-1.813 3.25-1.75 1.25-3.688 1.25-1.188 0-1.875-0.625-0.813-0.625-0.813-1.75 0-1.688 1.75-3.063t3.813-1.375q1.25 0 1.938 0.625v-21.188h20.063v22.875q-0.188 1.938-1.875 3.25-1.75 1.25-3.625 1.25-1.25 0-1.938-0.625zM11.813 26.313q0.375-0.375 0.938-0.375 0.5 0 0.875 0.375t0.375 0.875-0.375 0.875-0.875 0.375q-0.563 0-0.938-0.375t-0.375-0.875 0.375-0.875z"></path>
</svg>
