<!-- Generated by IcoMoon.io -->
<svg version="1.1" xmlns="http://www.w3.org/2000/svg" width="32" height="32" viewBox="0 0 32 32">
<title>uniE174</title>
<path d="M12.25 25.844q-0.375 0.344-0.375 0.844t0.375 0.875 0.875 0.375 0.875-0.375 0.375-0.875-0.375-0.844-0.875-0.344-0.875 0.344zM29.563 7.563v-2h-18.625v2h18.625zM30.25 24.688h-0.063q0 1-0.75 2.031t-2.063 1.781q-1.5 0.75-3 0.75-1.938 0-2.563-1.188-0.313-0.5-0.313-1.125 0-1 0.781-2.031t2.094-1.781q1.438-0.813 2.938-0.813t2.25 0.813v-7.313h-7.563v-3.25h7.563v-1.75h-18.625v14q0 1-0.75 2.031t-2.063 1.719q-1.438 0.813-3 0.813-0.875 0-1.563-0.313t-1-0.938q-0.313-0.5-0.313-1.125 0-1 0.781-2.031t2.094-1.781q1.563-0.875 3-0.875 1.375 0 2.188 0.813v-20.938h19.938v22.5z"></path>
</svg>
