<!-- Generated by IcoMoon.io -->
<svg version="1.1" xmlns="http://www.w3.org/2000/svg" width="32" height="32" viewBox="0 0 32 32">
<title>uniE206</title>
<path d="M30.938 19.25v0.875h-30.313v-0.875h30.313zM30.938 15.688v0.938h-30.313v-0.938h30.313zM30.938 12.188v0.875h-30.313v-0.875h30.313zM30.938 8.688v0.875h-30.313v-0.875h30.313zM30.938 5.188v0.875h-30.313v-0.875h30.313zM31.375 5.188v14.938h-0.875v-14.938h0.875zM5.938 24.188v2.625h-3.875v-2.625h3.875zM13.938 24.188v2.625h-3.813v-2.625h3.813zM22 24.188v2.625h-3.875v-2.625h3.875zM29.563 24.188v2.625h-3.875v-2.625h3.875z"></path>
</svg>
