<!-- Generated by IcoMoon.io -->
<svg version="1.1" xmlns="http://www.w3.org/2000/svg" width="32" height="32" viewBox="0 0 32 32">
<title>uniE182</title>
<path d="M13.625 9.813v-2.5h-8.313v2.5h0.5q0.25 0 0.375-0.5t0.25-0.75q0.438-0.75 0.688-0.75h1.313v6.813q0 0.188-0.125 0.438-0.188 0-0.313 0.125-0.063 0.063-0.375 0.063-0.5 0-0.5 0.188v0.375h4.688v-0.375q0-0.188-0.563-0.188-0.313 0-0.375-0.063l-0.25-0.313q-0.125-0.125-0.125-0.375v-6.688h1.313q0.188 0 0.406 0.344t0.281 0.406q0.125 0.188 0.281 0.719t0.406 0.531h0.438zM26.813 17.625v0.875h-21.625v-0.875h21.625zM26.813 20.625v0.875h-21.625v-0.875h21.625zM26.813 23.875v0.875h-21.625v-0.875h21.625z"></path>
</svg>
