<!-- Generated by IcoMoon.io -->
<svg version="1.1" xmlns="http://www.w3.org/2000/svg" width="32" height="32" viewBox="0 0 32 32">
<title>uniE201</title>
<path d="M14.313 38.25q-0.688-0.5-0.75-1.25 0.063-0.625 0.625-1.063 0.438-0.375 1.063-0.563-0.438-0.563-0.563-1.313 0.125-0.688 0.625-1.063-0.688-0.188-1.25-0.563-1.125-0.75-1.313-2.063 0-1 0.438-1.625 0.438-0.688 1.375-0.875h0.188q0.688 0 1.188 0.5 0.563 0.5 0.625 1.375 0 1.125-0.75 1.5-0.688 0.438-1.25 0.313 0.125 0.5 0.688 0.688 0.688 0.188 1.063 0.125 2.688-0.375 2.75-2.875 0-0.625-0.188-1.375l-0.688-3.125q-1.063 0.313-1.688 0.313-2.563-0.063-4.375-1.875-1.75-1.938-2-4.625-0.125-2.875 1.563-5 1.625-2.125 3.563-4-0.563-2.063-0.563-4.25 0-1.563 0.625-3.438 0.625-1.938 2-2.625h0.063q0.375 0 0.875 0.875 0.563 1.125 0.875 2.313 0.438 1.5 0.438 2.5-0.125 4.125-3.188 7.188l0.625 3.25q0.25-0.063 0.75-0.063 1.813 0 3.063 1.438 1.125 1.313 1.125 3.25 0 1.438-0.813 2.688-1 1.188-2.25 1.813l0.75 3.938q0.063 0.313 0.063 0.875-0.125 2.438-2.125 3.188l0.438 0.313q0.625 0.438 0.625 1.25-0.063 0.5-0.438 0.813l-0.813 0.5q0.5 0.625 0.625 1.375 0 0.875-0.75 1.25t-1.5 0.375q-0.688 0-1.438-0.375zM16.5 38.063q0.313-0.125 0.313-0.625-0.188-0.5-0.563-1l-0.813-0.813q-1 0.5-1.063 1.5 0.125 0.563 0.438 0.813 0.5 0.313 0.938 0.313 0.375 0 0.75-0.188zM17.875 34.188q0-0.5-0.313-0.813-0.188-0.375-0.688-0.375-0.313 0-0.5 0.063h-0.063q-0.375 0.25-0.438 0.625 0 0.5 0.438 0.938l0.75 0.75q0.625-0.375 0.813-1.188zM0.188 26.438h31.625v0.25h-31.625v-0.25zM0.188 21.125h31.625v0.25h-31.625v-0.25zM18.125 24.375l-1.25-6.438q-0.938 0.313-1.438 1-0.563 0.75-0.563 1.625 0.063 1.563 1.5 2.125 0.125 0.063 0.125 0.188 0 0.188-0.25 0.188-1.063-0.375-1.813-1.313-0.688-1.063-0.688-2.25 0-1.125 0.813-2.25 0.75-1.063 1.875-1.438l-0.563-2.938q-1.563 1.25-2.938 3.063-1.25 1.625-1.375 3.938 0.125 2.25 1.563 3.563 1.688 1.25 3.75 1.188 0.375 0 1.25-0.25zM20.625 20.938q-0.063-1.375-1-2.188-0.875-0.875-2.188-0.875l1.313 6.313q1.875-1.063 1.875-3.25zM0.188 15.875h31.625v0.25h-31.625v-0.25zM0.188 10.625h31.625v0.25h-31.625v-0.25zM0.188 5.313h31.625v0.25h-31.625v-0.25zM17.875 6.813q0.875-1.563 0.875-3.188 0-0.438-0.313-0.875-0.188-0.375-0.75-0.375-1.188 0.375-1.688 1.875-0.438 1.188-0.563 2.625 0.125 1.563 0.375 2.438 1.375-1.25 2.063-2.5z"></path>
</svg>
