<!-- Generated by IcoMoon.io -->
<svg version="1.1" xmlns="http://www.w3.org/2000/svg" width="32" height="32" viewBox="0 0 32 32">
<title>uniE199</title>
<path d="M9.25-0.25h0.813v10.625q1.25-0.938 1.75-2.313 0.563-1.375 0.75-2.5h0.063q0.063 0.813 0.625 1.938 0.5 0.875 1.625 1.063 1.563 0 1.938-1.438 0.25-1.5 0.188-2.688 0.063-1.5-0.375-2.688-0.375-1.125-2.063-1.313h-0.25q-0.313 0-0.563 0.063-0.438 0.125-0.438 0.563 0 0.188 0.438 0.5 0.375 0.375 0.438 1.063-0.188 1.25-1.5 1.313-1.25-0.188-1.375-1.625 0.125-1.438 1.313-2 1.313-0.563 2.563-0.563 2 0 3.375 1.375 1.25 1.438 1.25 3.688 0 1.75-1.063 3.125-1.063 1.25-2.875 1.438-0.938 0.063-2.25-0.375l-0.938 1.563 0.938 1.563q1.313-0.5 2.25-0.375 1.813 0.188 2.875 1.438 1.063 1.313 1.125 3.125-0.125 2.313-1.313 3.625-1.25 1.313-3.375 1.438-1.313 0-2.563-0.625-1.25-0.563-1.313-2 0-0.688 0.375-1.125 0.375-0.375 1-0.5 1.313 0.063 1.5 1.375-0.125 0.75-0.438 1-0.438 0.313-0.438 0.563 0 0.375 0.438 0.5 0.5 0.188 0.813 0.188 1.688-0.188 2.063-1.438 0.438-1.375 0.375-2.75 0.125-1.313-0.25-2.625-0.25-1.375-1.875-1.375-1.125 0.188-1.625 1.063-0.563 1.125-0.625 1.938h-0.063q-0.188-1-0.75-2.563-0.563-1.313-1.75-2.25v10.625h-0.813v-21.625zM0.188 26.438h31.625v0.25h-31.625v-0.25zM0.188 21.125h31.625v0.25h-31.625v-0.25zM5.875-0.25h2.5v21.625h-2.5v-21.625zM0.188 15.875h31.625v0.25h-31.625v-0.25zM0.188 10.625h31.625v0.25h-31.625v-0.25zM0.188 5.313h31.625v0.25h-31.625v-0.25z"></path>
</svg>
