<!-- Generated by IcoMoon.io -->
<svg version="1.1" xmlns="http://www.w3.org/2000/svg" width="32" height="32" viewBox="0 0 32 32">
<title>uniE186</title>
<path d="M2.813 3.25h26.375v25.5h-26.375v-25.5zM13.125 20.188v-3.188l-1.75 0.75q-0.75 0.5-1 0.875-0.313 0.313-0.313 0.938 0 0.563 0.375 1.063 0.375 0.438 0.875 0.438 0.625 0 1.813-0.875zM9.063 21.5q-0.563-0.563-0.563-1.5 0-0.563 0.313-1.063 0.313-0.563 1.25-1.188 1.063-0.5 3.063-1.313v-0.313q0-1.25-0.375-1.688-0.438-0.438-1.188-0.438-0.563 0-0.875 0.313-0.313 0.25-0.313 0.688v0.5q0 0.438-0.25 0.688-0.188 0.188-0.5 0.188-0.375 0-0.563-0.25-0.25-0.25-0.25-0.625 0-0.75 0.813-1.438 0.813-0.625 2.25-0.625 1.063 0 1.813 0.375 0.438 0.25 0.75 0.875 0.188 0.375 0.188 1.563v4.25l0.188 0.375q0.063 0.063 0.25 0.063t0.25-0.063q0.313-0.125 0.688-0.625v0.5q-1 1.375-1.875 1.375-0.438 0-0.75-0.313-0.25-0.313-0.25-1.063-1.438 1.063-1.625 1.125-0.625 0.25-1 0.25-0.875 0-1.438-0.625zM28.313 27.875v-23.75h-24.625v23.75h24.625zM22.375 20.625q0.688-0.875 0.688-2.625 0-1.688-0.688-2.438-0.688-0.875-1.625-0.875-0.313 0-0.938 0.25-0.375 0.188-0.938 0.75v4.938q0.375 0.375 1 0.688 0.5 0.188 1 0.188 0.875 0 1.5-0.875zM18.938 21.938q-0.813-0.313-1.5-0.813v-8.563q0-1.313-0.125-1.688 0-0.375-0.188-0.438-0.063-0.125-0.375-0.125l-0.625 0.125-0.125-0.313 2.5-1h0.375v6q1.25-1.688 2.625-1.688 1.25 0 2.188 1.063 0.938 1.125 0.938 3 0 2.188-1.438 3.563-1.188 1.125-2.813 1.125-0.75 0-1.438-0.25z"></path>
</svg>
