<!-- Generated by IcoMoon.io -->
<svg version="1.1" xmlns="http://www.w3.org/2000/svg" width="32" height="32" viewBox="0 0 32 32">
<title>uniE180</title>
<path d="M7.375 8.938v1.875h0.375q0.125-0.438 0.438-0.875 0.25-0.5 0.5-0.5h1v4.875q0 0.125-0.063 0.156t-0.063 0.094q-0.063 0-0.094 0.063t-0.156 0.063q0 0.063-0.25 0.063-0.063 0.125-0.375 0.125v0.25h3.375v-0.25q-0.25 0-0.438-0.125l-0.25-0.063q-0.188-0.188-0.188-0.25-0.125-0.125-0.125-0.313v-4.688h1q0.188 0.063 0.5 0.5t0.438 0.875h0.375v-1.875h-6zM26.938 21.563v0.875h-21.625v-0.875h21.625zM26.938 24.813v0.875h-21.625v-0.875h21.625zM6 18.125h19.938v-10.938h-19.938v10.938zM26.813 6.313v12.688h-21.688v-12.688h21.688z"></path>
</svg>
