<!-- Generated by IcoMoon.io -->
<svg version="1.1" xmlns="http://www.w3.org/2000/svg" width="32" height="32" viewBox="0 0 32 32">
<title>uniE181</title>
<path d="M5.125 12.938h21.688v12.625h-21.688v-12.625zM9.063 21.25q0.25 0 0.25-0.063l0.25-0.063q0-0.063 0.063-0.156t0.063-0.156v-4.875h-1q-0.25 0-0.5 0.5-0.313 0.438-0.438 0.875h-0.375v-1.813h6v1.875h-0.375q-0.063-0.25-0.438-0.875-0.313-0.438-0.5-0.5h-1v4.75q0 0.188 0.125 0.25 0 0.125 0.188 0.25 0.125 0 0.25 0.125 0.188 0.063 0.438 0.063v0.25h-3.375v-0.313q0.313 0 0.375-0.125zM25.938 24.688v-10.875h-19.938v10.875h19.938zM5.313 9.563h21.625v0.875h-21.625v-0.875zM5.313 6.438h21.625v0.875h-21.625v-0.875z"></path>
</svg>
