<!-- Generated by IcoMoon.io -->
<svg version="1.1" xmlns="http://www.w3.org/2000/svg" width="32" height="32" viewBox="0 0 32 32">
<title>uniE155</title>
<path d="M4.75 23.438q-0.625-0.375-0.625-1.063 0.188-1.188 1.188-2 1.125-0.813 2.188-0.938 1.063 0 1.563 0.438v-13.563h0.375v14.688q0 1.125-1.188 2-1 0.813-2.313 0.938-0.813-0.125-1.188-0.5zM0.188 26.438h31.625v0.25h-31.625v-0.25zM11.438 19.25q-0.25-0.25-0.25-0.625t0.25-0.625 0.625-0.25 0.625 0.25 0.25 0.625-0.25 0.625-0.625 0.25-0.625-0.25zM0.188 21.125h31.625v0.25h-31.625v-0.25zM0.188 15.875h31.625v0.25h-31.625v-0.25zM15.813 16.625q-0.25-0.25-0.25-0.625t0.25-0.625 0.625-0.25 0.625 0.25 0.25 0.625-0.25 0.625-0.625 0.25-0.625-0.25zM0.188 10.625h31.625v0.25h-31.625v-0.25zM20.219 14q-0.281-0.25-0.281-0.625t0.281-0.625 0.594-0.25q0.375 0 0.656 0.25t0.281 0.625-0.281 0.625-0.656 0.25q-0.313 0-0.594-0.25zM24.625 9.875q1.125-0.875 2.313-0.938 0.813 0.125 1.188 0.5 0.625 0.375 0.625 1.063-0.063 1.063-1.125 2-1.188 0.813-2.25 0.938-1.063 0-1.563-0.438v13.563h-0.313v-14.688q0-1.188 1.125-2zM0.188 5.313h31.625v0.25h-31.625v-0.25z"></path>
</svg>
