<!-- Generated by IcoMoon.io -->
<svg version="1.1" xmlns="http://www.w3.org/2000/svg" width="32" height="32" viewBox="0 0 32 32">
<title>uniE193</title>
<path d="M13.5 32.813q-1.188-0.75-1.375-2.125 0-1.063 0.438-1.75 0.563-0.813 1.5-0.875h0.188q0.688 0 1.188 0.5 0.625 0.5 0.688 1.438 0 1.063-0.813 1.563t-1.25 0.313q0.063 0.563 0.688 0.75 0.688 0.188 1.125 0.188 2.813-0.438 2.875-3.063 0-0.688-0.188-1.438l-0.688-3.25q-0.938 0.25-1.813 0.25-2.688-0.125-4.563-1.938-1.813-1.938-2.125-4.875-0.063-2.875 1.625-5.25 1.813-2.25 3.75-4.125-0.625-2.5-0.625-4.563 0-1.375 0.688-3.563 0.625-1.938 2.125-2.75h0.063q0.375 0 0.875 0.875 0.563 1 0.938 2.438 0.375 1.188 0.5 2.625-0.188 4.375-3.375 7.625l0.688 3.375q0.25-0.063 0.75-0.063 2 0 3.188 1.5 1.25 1.438 1.25 3.438 0 1.688-0.938 2.813-0.813 1.188-2.375 1.875l0.875 4.125q0.063 0.375 0.063 0.938-0.125 3.188-3.5 3.688-1.25 0.063-2.438-0.688zM0.188 26.438h31.625v0.25h-31.625v-0.25zM0.188 21.125h31.625v0.25h-31.625v-0.25zM17.75 24.375l-1.313-6.75q-0.875 0.313-1.438 1.063-0.625 0.688-0.625 1.688 0.063 1.563 1.563 2.25 0.125 0 0.125 0.188t-0.25 0.188q-1.313-0.563-1.875-1.438-0.75-1.063-0.75-2.313 0-1.188 0.875-2.375 0.75-1 1.938-1.5l-0.625-3.063q-1.625 1.313-3.063 3.188-1.375 1.813-1.438 4.125 0.125 2.438 1.688 3.75 1.625 1.313 3.875 1.25 0.438 0 1.313-0.25zM20.375 20.75q-0.063-1.438-1-2.313-1-0.875-2.313-0.875l1.313 6.625q2-1.063 2-3.438zM0.188 15.875h31.625v0.25h-31.625v-0.25zM0.188 10.625h31.625v0.25h-31.625v-0.25zM0.188 5.313h31.625v0.25h-31.625v-0.25zM17.5 5.938q0.938-1.75 0.875-3.375 0-0.563-0.25-0.875-0.25-0.375-0.813-0.438-1.25 0.375-1.75 2-0.563 1.5-0.563 2.75 0 1.125 0.313 2.563 1.188-1 2.188-2.625z"></path>
</svg>
