<!-- Generated by IcoMoon.io -->
<svg version="1.1" xmlns="http://www.w3.org/2000/svg" width="32" height="32" viewBox="0 0 32 32">
<title>uniE138</title>
<path d="M17.938 13.563l4.375-1.813v1.813l-4.375 1.813v1.688l4.375-1.813v1.875l-4.375 1.75v8.625q-0.188 1.875-1.875 3.188-1.563 1.188-3.625 1.313-1.125 0-1.938-0.688-0.813-0.625-0.813-1.688 0.125-1.813 1.75-3.125 1.625-1.25 3.375-1.375 0.875 0 1.563 0.156t0.688 0.469v-6.563l-3.5 1.5v-1.813l3.5-1.563v-1.688l-3.5 1.563v-1.875l3.5-1.5v-1.813l-3.5 1.5v-1.813l3.5-1.5v-5.563h0.875v5.25l4.375-1.75v1.813l-4.375 1.813v1.813z"></path>
</svg>
