<!-- Generated by IcoMoon.io -->
<svg version="1.1" xmlns="http://www.w3.org/2000/svg" width="32" height="32" viewBox="0 0 32 32">
<title>uniE247</title>
<path d="M18 14.188l-2.313 6.063q-3.063 1.875-4 1.813-0.938-0.125-0.75-1.125l2.438-6.625q2.875-0.438 4.313-0.75 0.5 0 0.313 0.625zM14.75 8.125l-3 1.875-1 2.875h-4.75l-0.563 1.438h4.813l-2.625 6.688q-0.125 1.563 1.063 2.188 1.25 0.688 2.625 0.625 1.063-0.063 4.125-2h0.125l-0.563 1.375h2.938l2-5.25q0.313-1.063 1.313-2.625 1.063-1.625 2.313-1.813 0.438 0 0.438 0.313l-0.063 0.25q-0.125 0.25-0.125 0.688 0.063 1.188 1.188 1.25 1.563-0.063 1.563-1.813-0.188-1.625-2.063-1.75-2.438 0.25-3.75 2.25h-0.125q0.313-0.75 0.313-1.438v-0.125q0-0.75-0.938-0.75-1.688 0-3.25 0.313-1.188 0.313-2.938 0.313l1.75-4.875h-0.813z"></path>
</svg>
