<!-- Generated by IcoMoon.io -->
<svg version="1.1" xmlns="http://www.w3.org/2000/svg" width="38" height="32" viewBox="0 0 38 32">
<title>uniE147</title>
<path d="M36.625 17h-0.875v-1.313h-8.063v-0.875h8.938v2.188zM10.063 15.688h-8.063v1.313h-0.875v-2.188h8.938v0.875zM16.938 15.688q0 0.5 0.688 0.5h0.313q0.875 0 1.375 0.531t0.5 1.344q0 1.313-0.844 2.438t-2.281 1.125q-0.5 0-0.875-0.188t-0.375-0.438q0-0.188 0.219-0.25t0.281-0.125q0.813-0.5 0.813-1.5 0-0.563-0.375-0.906t-0.938-0.344q-0.688 0-1.156 0.594t-0.469 1.406q0 1.125 0.906 1.844t2.594 0.719q2.188 0 3.688-1.219t1.5-3.156q0-0.625-0.344-1.188t-0.969-0.875q-0.063-0.063-0.219-0.125t-0.156-0.188q0-0.063 0.156-0.125t0.281-0.188q1.125-0.438 1.844-1.219t0.719-1.781q0-1.25-1.063-2.031t-2.688-0.781-2.75 0.781-1.188 2.156q0 0.625 0.344 1.031t0.969 0.406 1.063-0.469 0.438-1.156q0-0.5-0.313-0.813-0.438-0.313-0.438-0.438 0-0.188 0.313-0.313t0.813-0.125q0.938 0 1.344 0.438t0.406 1.125q0 1.313-0.813 2.156t-2.313 0.844h-0.313q-0.688 0-0.688 0.5z"></path>
</svg>
