<!-- Generated by IcoMoon.io -->
<svg version="1.1" xmlns="http://www.w3.org/2000/svg" width="32" height="32" viewBox="0 0 32 32">
<title>uniE252</title>
<path d="M26.5 16.063q-0.063-1.5-1.125-2.813-1-1.25-3-1.313-0.813 0-1.75 0.375-0.813 0.375-0.875 1.125 0.125 1.188 1.438 1.25 0.813 0 1.375-0.375 0.625-0.375 1.063-0.438 1.313 0 1.688 1.25v0.375q0 0.875-0.375 1.375-0.688 0.875-2 1.063h-0.313q-0.688 0-1.438-0.375-0.438-0.188-0.844-0.406t-0.594-0.344l-3.813-2.625q-2.5-2.063-5.938-2.25-1.75 0.25-3.063 1.063-1.188 1-1.5 2.625 0 1.75 1.125 3 1.063 1.25 3.063 1.438 0.938 0 1.875-0.375 0.938-0.563 0.875-1.5-0.5-0.875-1.5-0.875-0.875 0.125-1.313 0.438-0.5 0.313-1.125 0.438-0.75 0-1.25-0.5-0.438-0.5-0.438-1.25 0-0.688 0.5-1.375 0.563-0.75 1.75-1 1.813 0.188 3.25 1.25l3.813 2.563q2.563 2 5.875 2.188 1.875 0 3.25-1.188 1.438-1.125 1.313-2.813z"></path>
</svg>
