<!-- Generated by IcoMoon.io -->
<svg version="1.1" xmlns="http://www.w3.org/2000/svg" width="32" height="32" viewBox="0 0 32 32">
<title>uniE365</title>
<path d="M21.813 23.188q1.5 0 1.5-1.563 0-0.813-0.344-1.188t-1.156-0.375-1.188 0.344-0.375 1.219q0 1.563 1.563 1.563zM8.688 16.313q0.438 0.438 1.188 0.438 0.688 0 1.125-0.438t0.438-1.125q0-1.563-1.563-1.563-1.625 0-1.625 1.563 0 0.688 0.438 1.125zM20.688 11.563h-3.188l-11.75 13.625h3.313zM26.313 11.563h-3.25l-11.688 13.625h3.25zM14.375 1.313v-0.063q0-0.5 1.5-0.5 1.625-0.125 1.688 1.875 0 0.938-0.625 1.625-0.438 0.75-1.188 1.375-0.813 0.25-2.438 1.625-1.313 0.938-1.125 2.5h0.938q0.188-1.188 1.375-1.188 0.875 0.188 1.563 0.813 0.25 0.313 0.719 0.531t1.031 0.281q0.625-0.063 1.156-0.438t0.781-0.938q0.438-1.063 0.438-2.438h-0.625q-0.125 0.688-0.25 0.969t-0.438 0.281h-0.688q-1.125-0.688-2.313-0.688-0.313 0-0.938 0.125 1.188-1.063 3.063-1.688 1.875-0.563 2-2.438 0-1.063-1-2.063-0.75-0.875-2.5-0.875-2.063 0-3.063 0.813-1 1.25-1 2.125 0.25 1.25 1.688 1.438 0.563 0 1-0.313 0.063-0.125 0.25-0.375t0.188-0.563q0-0.813-0.625-1.125-0.563-0.125-0.563-0.688z"></path>
</svg>
