<!-- Generated by IcoMoon.io -->
<svg version="1.1" xmlns="http://www.w3.org/2000/svg" width="32" height="32" viewBox="0 0 32 32">
<title>uniE221</title>
<path d="M3.813 20.563q-2.563-2.938-2.25-6.625 0.188-2.5 1.563-4.5t3.563-3.094 4.688-0.969q2.438 0.188 4.469 1.594t3.125 3.594 0.906 4.688q-0.125 1.188-0.313 1.75l-0.188 0.688-1.313-0.313 0.125-0.75q0.188-0.438 0.313-1.5 0.188-3.25-1.906-5.656t-5.281-2.594q-3.125-0.25-5.625 1.813-2.5 2.125-2.688 5.375-0.125 1.5 0.375 3t1.5 2.625q2.063 2.313 5.313 2.625l0.688 0.063-0.125 1.375h-0.625q-3.813-0.313-6.313-3.188zM10.75 22.375h16.688v1.375h-16.688v-1.375zM22.75 19.125l7.875 3.938-7.875 3.938v-7.875z"></path>
</svg>
