<!-- Generated by IcoMoon.io -->
<svg version="1.1" xmlns="http://www.w3.org/2000/svg" width="32" height="32" viewBox="0 0 32 32">
<title>uniE269</title>
<path d="M9.688 22.875q-1.688 1.25-3.5 1.313-1.125 0-1.938-0.688-0.875-0.563-0.875-1.688 0.125-1.813 1.75-3.125t3.313-1.375q0.813 0 1.406 0.156t0.594 0.469v-14.25h0.938v16q0 1.875-1.688 3.188zM26.938 19.375q-1.688 1.25-3.5 1.313-1.125 0-1.938-0.688t-0.813-1.75q0-1.75 1.688-3.063 1.625-1.313 3.313-1.375h0.313q0.688 0 1.219 0.188t0.531 0.438v-14.313h0.875v16q0 1.938-1.688 3.25z"></path>
</svg>
