<!-- Generated by IcoMoon.io -->
<svg version="1.1" xmlns="http://www.w3.org/2000/svg" width="32" height="32" viewBox="0 0 32 32">
<title>uniE284</title>
<path d="M15.313 15.563q-0.25 0-0.438-0.313l-3.063-3.25q-0.188-0.188-0.313-0.188-0.313 0-0.5 0.375l-3.75 5.188v2l1.938-2.75q0.188-0.188 0.375-0.188 0.313 0 0.5 0.313l3.063 3.25q0.188 0.188 0.375 0.188 0.25 0 0.438-0.313l2.375-3.25q0.188-0.188 0.375-0.188 0.25 0 0.438 0.313l3.063 3.25q0.188 0.188 0.375 0.188 0.25 0 0.438-0.313l3.813-5.25v-2l-2 2.75q-0.188 0.188-0.438 0.188t-0.438-0.313l-3-3.25q-0.188-0.188-0.375-0.188-0.313 0-0.5 0.375l-2.375 3.188q-0.188 0.188-0.375 0.188z"></path>
</svg>
