<!-- Generated by IcoMoon.io -->
<svg version="1.1" xmlns="http://www.w3.org/2000/svg" width="32" height="32" viewBox="0 0 32 32">
<title>uniE116</title>
<path d="M16.25 24.938q-2.313 0-3.875 0.688-1.938 0.75-2 2.688 0.188 2 2.125 2.75 1.75 0.688 3.25 0.688 2.125 0 3.813-0.688 1.875-0.75 2.063-2.75-0.313-2-2.25-2.688-1.563-0.688-3.125-0.688zM13.813 27.188q0-0.813 0.25-1.125 0.313-0.438 1.25-0.625h0.188q1.063 0 1.688 0.813 1 1.188 1 2.938 0 2-1.5 2h-0.313q-0.875 0-1.625-0.813-0.813-1.063-0.938-2.625v-0.563z"></path>
</svg>
